<svg width="24" height="18" viewBox="0 0 24 18" xmlns="http://www.w3.org/2000/svg" xmlns:xlink="http://www.w3.org/1999/xlink"><title>AL</title><defs><filter x="-50%" y="-50%" width="200%" height="200%" filterUnits="objectBoundingBox" id="a"><feOffset dy=".5" in="SourceAlpha" result="shadowOffsetOuter1"/><feGaussianBlur stdDeviation=".5" in="shadowOffsetOuter1" result="shadowBlurOuter1"/><feColorMatrix values="0 0 0 0 0 0 0 0 0 0 0 0 0 0 0 0 0 0 0.16 0" in="shadowBlurOuter1" result="shadowMatrixOuter1"/><feMerge><feMergeNode in="shadowMatrixOuter1"/><feMergeNode in="SourceGraphic"/></feMerge></filter><rect id="b" width="22" height="15.7" rx="1.5"/><filter x="-50%" y="-50%" width="200%" height="200%" filterUnits="objectBoundingBox" id="c"><feOffset dy=".5" in="SourceAlpha" result="shadowOffsetOuter1"/><feGaussianBlur stdDeviation=".5" in="shadowOffsetOuter1" result="shadowBlurOuter1"/><feColorMatrix values="0 0 0 0 0 0 0 0 0 0 0 0 0 0 0 0 0 0 0.16 0" in="shadowBlurOuter1"/></filter><linearGradient x1="50%" y1="0%" x2="50%" y2="100%" id="d"><stop stop-color="#EE343B" offset="0%"/><stop stop-color="#E2222A" offset="100%"/></linearGradient><linearGradient x1="50%" y1="0%" x2="50%" y2="100%" id="f"><stop stop-color="#262626" offset="0%"/><stop stop-color="#0C0C0C" offset="100%"/></linearGradient><rect id="h" width="22" height="15.7" rx="1.5"/><filter x="-50%" y="-50%" width="200%" height="200%" filterUnits="objectBoundingBox" id="g"><feOffset dy="-.5" in="SourceAlpha" result="shadowOffsetInner1"/><feComposite in="shadowOffsetInner1" in2="SourceAlpha" operator="arithmetic" k2="-1" k3="1" result="shadowInnerInner1"/><feColorMatrix values="0 0 0 0 0 0 0 0 0 0 0 0 0 0 0 0 0 0 0.04 0" in="shadowInnerInner1" result="shadowMatrixInner1"/><feOffset dy=".5" in="SourceAlpha" result="shadowOffsetInner2"/><feComposite in="shadowOffsetInner2" in2="SourceAlpha" operator="arithmetic" k2="-1" k3="1" result="shadowInnerInner2"/><feColorMatrix values="0 0 0 0 1 0 0 0 0 1 0 0 0 0 1 0 0 0 0.12 0" in="shadowInnerInner2" result="shadowMatrixInner2"/><feMerge><feMergeNode in="shadowMatrixInner1"/><feMergeNode in="shadowMatrixInner2"/></feMerge></filter></defs><g filter="url(#a)" transform="translate(1 1)" fill="none" fill-rule="evenodd"><mask id="e" fill="#fff"><use xlink:href="#b"/></mask><use fill="#000" filter="url(#c)" xlink:href="#b"/><path fill="url(#d)" mask="url(#e)" d="M0 0h22v15.7H0z"/><path d="M9.777 3.488a.637.637 0 0 0-.761-.073l-.746.497c-.228.152-.22.371.031.497l1.207.602a.879.879 0 0 1 .444.721v.05a.498.498 0 0 1-.499.498h-.049c-.276 0-.693-.097-.944-.222l-1.206-.603a.747.747 0 0 0-.8.133l-.337.338c-.196.195-.162.45.09.576l1.206.603c.245.122.251.35.031.497l-.745.496c-.228.152-.19.32.08.374l1.633.326c.272.055.314.233.089.401l-1.287.965c-.224.167-.182.303.095.303h.049c.276 0 .723-.056.985-.122l1.123-.28c.269-.067.358.07.211.29l-.497.746c-.152.228-.057.412.222.412h.577c.275 0 .57.219.657.48l.204.61c.088.266.233.262.32 0l.204-.61a.738.738 0 0 1 .657-.48h.577c.275 0 .369-.192.222-.412l-.497-.745c-.152-.228-.051-.357.21-.291l1.124.28c.268.067.708.122.985.122h.05c.275 0 .32-.134.094-.303L13.5 9.199c-.223-.167-.18-.347.089-.4l1.634-.327c.272-.055.3-.227.08-.374l-.746-.496c-.228-.152-.22-.372.031-.497l1.207-.603c.245-.123.28-.386.09-.576l-.339-.338a.732.732 0 0 0-.799-.133l-1.206.603a2.498 2.498 0 0 1-.944.222h-.05a.498.498 0 0 1-.498-.499v-.049c0-.275.194-.596.452-.725l1.643-.82-1.159-.772a.63.63 0 0 0-.761.073l-.874.874a.494.494 0 0 1-.698 0l-.874-.874z" fill="url(#f)" mask="url(#e)"/><g mask="url(#e)" fill="#000"><use filter="url(#g)" xlink:href="#h"/></g></g></svg>