<svg width="24" height="18" viewBox="0 0 24 18" xmlns="http://www.w3.org/2000/svg" xmlns:xlink="http://www.w3.org/1999/xlink"><title>BM</title><defs><filter x="-50%" y="-50%" width="200%" height="200%" filterUnits="objectBoundingBox" id="b"><feOffset dy=".5" in="SourceAlpha" result="shadowOffsetOuter1"/><feGaussianBlur stdDeviation=".5" in="shadowOffsetOuter1" result="shadowBlurOuter1"/><feColorMatrix values="0 0 0 0 0 0 0 0 0 0 0 0 0 0 0 0 0 0 0.16 0" in="shadowBlurOuter1" result="shadowMatrixOuter1"/><feMerge><feMergeNode in="shadowMatrixOuter1"/><feMergeNode in="SourceGraphic"/></feMerge></filter><rect id="c" width="22" height="15.7" rx="1.5"/><filter x="-50%" y="-50%" width="200%" height="200%" filterUnits="objectBoundingBox" id="d"><feOffset dy=".5" in="SourceAlpha" result="shadowOffsetOuter1"/><feGaussianBlur stdDeviation=".5" in="shadowOffsetOuter1" result="shadowBlurOuter1"/><feColorMatrix values="0 0 0 0 0 0 0 0 0 0 0 0 0 0 0 0 0 0 0.16 0" in="shadowBlurOuter1"/></filter><linearGradient x1="50%" y1="0%" x2="50%" y2="100%" id="h"><stop stop-color="#DC1E36" offset="0%"/><stop stop-color="#CF142C" offset="100%"/></linearGradient><path id="g" d="M0 0h22v15.7H0z"/><filter x="-50%" y="-50%" width="200%" height="200%" filterUnits="objectBoundingBox" id="f"><feOffset dy=".5" in="SourceAlpha" result="shadowOffsetOuter1"/><feGaussianBlur stdDeviation=".5" in="shadowOffsetOuter1" result="shadowBlurOuter1"/><feColorMatrix values="0 0 0 0 0 0 0 0 0 0 0 0 0 0 0 0 0 0 0.16 0" in="shadowBlurOuter1"/></filter><linearGradient x1="50%" y1="0%" x2="50%" y2="100%" id="i"><stop stop-color="#042C90" offset="0%"/><stop stop-color="#00247E" offset="100%"/></linearGradient><path d="M0 2.617V0h4.19v2.617c0 1.57-2.095 2.616-2.095 2.616S0 4.187 0 2.617z" id="j"/><filter x="-50%" y="-50%" width="200%" height="200%" filterUnits="objectBoundingBox" id="k"><feOffset dy=".5" in="SourceAlpha" result="shadowOffsetOuter1"/><feColorMatrix values="0 0 0 0 0 0 0 0 0 0 0 0 0 0 0 0 0 0 0.06 0" in="shadowOffsetOuter1"/></filter><linearGradient x1="50%" y1="0%" x2="50%" y2="100%" id="m"><stop stop-color="#E20A0B" offset="0%"/><stop stop-color="#D40001" offset="100%"/></linearGradient><linearGradient x1="50%" y1="0%" x2="50%" y2="100%" id="n"><stop stop-color="#DB1E36" offset="0%"/><stop stop-color="#D51931" offset="100%"/></linearGradient><path d="M3.667 3.14L0 0h.524L4.19 2.617h1.048L9.428 0v.274c0 .138-.09.314-.197.39L5.761 3.14v1.047l3.47 2.97c.11.094.076.17-.052.17h-.025a.908.908 0 0 1-.446-.141L5.238 4.71H4.19L0 7.327v-.524l3.667-2.616V3.14z" id="a"/><mask id="o" x="-.5" y="-.5" width="10.429" height="8.327"><path fill="#fff" d="M-.5-.5H9.929v8.327H-.5z"/><use xlink:href="#a"/></mask><path d="M0 2.617V4.71h3.667v2.65c0 .27.224.49.507.49h1.08c.28 0 .508-.226.508-.49V4.71h3.693a.5.5 0 0 0 .497-.507v-1.08a.504.504 0 0 0-.497-.506H5.762V0H3.667v2.617H0z" id="q"/><filter x="-50%" y="-50%" width="200%" height="200%" filterUnits="objectBoundingBox" id="p"><feMorphology radius=".25" operator="dilate" in="SourceAlpha" result="shadowSpreadOuter1"/><feOffset in="shadowSpreadOuter1" result="shadowOffsetOuter1"/><feColorMatrix values="0 0 0 0 0 0 0 0 0 0 0 0 0 0 0 0 0 0 0.06 0" in="shadowOffsetOuter1"/></filter><rect id="s" width="22" height="15.7" rx="1.5"/><filter x="-50%" y="-50%" width="200%" height="200%" filterUnits="objectBoundingBox" id="r"><feOffset dy="-.5" in="SourceAlpha" result="shadowOffsetInner1"/><feComposite in="shadowOffsetInner1" in2="SourceAlpha" operator="arithmetic" k2="-1" k3="1" result="shadowInnerInner1"/><feColorMatrix values="0 0 0 0 0 0 0 0 0 0 0 0 0 0 0 0 0 0 0.04 0" in="shadowInnerInner1" result="shadowMatrixInner1"/><feOffset dy=".5" in="SourceAlpha" result="shadowOffsetInner2"/><feComposite in="shadowOffsetInner2" in2="SourceAlpha" operator="arithmetic" k2="-1" k3="1" result="shadowInnerInner2"/><feColorMatrix values="0 0 0 0 1 0 0 0 0 1 0 0 0 0 1 0 0 0 0.12 0" in="shadowInnerInner2" result="shadowMatrixInner2"/><feMerge><feMergeNode in="shadowMatrixInner1"/><feMergeNode in="shadowMatrixInner2"/></feMerge></filter></defs><g filter="url(#b)" transform="translate(1 1)" fill="none" fill-rule="evenodd"><mask id="e" fill="#fff"><use xlink:href="#c"/></mask><use fill="#000" filter="url(#d)" xlink:href="#c"/><g mask="url(#e)"><use fill="#000" filter="url(#f)" xlink:href="#g"/><use fill="url(#h)" xlink:href="#g"/></g><path fill="url(#i)" mask="url(#e)" d="M0 0h9.429v7.327H0z"/><g mask="url(#e)"><g transform="translate(13.619 5.233)"><mask id="l" fill="#fff"><use xlink:href="#j"/></mask><use fill="#000" filter="url(#k)" xlink:href="#j"/><use fill="#fff" xlink:href="#j"/><ellipse fill="#65B5D2" mask="url(#l)" cx="2.095" cy="3.14" rx="1.048" ry="1.047"/><path d="M2.095 2.093a.524.524 0 1 1 0-1.047.524.524 0 0 1 0 1.047zM1.048 3.14a.524.524 0 1 1 0-1.047.524.524 0 0 1 0 1.047zm2.095 0a.524.524 0 1 1 0-1.047.524.524 0 0 1 0 1.047z" fill="url(#m)" mask="url(#l)"/><path fill="#2F8F22" mask="url(#l)" d="M0 4.187h4.19v1.047H0z"/></g></g><g mask="url(#e)"><use fill="url(#n)" xlink:href="#a"/><use stroke="#FFF" mask="url(#o)" xlink:href="#a"/></g><g mask="url(#e)"><use fill="#000" filter="url(#p)" xlink:href="#q"/><use fill="#fff" xlink:href="#q"/></g><path fill="url(#n)" mask="url(#e)" d="M0 3.14h4.19V0h1.048v3.14h4.19v1.047h-4.19v3.14H4.19v-3.14H0z"/><g mask="url(#e)" fill="#000"><use filter="url(#r)" xlink:href="#s"/></g></g></svg>