<svg width="24" height="18" viewBox="0 0 24 18" xmlns="http://www.w3.org/2000/svg" xmlns:xlink="http://www.w3.org/1999/xlink"><title>CY</title><defs><filter x="-50%" y="-50%" width="200%" height="200%" filterUnits="objectBoundingBox" id="a"><feOffset dy=".5" in="SourceAlpha" result="shadowOffsetOuter1"/><feGaussianBlur stdDeviation=".5" in="shadowOffsetOuter1" result="shadowBlurOuter1"/><feColorMatrix values="0 0 0 0 0 0 0 0 0 0 0 0 0 0 0 0 0 0 0.16 0" in="shadowBlurOuter1" result="shadowMatrixOuter1"/><feMerge><feMergeNode in="shadowMatrixOuter1"/><feMergeNode in="SourceGraphic"/></feMerge></filter><rect id="b" width="22" height="15.7" rx="1.5"/><filter x="-50%" y="-50%" width="200%" height="200%" filterUnits="objectBoundingBox" id="c"><feOffset dy=".5" in="SourceAlpha" result="shadowOffsetOuter1"/><feGaussianBlur stdDeviation=".5" in="shadowOffsetOuter1" result="shadowBlurOuter1"/><feColorMatrix values="0 0 0 0 0 0 0 0 0 0 0 0 0 0 0 0 0 0 0.16 0" in="shadowBlurOuter1"/></filter><linearGradient x1="50%" y1="0%" x2="50%" y2="100%" id="d"><stop stop-color="#E7832B" offset="0%"/><stop stop-color="#D7751F" offset="100%"/></linearGradient><rect id="f" width="22" height="15.7" rx="1.5"/><filter x="-50%" y="-50%" width="200%" height="200%" filterUnits="objectBoundingBox" id="g"><feOffset dy="-.5" in="SourceAlpha" result="shadowOffsetInner1"/><feComposite in="shadowOffsetInner1" in2="SourceAlpha" operator="arithmetic" k2="-1" k3="1" result="shadowInnerInner1"/><feColorMatrix values="0 0 0 0 0 0 0 0 0 0 0 0 0 0 0 0 0 0 0.04 0" in="shadowInnerInner1" result="shadowMatrixInner1"/><feOffset dy=".5" in="SourceAlpha" result="shadowOffsetInner2"/><feComposite in="shadowOffsetInner2" in2="SourceAlpha" operator="arithmetic" k2="-1" k3="1" result="shadowInnerInner2"/><feColorMatrix values="0 0 0 0 1 0 0 0 0 1 0 0 0 0 1 0 0 0 0.12 0" in="shadowInnerInner2" result="shadowMatrixInner2"/><feMerge><feMergeNode in="shadowMatrixInner1"/><feMergeNode in="shadowMatrixInner2"/></feMerge></filter></defs><g filter="url(#a)" transform="translate(1 1)" fill="none" fill-rule="evenodd"><mask id="e" fill="#fff"><use xlink:href="#b"/></mask><use fill="#000" filter="url(#c)" xlink:href="#b"/><use fill="#fff" xlink:href="#b"/><path d="M16.312 2.318c.248-.124.321-.032.175.188l-.497.745c-.152.228-.468.54-.689.687l-.745.497a6 6 0 0 0-.771.633l.192-.192a.508.508 0 0 0-.003.712l.338.338a.505.505 0 0 1 0 .708l-.338.338a.745.745 0 0 1-.805.13l-.147-.074a.504.504 0 0 0-.676.225l-.073.147a1.408 1.408 0 0 1-.705.61l-.612.203c-.265.089-.702.16-.98.16h-.048c-.276 0-.6.202-.725.45l-.073.147a.496.496 0 0 1-.67.228l-1.206-.603a3.728 3.728 0 0 1-.8-.576l-.337-.338a1.382 1.382 0 0 1-.355-.853v-.05a.5.5 0 0 1 .501-.498h-.479c.277 0 .665-.164.856-.354l.339-.338c.196-.196.577-.355.854-.355h.049a.748.748 0 0 0 .659-.48l.204-.61a.588.588 0 0 1 .652-.381l1.634.326c.272.055.717.043.979-.023l1.123-.28c.268-.067.688-.223.936-.347l.147-.073.901-.45.147-.073.9-.45.148-.074z" fill="url(#d)" mask="url(#e)"/><ellipse fill="#445128" mask="url(#e)" cx="11" cy="12.037" rx=".524" ry=".523"/><path d="M12.571 11.513s1.572-.523 2.096-1.57" stroke="#445128" stroke-linecap="round" opacity=".75" mask="url(#e)"/><path d="M7.333 11.513s1.572-.523 2.096-1.57" stroke="#445128" stroke-linecap="round" opacity=".75" mask="url(#e)" transform="matrix(-1 0 0 1 16.762 0)"/><g fill="#000"><use filter="url(#g)" xlink:href="#f"/></g></g></svg>