<svg width="24" height="18" viewBox="0 0 24 18" xmlns="http://www.w3.org/2000/svg" xmlns:xlink="http://www.w3.org/1999/xlink"><title>EU</title><defs><filter x="-50%" y="-50%" width="200%" height="200%" filterUnits="objectBoundingBox" id="a"><feOffset dy=".5" in="SourceAlpha" result="shadowOffsetOuter1"/><feGaussianBlur stdDeviation=".5" in="shadowOffsetOuter1" result="shadowBlurOuter1"/><feColorMatrix values="0 0 0 0 0 0 0 0 0 0 0 0 0 0 0 0 0 0 0.16 0" in="shadowBlurOuter1" result="shadowMatrixOuter1"/><feMerge><feMergeNode in="shadowMatrixOuter1"/><feMergeNode in="SourceGraphic"/></feMerge></filter><rect id="b" width="22" height="15.7" rx="1.5"/><filter x="-50%" y="-50%" width="200%" height="200%" filterUnits="objectBoundingBox" id="c"><feOffset dy=".5" in="SourceAlpha" result="shadowOffsetOuter1"/><feGaussianBlur stdDeviation=".5" in="shadowOffsetOuter1" result="shadowBlurOuter1"/><feColorMatrix values="0 0 0 0 0 0 0 0 0 0 0 0 0 0 0 0 0 0 0.16 0" in="shadowBlurOuter1"/></filter><linearGradient x1="50%" y1="0%" x2="50%" y2="100%" id="d"><stop stop-color="#033CAE" offset="0%"/><stop stop-color="#00339A" offset="100%"/></linearGradient><linearGradient x1="50%" y1="0%" x2="50%" y2="100%" id="h"><stop stop-color="#FFD428" offset="0%"/><stop stop-color="#FC0" offset="100%"/></linearGradient><path d="M11 3.14l-.74.217.216-.74-.217-.74.741.216.74-.216-.216.74.217.74L11 3.14zm0 10.467l-.74.216.216-.74-.217-.74.741.217.74-.217-.216.74.217.74-.741-.216zm5.238-5.234l-.74.217.216-.74-.217-.74.741.217.74-.217-.216.74.217.74-.74-.217zm-10.476 0l-.74.217.216-.74-.217-.74.74.217.742-.217-.217.74.217.74-.741-.217zm9.774-2.616l-.74.216.217-.74-.217-.74.74.217.741-.217-.217.74.217.74-.74-.216zM6.464 10.99l-.741.217.217-.74-.217-.74.74.216.741-.216-.217.74.217.74-.74-.217zm7.155-7.149l-.74.217.216-.74-.217-.74.741.216.74-.216-.216.74.217.74-.741-.217zm-5.238 9.065l-.74.216.216-.74-.217-.74.741.217.74-.217-.216.74.217.74-.741-.216zm7.155-1.916l-.74.217.217-.74-.217-.74.74.216.741-.216-.217.74.217.74-.74-.217zM6.464 5.757l-.741.216.217-.74-.217-.74.74.217.741-.217-.217.74.217.74-.74-.216zm7.155 7.149l-.74.216.216-.74-.217-.74.741.217.74-.217-.216.74.217.74-.741-.216zM8.381 3.84l-.74.217.216-.74-.217-.74.741.216.74-.216-.216.74.217.74-.741-.217z" id="g"/><filter x="-50%" y="-50%" width="200%" height="200%" filterUnits="objectBoundingBox" id="f"><feOffset dy=".5" in="SourceAlpha" result="shadowOffsetOuter1"/><feColorMatrix values="0 0 0 0 0 0 0 0 0 0 0 0 0 0 0 0 0 0 0.06 0" in="shadowOffsetOuter1"/></filter><rect id="j" width="22" height="15.7" rx="1.5"/><filter x="-50%" y="-50%" width="200%" height="200%" filterUnits="objectBoundingBox" id="i"><feOffset dy="-.5" in="SourceAlpha" result="shadowOffsetInner1"/><feComposite in="shadowOffsetInner1" in2="SourceAlpha" operator="arithmetic" k2="-1" k3="1" result="shadowInnerInner1"/><feColorMatrix values="0 0 0 0 0 0 0 0 0 0 0 0 0 0 0 0 0 0 0.04 0" in="shadowInnerInner1" result="shadowMatrixInner1"/><feOffset dy=".5" in="SourceAlpha" result="shadowOffsetInner2"/><feComposite in="shadowOffsetInner2" in2="SourceAlpha" operator="arithmetic" k2="-1" k3="1" result="shadowInnerInner2"/><feColorMatrix values="0 0 0 0 1 0 0 0 0 1 0 0 0 0 1 0 0 0 0.12 0" in="shadowInnerInner2" result="shadowMatrixInner2"/><feMerge><feMergeNode in="shadowMatrixInner1"/><feMergeNode in="shadowMatrixInner2"/></feMerge></filter></defs><g filter="url(#a)" transform="translate(1 1)" fill="none" fill-rule="evenodd"><mask id="e" fill="#fff"><use xlink:href="#b"/></mask><use filter="url(#c)" xlink:href="#b" fill="#000"/><path fill="url(#d)" mask="url(#e)" d="M0 0h22v15.7H0z"/><g mask="url(#e)"><use fill="#000" filter="url(#f)" xlink:href="#g"/><use fill="url(#h)" xlink:href="#g"/></g><g mask="url(#e)" fill="#000"><use filter="url(#i)" xlink:href="#j"/></g></g></svg>