<svg width="24" height="18" viewBox="0 0 24 18" xmlns="http://www.w3.org/2000/svg" xmlns:xlink="http://www.w3.org/1999/xlink"><title>FK</title><defs><filter x="-50%" y="-50%" width="200%" height="200%" filterUnits="objectBoundingBox" id="c"><feOffset dy=".5" in="SourceAlpha" result="shadowOffsetOuter1"/><feGaussianBlur stdDeviation=".5" in="shadowOffsetOuter1" result="shadowBlurOuter1"/><feColorMatrix values="0 0 0 0 0 0 0 0 0 0 0 0 0 0 0 0 0 0 0.16 0" in="shadowBlurOuter1" result="shadowMatrixOuter1"/><feMerge><feMergeNode in="shadowMatrixOuter1"/><feMergeNode in="SourceGraphic"/></feMerge></filter><rect id="d" width="22" height="15.7" rx="1.5"/><filter x="-50%" y="-50%" width="200%" height="200%" filterUnits="objectBoundingBox" id="e"><feOffset dy=".5" in="SourceAlpha" result="shadowOffsetOuter1"/><feGaussianBlur stdDeviation=".5" in="shadowOffsetOuter1" result="shadowBlurOuter1"/><feColorMatrix values="0 0 0 0 0 0 0 0 0 0 0 0 0 0 0 0 0 0 0.16 0" in="shadowBlurOuter1"/></filter><linearGradient x1="50%" y1="0%" x2="50%" y2="100%" id="i"><stop stop-color="#06319C" offset="0%"/><stop stop-color="#00247E" offset="100%"/></linearGradient><path id="h" d="M0 0h22v15.7H0z"/><filter x="-50%" y="-50%" width="200%" height="200%" filterUnits="objectBoundingBox" id="g"><feOffset dy=".5" in="SourceAlpha" result="shadowOffsetOuter1"/><feGaussianBlur stdDeviation=".5" in="shadowOffsetOuter1" result="shadowBlurOuter1"/><feColorMatrix values="0 0 0 0 0 0 0 0 0 0 0 0 0 0 0 0 0 0 0.16 0" in="shadowBlurOuter1"/></filter><linearGradient x1="50%" y1="0%" x2="50%" y2="100%" id="m"><stop stop-color="#1E8BDE" offset="0%"/><stop stop-color="#1075C2" offset="100%"/></linearGradient><linearGradient x1="50%" y1="0%" x2="50%" y2="100%" id="k"><stop stop-color="#FFF" offset="0%"/><stop stop-color="#F0F0F0" offset="100%"/></linearGradient><path d="M0 3.663V.51C0 .228.225 0 .502 0h4.234a.5.5 0 0 1 .502.509v3.154c0 2.617-2.619 3.664-2.619 3.664S0 6.28 0 3.663z" id="a"/><filter x="-50%" y="-50%" width="200%" height="200%" filterUnits="objectBoundingBox" id="j"><feOffset dy=".5" in="SourceAlpha" result="shadowOffsetOuter1"/><feComposite in="shadowOffsetOuter1" in2="SourceAlpha" operator="out" result="shadowOffsetOuter1"/><feColorMatrix values="0 0 0 0 0 0 0 0 0 0 0 0 0 0 0 0 0 0 0.06 0" in="shadowOffsetOuter1"/></filter><mask id="l" x="0" y="0" width="5.238" height="7.327" fill="#fff"><use xlink:href="#a"/></mask><linearGradient x1="50%" y1="0%" x2="50%" y2="100%" id="q"><stop stop-color="#187535" offset="0%"/><stop stop-color="#0E5023" offset="100%"/></linearGradient><path d="M1.208 3.62c-.089-.265.066-.48.33-.48H3.7c.272 0 .419.218.331.48l-.203.61c-.089.265-.304.303-.524.134 0 0 .072-.177-.684-.177s-.684.177-.684.177c-.2.191-.436.128-.524-.134l-.203-.61z" id="p"/><filter x="-50%" y="-50%" width="200%" height="200%" filterUnits="objectBoundingBox" id="o"><feOffset dy=".5" in="SourceAlpha" result="shadowOffsetOuter1"/><feColorMatrix values="0 0 0 0 0 0 0 0 0 0 0 0 0 0 0 0 0 0 0.06 0" in="shadowOffsetOuter1"/></filter><path d="M1.571 3.14c.284.056.619-.523 1.048-.523.458 0 .76.593 1.048.523.257-.063.523-.773.523-1.047 0-.578-.703-1.046-1.571-1.046s-1.571.468-1.571 1.046c0 .293.233.99.523 1.047z" id="s"/><filter x="-50%" y="-50%" width="200%" height="200%" filterUnits="objectBoundingBox" id="r"><feOffset dy=".5" in="SourceAlpha" result="shadowOffsetOuter1"/><feColorMatrix values="0 0 0 0 0 0 0 0 0 0 0 0 0 0 0 0 0 0 0.06 0" in="shadowOffsetOuter1"/></filter><path d="M-.339 6.465l.367-.366.315-.315c.1-.1.262-.1.362 0l.315.315a.78.78 0 0 0 1.103 0l.315-.315c.1-.1.262-.1.362 0l.315.315a.78.78 0 0 0 1.103 0l.315-.315c.1-.1.262-.1.362 0l.315.315.185.185.37-.37-.184-.185-.315-.315a.78.78 0 0 0-1.103 0l-.315.315c-.1.1-.262.1-.363 0l-.314-.315a.78.78 0 0 0-1.104 0l-.314.315c-.1.1-.263.1-.363 0l-.315-.315a.78.78 0 0 0-1.103 0l-.315.315-.366.366-.185.185.37.37.185-.185z" id="u"/><filter x="-50%" y="-50%" width="200%" height="200%" filterUnits="objectBoundingBox" id="t"><feOffset dy=".5" in="SourceAlpha" result="shadowOffsetOuter1"/><feColorMatrix values="0 0 0 0 0 0 0 0 0 0 0 0 0 0 0 0 0 0 0.06 0" in="shadowOffsetOuter1"/></filter><path d="M-.339 4.895l.367-.366.315-.315c.1-.1.262-.1.362 0l.315.315a.78.78 0 0 0 1.103 0l.315-.315c.1-.1.262-.1.362 0l.315.315a.78.78 0 0 0 1.103 0l.315-.315c.1-.1.262-.1.362 0l.315.315.185.185.37-.37-.184-.185-.315-.315a.78.78 0 0 0-1.103 0l-.315.315c-.1.1-.262.1-.363 0l-.314-.315a.78.78 0 0 0-1.104 0l-.314.315c-.1.1-.263.1-.363 0l-.315-.315a.78.78 0 0 0-1.103 0l-.315.315-.366.366-.185.185.37.37.185-.185z" id="w"/><filter x="-50%" y="-50%" width="200%" height="200%" filterUnits="objectBoundingBox" id="v"><feOffset dy=".5" in="SourceAlpha" result="shadowOffsetOuter1"/><feColorMatrix values="0 0 0 0 0 0 0 0 0 0 0 0 0 0 0 0 0 0 0.06 0" in="shadowOffsetOuter1"/></filter><path d="M-.339 8.035l.367-.366.315-.315c.1-.1.262-.1.362 0l.315.315a.78.78 0 0 0 1.103 0l.315-.315c.1-.1.262-.1.362 0l.315.315a.78.78 0 0 0 1.103 0l.315-.315c.1-.1.262-.1.362 0l.315.315.185.185.37-.37-.184-.185-.315-.315a.78.78 0 0 0-1.103 0l-.315.315c-.1.1-.262.1-.363 0l-.314-.315a.78.78 0 0 0-1.104 0l-.314.315c-.1.1-.263.1-.363 0l-.315-.315a.78.78 0 0 0-1.103 0l-.315.315-.366.366-.185.185.37.37.185-.185z" id="y"/><filter x="-50%" y="-50%" width="200%" height="200%" filterUnits="objectBoundingBox" id="x"><feOffset dy=".5" in="SourceAlpha" result="shadowOffsetOuter1"/><feColorMatrix values="0 0 0 0 0 0 0 0 0 0 0 0 0 0 0 0 0 0 0.06 0" in="shadowOffsetOuter1"/></filter><linearGradient x1="50%" y1="0%" x2="50%" y2="100%" id="z"><stop stop-color="#DB1E36" offset="0%"/><stop stop-color="#D51931" offset="100%"/></linearGradient><path d="M3.667 3.14L0 0h.524L4.19 2.617h1.048L9.428 0v.274c0 .138-.09.314-.197.39L5.761 3.14v1.047l3.47 2.97c.11.094.076.17-.052.17h-.025a.908.908 0 0 1-.446-.141L5.238 4.71H4.19L0 7.327v-.524l3.667-2.616V3.14z" id="b"/><mask id="A" x="-.5" y="-.5" width="10.429" height="8.327"><path fill="#fff" d="M-.5-.5H9.929v8.327H-.5z"/><use xlink:href="#b"/></mask><rect id="C" width="22" height="15.7" rx="1.5"/><filter x="-50%" y="-50%" width="200%" height="200%" filterUnits="objectBoundingBox" id="B"><feOffset dy="-.5" in="SourceAlpha" result="shadowOffsetInner1"/><feComposite in="shadowOffsetInner1" in2="SourceAlpha" operator="arithmetic" k2="-1" k3="1" result="shadowInnerInner1"/><feColorMatrix values="0 0 0 0 0 0 0 0 0 0 0 0 0 0 0 0 0 0 0.04 0" in="shadowInnerInner1" result="shadowMatrixInner1"/><feOffset dy=".5" in="SourceAlpha" result="shadowOffsetInner2"/><feComposite in="shadowOffsetInner2" in2="SourceAlpha" operator="arithmetic" k2="-1" k3="1" result="shadowInnerInner2"/><feColorMatrix values="0 0 0 0 1 0 0 0 0 1 0 0 0 0 1 0 0 0 0.12 0" in="shadowInnerInner2" result="shadowMatrixInner2"/><feMerge><feMergeNode in="shadowMatrixInner1"/><feMergeNode in="shadowMatrixInner2"/></feMerge></filter><linearGradient x1="50%" y1="0%" x2="50%" y2="100%" id="F"><stop stop-color="#FFD45C" offset="0%"/><stop stop-color="#FDCE4E" offset="100%"/></linearGradient><path d="M15.19 9.42a.524.524 0 1 1 0-1.047.524.524 0 0 1 0 1.047zm2.096 0a.524.524 0 1 1 0-1.047.524.524 0 0 1 0 1.047z" id="E"/><filter x="-50%" y="-50%" width="200%" height="200%" filterUnits="objectBoundingBox" id="D"><feOffset dy=".5" in="SourceAlpha" result="shadowOffsetOuter1"/><feColorMatrix values="0 0 0 0 0 0 0 0 0 0 0 0 0 0 0 0 0 0 0.06 0" in="shadowOffsetOuter1"/></filter></defs><g filter="url(#c)" transform="translate(1 1)" fill="none" fill-rule="evenodd"><mask id="f" fill="#fff"><use xlink:href="#d"/></mask><use fill="#000" filter="url(#e)" xlink:href="#d"/><g mask="url(#f)"><use fill="#000" filter="url(#g)" xlink:href="#h"/><use fill="url(#i)" xlink:href="#h"/></g><g mask="url(#f)"><g transform="translate(13.619 4.187)"><mask id="n" fill="#fff"><use xlink:href="#a"/></mask><use fill="#000" filter="url(#j)" xlink:href="#a"/><use stroke="url(#k)" mask="url(#l)" fill="url(#m)" xlink:href="#a"/><g mask="url(#n)"><use fill="#000" filter="url(#o)" xlink:href="#p"/><use fill="url(#q)" xlink:href="#p"/></g><g mask="url(#n)"><use fill="#000" filter="url(#r)" xlink:href="#s"/><use fill="#fff" xlink:href="#s"/></g><g mask="url(#n)" fill-rule="nonzero"><use fill="#000" filter="url(#t)" xlink:href="#u"/><use fill="#fff" fill-rule="evenodd" xlink:href="#u"/></g><g mask="url(#n)" fill-rule="nonzero"><use fill="#000" filter="url(#v)" xlink:href="#w"/><use fill="#fff" fill-rule="evenodd" xlink:href="#w"/></g><g mask="url(#n)" fill-rule="nonzero"><use fill="#000" filter="url(#x)" xlink:href="#y"/><use fill="#fff" fill-rule="evenodd" xlink:href="#y"/></g></g></g><g mask="url(#f)"><use fill="url(#z)" xlink:href="#b"/><use stroke="#FFF" mask="url(#A)" xlink:href="#b"/></g><path d="M0 2.617V4.71h3.667v2.65c0 .27.224.49.507.49h1.08c.28 0 .508-.226.508-.49V4.71h3.693a.5.5 0 0 0 .497-.507v-1.08a.504.504 0 0 0-.497-.506H5.762V0H3.667v2.617H0z" fill="#fff" mask="url(#f)"/><path fill="url(#z)" mask="url(#f)" d="M0 3.14h4.19V0h1.048v3.14h4.19v1.047h-4.19v3.14H4.19v-3.14H0z"/><g mask="url(#f)" fill="#000"><use filter="url(#B)" xlink:href="#C"/></g><g><use fill="#000" filter="url(#D)" xlink:href="#E"/><use fill="url(#F)" xlink:href="#E"/></g></g></svg>