<svg width="24" height="18" viewBox="0 0 24 18" xmlns="http://www.w3.org/2000/svg" xmlns:xlink="http://www.w3.org/1999/xlink"><title>GB-NIR</title><defs><filter x="-50%" y="-50%" width="200%" height="200%" filterUnits="objectBoundingBox" id="a"><feOffset dy=".5" in="SourceAlpha" result="shadowOffsetOuter1"/><feGaussianBlur stdDeviation=".5" in="shadowOffsetOuter1" result="shadowBlurOuter1"/><feColorMatrix values="0 0 0 0 0 0 0 0 0 0 0 0 0 0 0 0 0 0 0.16 0" in="shadowBlurOuter1" result="shadowMatrixOuter1"/><feMerge><feMergeNode in="shadowMatrixOuter1"/><feMergeNode in="SourceGraphic"/></feMerge></filter><rect id="b" width="22" height="15.7" rx="1.5"/><filter x="-50%" y="-50%" width="200%" height="200%" filterUnits="objectBoundingBox" id="c"><feOffset dy=".5" in="SourceAlpha" result="shadowOffsetOuter1"/><feGaussianBlur stdDeviation=".5" in="shadowOffsetOuter1" result="shadowBlurOuter1"/><feColorMatrix values="0 0 0 0 0 0 0 0 0 0 0 0 0 0 0 0 0 0 0.16 0" in="shadowBlurOuter1"/></filter><linearGradient x1="50%" y1="0%" x2="50%" y2="100%" id="e"><stop stop-color="#E92639" offset="0%"/><stop stop-color="#CA1A2B" offset="100%"/></linearGradient><path d="M9.429 6.28H-1.048v3.14H9.43v7.327h3.142V9.42h10.477V6.28H12.57v-7.327H9.43V6.28z" id="f"/><filter x="-50%" y="-50%" width="200%" height="200%" filterUnits="objectBoundingBox" id="g"><feMorphology radius=".5" in="SourceAlpha" result="shadowSpreadInner1"/><feOffset in="shadowSpreadInner1" result="shadowOffsetInner1"/><feComposite in="shadowOffsetInner1" in2="SourceAlpha" operator="arithmetic" k2="-1" k3="1" result="shadowInnerInner1"/><feColorMatrix values="0 0 0 0 0 0 0 0 0 0 0 0 0 0 0 0 0 0 0.06 0" in="shadowInnerInner1"/></filter><path id="i" d="M12.065 9.693L11 11.513l-1.065-1.82-2.11-.011L8.87 7.85 7.825 6.018l2.11-.01L11 4.186l1.065 1.82 2.11.011L13.13 7.85l1.045 1.832z"/><filter x="-50%" y="-50%" width="200%" height="200%" filterUnits="objectBoundingBox" id="h"><feOffset dy=".5" in="SourceAlpha" result="shadowOffsetOuter1"/><feColorMatrix values="0 0 0 0 0 0 0 0 0 0 0 0 0 0 0 0 0 0 0.06 0" in="shadowOffsetOuter1"/></filter><linearGradient x1="50%" y1="0%" x2="50%" y2="100%" id="j"><stop stop-color="#E7101D" offset="0%"/><stop stop-color="#CA0814" offset="100%"/></linearGradient><path d="M11 3.044c-.536 0-1.013.317-1.224.798l-.105.24.48.21.105-.24a.812.812 0 0 1 1.484-.005l.107.239.478-.214-.107-.24A1.336 1.336 0 0 0 11 3.045z" id="l"/><filter x="-50%" y="-50%" width="200%" height="200%" filterUnits="objectBoundingBox" id="k"><feOffset dy=".5" in="SourceAlpha" result="shadowOffsetOuter1"/><feColorMatrix values="0 0 0 0 0 0 0 0 0 0 0 0 0 0 0 0 0 0 0.06 0" in="shadowOffsetOuter1"/></filter><linearGradient x1="50%" y1="0%" x2="50%" y2="100%" id="n"><stop stop-color="#FFD248" offset="0%"/><stop stop-color="#FFCB2F" offset="100%"/></linearGradient><path d="M0 1.832l1.048.261.523-.523.524.523 1.048-.261-.433 1.08a.398.398 0 0 1-.348.228H.781a.401.401 0 0 1-.348-.228L0 1.832zm1.571-.785a.524.524 0 1 1 0-1.047.524.524 0 0 1 0 1.047z" id="m"/><rect id="q" width="22" height="15.7" rx="1.5"/><filter x="-50%" y="-50%" width="200%" height="200%" filterUnits="objectBoundingBox" id="p"><feOffset dy="-.5" in="SourceAlpha" result="shadowOffsetInner1"/><feComposite in="shadowOffsetInner1" in2="SourceAlpha" operator="arithmetic" k2="-1" k3="1" result="shadowInnerInner1"/><feColorMatrix values="0 0 0 0 0 0 0 0 0 0 0 0 0 0 0 0 0 0 0.04 0" in="shadowInnerInner1" result="shadowMatrixInner1"/><feOffset dy=".5" in="SourceAlpha" result="shadowOffsetInner2"/><feComposite in="shadowOffsetInner2" in2="SourceAlpha" operator="arithmetic" k2="-1" k3="1" result="shadowInnerInner2"/><feColorMatrix values="0 0 0 0 1 0 0 0 0 1 0 0 0 0 1 0 0 0 0.12 0" in="shadowInnerInner2" result="shadowMatrixInner2"/><feMerge><feMergeNode in="shadowMatrixInner1"/><feMergeNode in="shadowMatrixInner2"/></feMerge></filter></defs><g filter="url(#a)" transform="translate(1 1)" fill="none" fill-rule="evenodd"><mask id="d" fill="#fff"><use xlink:href="#b"/></mask><use fill="#000" filter="url(#c)" xlink:href="#b"/><use fill="#fff" xlink:href="#b"/><g mask="url(#d)"><use fill="url(#e)" xlink:href="#f"/><use fill="#000" filter="url(#g)" xlink:href="#f"/></g><g mask="url(#d)"><use fill="#000" filter="url(#h)" xlink:href="#i"/><use fill="#fff" xlink:href="#i"/></g><path d="M10.003 7.308a.666.666 0 0 1 .43-.665l.61-.203c.266-.088.48.058.48.337V7.85s.337-1.085.525-.523c.187.561-.143 1.634-.143 1.634-.066.253-.338.459-.616.459h-.578a.564.564 0 0 1-.547-.505l-.161-1.607z" fill="url(#j)" mask="url(#d)"/><g mask="url(#d)" fill-rule="nonzero"><use fill="#000" filter="url(#k)" xlink:href="#l"/><use fill="#fff" fill-rule="evenodd" xlink:href="#l"/></g><g mask="url(#d)"><g transform="translate(9.429 2.093)"><mask id="o" fill="#fff"><use xlink:href="#m"/></mask><use fill="url(#n)" xlink:href="#m"/><ellipse fill="#5169E2" mask="url(#o)" cx="1.571" cy="2.617" rx=".262" ry=".262"/><ellipse fill="#D34D43" mask="url(#o)" cx="2.619" cy="2.617" rx=".262" ry=".262"/><ellipse fill="#D34D43" mask="url(#o)" cx=".524" cy="2.617" rx=".262" ry=".262"/></g></g><g mask="url(#d)" fill="#000"><use filter="url(#p)" xlink:href="#q"/></g></g></svg>