<svg width="24" height="18" viewBox="0 0 24 18" xmlns="http://www.w3.org/2000/svg" xmlns:xlink="http://www.w3.org/1999/xlink"><title>GP</title><defs><filter x="-50%" y="-50%" width="200%" height="200%" filterUnits="objectBoundingBox" id="b"><feOffset dy=".5" in="SourceAlpha" result="shadowOffsetOuter1"/><feGaussianBlur stdDeviation=".5" in="shadowOffsetOuter1" result="shadowBlurOuter1"/><feColorMatrix values="0 0 0 0 0 0 0 0 0 0 0 0 0 0 0 0 0 0 0.16 0" in="shadowBlurOuter1" result="shadowMatrixOuter1"/><feMerge><feMergeNode in="shadowMatrixOuter1"/><feMergeNode in="SourceGraphic"/></feMerge></filter><rect id="c" width="21.994" height="15.415" rx="1.5"/><filter x="-50%" y="-50%" width="200%" height="200%" filterUnits="objectBoundingBox" id="d"><feOffset dy=".5" in="SourceAlpha" result="shadowOffsetOuter1"/><feGaussianBlur stdDeviation=".5" in="shadowOffsetOuter1" result="shadowBlurOuter1"/><feColorMatrix values="0 0 0 0 0 0 0 0 0 0 0 0 0 0 0 0 0 0 0.16 0" in="shadowBlurOuter1"/></filter><linearGradient x1="50%" y1="0%" x2="50%" y2="100%" id="f"><stop stop-color="#25A157" offset="0%"/><stop stop-color="#1C8245" offset="100%"/></linearGradient><linearGradient x1="50%" y1="0%" x2="50%" y2="100%" id="g"><stop stop-color="#30B9F4" offset="0%"/><stop stop-color="#1EA2DC" offset="100%"/></linearGradient><linearGradient x1="50%" y1="0%" x2="50%" y2="100%" id="h"><stop stop-color="#FFE149" offset="0%"/><stop stop-color="#FFDD32" offset="100%"/></linearGradient><rect id="i" width="21.994" height="15.415" rx="1.5"/><filter x="-50%" y="-50%" width="200%" height="200%" filterUnits="objectBoundingBox" id="j"><feOffset dy="-.5" in="SourceAlpha" result="shadowOffsetInner1"/><feComposite in="shadowOffsetInner1" in2="SourceAlpha" operator="arithmetic" k2="-1" k3="1" result="shadowInnerInner1"/><feColorMatrix values="0 0 0 0 0 0 0 0 0 0 0 0 0 0 0 0 0 0 0.04 0" in="shadowInnerInner1" result="shadowMatrixInner1"/><feOffset dy=".5" in="SourceAlpha" result="shadowOffsetInner2"/><feComposite in="shadowOffsetInner2" in2="SourceAlpha" operator="arithmetic" k2="-1" k3="1" result="shadowInnerInner2"/><feColorMatrix values="0 0 0 0 1 0 0 0 0 1 0 0 0 0 1 0 0 0 0.12 0" in="shadowInnerInner2" result="shadowMatrixInner2"/><feMerge><feMergeNode in="shadowMatrixInner1"/><feMergeNode in="shadowMatrixInner2"/></feMerge></filter><path d="M12.197 2.72c-.152.15-.31.35-.476.597-.133.197-.271.423-.413.673-.173.306-.51 1.12-.685 1.146-.294.043-.588.096-.866.162-.495.117-.886.258-1.16.45a3.129 3.129 0 0 0-.544.515c-.145.167-1.23 2.268-.978 2.407.252.139.571.05.713-.197a13.093 13.093 0 0 1 .674-1.046c.136-.19.267-.357.389-.498.139-.16.262-.279.356-.345.136-.095.421-.199.795-.287.244-.058 2.059-1.52 2.222-1.808.129-.227.253-.431.37-.604.132-.195.25-.345.345-.44.143-.14.427-.31.798-.482a9.504 9.504 0 0 1 1.083-.418.512.512 0 0 0 .342-.644c-.087-.271-2.716.574-2.965.82z" id="a"/><mask id="k" x="-.5" y="-.5" width="9.149" height="7.888"><path fill="#fff" d="M6.537 1.348h9.149v7.888H6.537z"/><use xlink:href="#a"/></mask></defs><g filter="url(#b)" transform="translate(1 1)" fill="none" fill-rule="evenodd"><mask id="e" fill="#fff"><use xlink:href="#c"/></mask><use fill="#000" filter="url(#d)" xlink:href="#c"/><use fill="#fff" xlink:href="#c"/><g mask="url(#e)"><g transform="translate(6.284 3.083)"><rect fill="url(#f)" x="2.095" width="5.237" height="5.138" rx=".25"/><path d="M2.095.248c0-.137.103-.248.25-.248h3.69c.137 0 .19.096.118.216l-1.4 2.315-2.467.365-.17 2.002c-.012.133-.021.133-.021-.007V.248z" fill="url(#g)"/><ellipse fill="url(#h)" cx="2.095" cy="2.055" rx="1.571" ry="1.542"/></g></g><rect fill="url(#h)" mask="url(#e)" x="8.379" y="11.305" width="5.237" height="1.028" rx=".25"/><path d="M8.526 9.198h.02c.042 0 .074.039.074.09v.253c0 .04.022.075.077.075h.062c.006 0 .012 0 .012-.003 0-.004-.005-.008-.01-.013l-.038-.04c-.006-.006-.01-.013-.01-.021v-.246a.145.145 0 0 0-.077-.131c.042-.026.089-.079.089-.21 0-.152-.065-.217-.19-.217h-.15a.007.007 0 0 0-.006.007c0 .004.006.008.008.011l.036.034c.008.008.01.019.01.033v.712c0 .014-.002.024-.01.033l-.036.034c-.002.003-.008.007-.008.01 0 .004.002.007.007.007h.188a.007.007 0 0 0 .007-.007c0-.003-.006-.007-.008-.01l-.036-.034c-.009-.009-.011-.02-.011-.033v-.334zm0-.404h.018c.058 0 .082.039.082.159 0 .14-.024.186-.082.186h-.018v-.345zm.407 0H9c.016 0 .026.007.031.022l.065.221c.001.005.005.008.01.008.003 0 .005-.002.005-.007v-.292c0-.006-.004-.01-.01-.01h-.31a.007.007 0 0 0-.006.006c0 .004.006.008.008.011l.036.034c.008.008.01.019.01.033v.712c0 .014-.002.024-.01.033l-.036.034c-.002.004-.008.007-.008.01 0 .004.002.007.007.007h.31c.006 0 .01-.004.01-.01V9.31c0-.004-.003-.007-.007-.007-.003 0-.007.002-.008.007l-.065.225c-.004.015-.016.022-.032.022h-.068V9.2h.026c.006 0 .011.002.013.008l.041.085c.002.005.004.009.008.009s.005-.003.005-.006v-.25c0-.004-.001-.006-.005-.006-.003 0-.004.002-.007.007l-.042.082c-.002.006-.007.008-.013.008h-.026v-.344zm.46.607c0 .112-.026.157-.063.157-.043 0-.057-.066-.057-.404 0-.248.014-.36.064-.36.053 0 .105.152.13.24.002.007.006.011.01.011s.006-.003.006-.008v-.282c0-.011-.002-.02-.008-.02s-.013.006-.024.016c-.012.01-.024.018-.03.018a.038.038 0 0 1-.018-.007.116.116 0 0 0-.075-.027c-.147 0-.153.273-.153.417 0 .197.006.464.155.464.027 0 .05-.014.076-.036.004-.004.008-.005.012-.005s.007.001.012.005l.035.032a.018.018 0 0 0 .012.004c.004 0 .006-.002.006-.006v-.368c0-.012.004-.02.012-.026l.035-.028c.004-.005.006-.007.006-.012s-.003-.007-.008-.007H9.35c-.006 0-.01.002-.01.007s.001.007.006.012l.034.028c.008.007.013.014.013.026v.16zm.213.13c0 .015-.003.025-.011.034l-.036.034c-.003.003-.009.007-.009.01 0 .004.003.007.008.007h.188a.007.007 0 0 0 .007-.007c0-.003-.006-.007-.009-.01l-.036-.034c-.008-.009-.01-.02-.01-.033V8.82c0-.014.002-.025.01-.033l.036-.034c.003-.003.009-.007.009-.01a.007.007 0 0 0-.007-.008h-.188a.007.007 0 0 0-.008.007c0 .004.006.008.009.011l.036.034c.008.008.01.019.01.033v.712zm.354-.796c-.144 0-.16.248-.16.417 0 .222.016.464.16.464.145 0 .16-.242.16-.464 0-.169-.015-.417-.16-.417zm0 .06c.036 0 .062.098.062.359 0 .305-.026.404-.062.404-.035 0-.061-.1-.061-.404 0-.261.026-.36.06-.36zm.257.737a.05.05 0 0 1-.01.033l-.03.034c-.003.003-.009.007-.009.011 0 .003.003.006.007.006h.158c.005 0 .007-.003.007-.006 0-.004-.004-.008-.008-.011l-.032-.036c-.009-.008-.012-.017-.012-.031v-.585h.002l.14.64c.004.018.013.03.024.03h.05c.009 0 .012-.005.012-.014V8.82a.05.05 0 0 1 .011-.033l.03-.034c.004-.003.008-.007.008-.012 0-.002-.002-.006-.007-.006H10.4c-.004 0-.007.004-.007.006 0 .005.006.009.009.012l.033.035c.008.008.01.018.01.032v.44h-.002l-.11-.505c-.002-.011-.006-.02-.014-.02h-.144c-.004 0-.007.004-.007.006 0 .005.006.009.008.012l.03.034a.05.05 0 0 1 .011.033v.712zm-1.6 1.044c0 .111-.026.156-.064.156-.043 0-.057-.066-.057-.404 0-.248.014-.36.065-.36.052 0 .104.152.129.24.002.007.006.012.01.012s.007-.004.007-.008V9.93c0-.012-.003-.02-.009-.02-.006 0-.013.006-.024.015-.012.01-.024.019-.03.019a.038.038 0 0 1-.018-.007.116.116 0 0 0-.075-.027c-.147 0-.153.272-.153.417 0 .196.006.464.155.464.027 0 .05-.014.076-.037.005-.003.008-.004.012-.004.005 0 .007 0 .012.004l.036.032a.018.018 0 0 0 .012.005c.003 0 .006-.003.006-.006v-.369c0-.012.003-.02.012-.026l.034-.028c.004-.005.006-.007.006-.012 0-.004-.003-.007-.008-.007h-.177c-.006 0-.01.003-.01.007 0 .005.001.007.006.012l.034.028c.008.007.013.014.013.026v.16zm.2.088c0 .073.049.127.143.127.082 0 .14-.054.14-.127v-.67c0-.014.003-.025.009-.032l.037-.034c.004-.004.006-.008.006-.011a.007.007 0 0 0-.007-.007H8.98a.007.007 0 0 0-.007.007c0 .003.002.007.006.01l.037.035c.007.007.01.018.01.032v.64c0 .051-.013.098-.057.098-.056 0-.061-.047-.061-.099v-.639c0-.014.004-.025.01-.032l.037-.034c.003-.004.006-.008.006-.011a.007.007 0 0 0-.008-.007h-.183a.007.007 0 0 0-.007.007c0 .003.002.007.006.01l.037.035c.007.007.01.018.01.032v.67zm.593.054c.002.01 0 .019-.006.023l-.032.032c-.003.004-.008.007-.008.01 0 .004.002.008.008.008h.172c.006 0 .009-.004.009-.007 0-.004-.004-.007-.007-.01l-.035-.031c-.008-.007-.012-.02-.013-.032l-.114-.788c-.001-.007-.005-.013-.01-.013h-.045c-.006 0-.008.005-.01.01l-.108.79c-.002.01-.003.022-.01.03l-.034.032c-.003.004-.008.008-.008.012 0 .003.002.007.007.007h.138c.006 0 .008-.004.008-.007 0-.004-.007-.008-.012-.014l-.026-.027a.026.026 0 0 1-.006-.021l.018-.13c.001-.004.004-.008.007-.008h.089c.006 0 .01.005.01.01l.018.124zm-.11-.196c-.002 0-.004-.003-.003-.007l.04-.29h.002l.042.289c0 .004-.002.008-.005.008H9.3zm.325.184c0 .014-.003.025-.011.033l-.036.034c-.002.005-.008.007-.008.01 0 .004.002.008.007.008h.158c.12 0 .193-.08.193-.463 0-.304-.072-.418-.193-.418h-.158a.007.007 0 0 0-.007.007c0 .003.006.007.008.01l.036.035c.008.008.01.018.01.032v.712zm.092-.737h.021c.047 0 .091.044.091.359 0 .36-.044.404-.09.404h-.022V9.97zm.406 0h.068c.015 0 .026.007.031.022l.065.22c0 .005.004.009.01.009.003 0 .005-.002.005-.007V9.92c0-.005-.005-.01-.01-.01h-.31a.007.007 0 0 0-.007.007c0 .003.006.007.009.01l.036.035c.008.008.01.018.01.032v.712c0 .014-.002.025-.01.033l-.036.034c-.003.005-.009.007-.009.01 0 .004.003.008.008.008h.31c.006 0 .01-.005.01-.01v-.296c0-.003-.003-.007-.007-.007-.003 0-.007.003-.008.007l-.065.226c-.005.014-.017.021-.032.021h-.068v-.357h.026c.006 0 .01.002.013.008l.04.086c.003.005.004.008.01.008.003 0 .004-.002.004-.006v-.249c0-.004-.001-.007-.005-.007-.003 0-.005.003-.007.007l-.042.083c-.002.005-.007.008-.013.008h-.026v-.344zm.277.737c0 .014-.002.025-.01.033l-.036.034c-.003.005-.009.007-.009.01 0 .004.003.008.007.008h.294c.01 0 .013-.006.013-.017v-.287c0-.005-.003-.009-.006-.009-.005 0-.005.004-.007.009l-.075.227c-.004.015-.016.018-.03.018h-.049v-.738c0-.014.003-.024.011-.032l.036-.034c.003-.004.009-.008.009-.011a.007.007 0 0 0-.008-.007h-.188a.007.007 0 0 0-.007.007c0 .003.006.007.009.01l.036.035c.008.008.01.018.01.032v.712zm.48-.796c-.143 0-.159.248-.159.417 0 .222.016.464.16.464.144 0 .16-.242.16-.464 0-.17-.016-.417-.16-.417zm0 .059c.036 0 .063.098.063.359 0 .305-.027.404-.063.404-.034 0-.06-.099-.06-.404 0-.26.026-.36.06-.36zm.252.695c0 .073.049.127.143.127.082 0 .14-.054.14-.127v-.67c0-.014.003-.025.009-.032l.037-.034c.003-.004.006-.008.006-.011a.007.007 0 0 0-.007-.007h-.164a.007.007 0 0 0-.008.007c0 .003.003.007.006.01l.038.035c.007.007.01.018.01.032v.64c0 .051-.013.098-.057.098-.056 0-.061-.047-.061-.099v-.639c0-.014.003-.025.01-.032l.037-.034c.003-.004.005-.008.005-.011a.007.007 0 0 0-.007-.007h-.183a.007.007 0 0 0-.007.007c0 .003.002.007.006.01l.037.035c.007.007.01.018.01.032v.67zm.409.042c0 .014-.002.025-.01.033l-.037.034c-.002.005-.008.007-.008.01 0 .004.002.008.007.008h.196a.007.007 0 0 0 .008-.007c0-.004-.005-.007-.009-.01l-.044-.035c-.01-.007-.01-.019-.01-.033v-.325h.04c.108 0 .158-.092.158-.243 0-.18-.065-.228-.158-.228h-.18a.007.007 0 0 0-.008.007c0 .003.006.007.008.01l.036.035c.009.008.011.018.011.032v.712zm.092-.737h.035c.05 0 .066.038.066.169 0 .13-.016.184-.066.184h-.035V9.97zm.39 0h.067c.016 0 .027.007.032.022l.064.22c.001.005.005.009.01.009.003 0 .006-.002.006-.007V9.92c0-.005-.005-.01-.01-.01h-.31a.007.007 0 0 0-.007.007c0 .003.006.007.008.01l.036.035c.009.008.011.018.011.032v.712c0 .014-.002.025-.01.033l-.037.034c-.002.005-.008.007-.008.01 0 .004.002.008.007.008h.31c.006 0 .01-.005.01-.01v-.296c0-.003-.003-.007-.006-.007-.004 0-.007.003-.009.007l-.064.226c-.005.014-.017.021-.033.021h-.068v-.357h.027c.006 0 .01.002.013.008l.04.086c.003.005.004.008.009.008.003 0 .005-.002.005-.006v-.249c0-.004-.002-.007-.005-.007-.004 0-.005.003-.007.007l-.042.083c-.003.005-.007.008-.013.008h-.027v-.344z" fill="#000" mask="url(#e)"/><g fill="#000"><use filter="url(#j)" xlink:href="#i"/></g><g fill-rule="nonzero"><use fill="#29568D" fill-rule="evenodd" xlink:href="#a"/><use stroke="#FFF" mask="url(#k)" xlink:href="#a"/></g></g></svg>