<svg width="24" height="18" viewBox="0 0 24 18" xmlns="http://www.w3.org/2000/svg" xmlns:xlink="http://www.w3.org/1999/xlink"><title>HK</title><defs><filter x="-50%" y="-50%" width="200%" height="200%" filterUnits="objectBoundingBox" id="a"><feOffset dy=".5" in="SourceAlpha" result="shadowOffsetOuter1"/><feGaussianBlur stdDeviation=".5" in="shadowOffsetOuter1" result="shadowBlurOuter1"/><feColorMatrix values="0 0 0 0 0 0 0 0 0 0 0 0 0 0 0 0 0 0 0.16 0" in="shadowBlurOuter1" result="shadowMatrixOuter1"/><feMerge><feMergeNode in="shadowMatrixOuter1"/><feMergeNode in="SourceGraphic"/></feMerge></filter><rect id="b" width="22" height="15.7" rx="1.5"/><filter x="-50%" y="-50%" width="200%" height="200%" filterUnits="objectBoundingBox" id="c"><feOffset dy=".5" in="SourceAlpha" result="shadowOffsetOuter1"/><feGaussianBlur stdDeviation=".5" in="shadowOffsetOuter1" result="shadowBlurOuter1"/><feColorMatrix values="0 0 0 0 0 0 0 0 0 0 0 0 0 0 0 0 0 0 0.16 0" in="shadowBlurOuter1"/></filter><linearGradient x1="50%" y1="0%" x2="50%" y2="100%" id="g"><stop stop-color="#F1371C" offset="0%"/><stop stop-color="#DE290F" offset="100%"/></linearGradient><path id="f" d="M0 0h22v15.7H0z"/><filter x="-50%" y="-50%" width="200%" height="200%" filterUnits="objectBoundingBox" id="e"><feMorphology radius=".25" operator="dilate" in="SourceAlpha" result="shadowSpreadOuter1"/><feOffset in="shadowSpreadOuter1" result="shadowOffsetOuter1"/><feColorMatrix values="0 0 0 0 0 0 0 0 0 0 0 0 0 0 0 0 0 0 0.06 0" in="shadowOffsetOuter1"/></filter><path d="M12.571 7.526c-.836-.523-1.047.427-1.047 0 0-.867.938-1.57 2.095-1.57 1.157 0 2.095.703 2.095 1.57-.994 0-1.093.523-1.571.523-.587 0-.736 0-1.572-.523zm1.31-.2a.262.262 0 1 0 0-.523.262.262 0 0 0 0 .524zM11.984 9.38c.24-.957-.73-.864-.324-.997.825-.267 1.784.407 2.141 1.508.358 1.1-.02 2.21-.846 2.478-.307-.946-.835-.878-.983-1.333-.181-.558-.227-.7.012-1.656zm.594 1.183a.262.262 0 1 0 .498-.161.262.262 0 0 0-.498.161zm-2.541-1.168c.984-.068.596-.962.847-.616.51.702.164 1.822-.772 2.502-.936.68-2.108.663-2.618-.039.804-.584.577-1.066.964-1.347.474-.345.595-.432 1.579-.5zm-.942.93a.262.262 0 1 0 .307.424.262.262 0 0 0-.307-.423zM9.42 7.55c.368.915 1.098.27.847.616-.51.702-1.682.719-2.618.039-.936-.68-1.282-1.8-.772-2.502.804.584 1.192.22 1.579.5.474.345.595.433.964 1.347zm-1.177-.608a.262.262 0 1 0-.308.423.262.262 0 0 0 .308-.423zm2.743-.547c-.756.634.083 1.129-.324.997-.824-.268-1.203-1.378-.845-2.478.357-1.1 1.316-1.776 2.14-1.508-.307.946.16 1.202.012 1.656-.181.558-.227.7-.983 1.333zm.215-1.306a.262.262 0 1 0-.498-.163.262.262 0 0 0 .498.163z" id="i"/><filter x="-50%" y="-50%" width="200%" height="200%" filterUnits="objectBoundingBox" id="h"><feOffset dy=".5" in="SourceAlpha" result="shadowOffsetOuter1"/><feColorMatrix values="0 0 0 0 0 0 0 0 0 0 0 0 0 0 0 0 0 0 0.06 0" in="shadowOffsetOuter1"/></filter><rect id="k" width="22" height="15.7" rx="1.5"/><filter x="-50%" y="-50%" width="200%" height="200%" filterUnits="objectBoundingBox" id="j"><feOffset dy="-.5" in="SourceAlpha" result="shadowOffsetInner1"/><feComposite in="shadowOffsetInner1" in2="SourceAlpha" operator="arithmetic" k2="-1" k3="1" result="shadowInnerInner1"/><feColorMatrix values="0 0 0 0 0 0 0 0 0 0 0 0 0 0 0 0 0 0 0.04 0" in="shadowInnerInner1" result="shadowMatrixInner1"/><feOffset dy=".5" in="SourceAlpha" result="shadowOffsetInner2"/><feComposite in="shadowOffsetInner2" in2="SourceAlpha" operator="arithmetic" k2="-1" k3="1" result="shadowInnerInner2"/><feColorMatrix values="0 0 0 0 1 0 0 0 0 1 0 0 0 0 1 0 0 0 0.12 0" in="shadowInnerInner2" result="shadowMatrixInner2"/><feMerge><feMergeNode in="shadowMatrixInner1"/><feMergeNode in="shadowMatrixInner2"/></feMerge></filter></defs><g filter="url(#a)" transform="translate(1 1)" fill="none" fill-rule="evenodd"><mask id="d" fill="#fff"><use xlink:href="#b"/></mask><use fill="#000" filter="url(#c)" xlink:href="#b"/><g mask="url(#d)"><use fill="#000" filter="url(#e)" xlink:href="#f"/><use fill="url(#g)" xlink:href="#f"/></g><g mask="url(#d)"><use fill="#000" filter="url(#h)" xlink:href="#i"/><use fill="#fff" xlink:href="#i"/></g><g mask="url(#d)" fill="#000"><use filter="url(#j)" xlink:href="#k"/></g></g></svg>