<svg width="24" height="18" viewBox="0 0 24 18" xmlns="http://www.w3.org/2000/svg" xmlns:xlink="http://www.w3.org/1999/xlink"><title>IR</title><defs><filter x="-50%" y="-50%" width="200%" height="200%" filterUnits="objectBoundingBox" id="b"><feOffset dy=".5" in="SourceAlpha" result="shadowOffsetOuter1"/><feGaussianBlur stdDeviation=".5" in="shadowOffsetOuter1" result="shadowBlurOuter1"/><feColorMatrix values="0 0 0 0 0 0 0 0 0 0 0 0 0 0 0 0 0 0 0.16 0" in="shadowBlurOuter1" result="shadowMatrixOuter1"/><feMerge><feMergeNode in="shadowMatrixOuter1"/><feMergeNode in="SourceGraphic"/></feMerge></filter><rect id="c" width="22" height="15.7" rx="1.5"/><filter x="-50%" y="-50%" width="200%" height="200%" filterUnits="objectBoundingBox" id="d"><feOffset dy=".5" in="SourceAlpha" result="shadowOffsetOuter1"/><feGaussianBlur stdDeviation=".5" in="shadowOffsetOuter1" result="shadowBlurOuter1"/><feColorMatrix values="0 0 0 0 0 0 0 0 0 0 0 0 0 0 0 0 0 0 0.16 0" in="shadowBlurOuter1"/></filter><linearGradient x1="50%" y1="0%" x2="50%" y2="100%" id="h"><stop stop-color="#38BC56" offset="0%"/><stop stop-color="#2B9F45" offset="100%"/></linearGradient><path id="g" d="M0 0h22v5.233H0z"/><filter x="-50%" y="-50%" width="200%" height="200%" filterUnits="objectBoundingBox" id="f"><feMorphology radius=".25" operator="dilate" in="SourceAlpha" result="shadowSpreadOuter1"/><feOffset in="shadowSpreadOuter1" result="shadowOffsetOuter1"/><feColorMatrix values="0 0 0 0 0 0 0 0 0 0 0 0 0 0 0 0 0 0 0.06 0" in="shadowOffsetOuter1"/></filter><linearGradient x1="50%" y1="0%" x2="50%" y2="100%" id="k"><stop stop-color="#DF1B26" offset="0%"/><stop stop-color="#D80915" offset="100%"/></linearGradient><path id="j" d="M0 10.467h22V15.7H0z"/><filter x="-50%" y="-50%" width="200%" height="200%" filterUnits="objectBoundingBox" id="i"><feMorphology radius=".25" operator="dilate" in="SourceAlpha" result="shadowSpreadOuter1"/><feOffset in="shadowSpreadOuter1" result="shadowOffsetOuter1"/><feColorMatrix values="0 0 0 0 0 0 0 0 0 0 0 0 0 0 0 0 0 0 0.06 0" in="shadowOffsetOuter1"/></filter><path id="m" d="M0 5.233h22v5.233H0z"/><filter x="-50%" y="-50%" width="200%" height="200%" filterUnits="objectBoundingBox" id="l"><feMorphology radius=".25" operator="dilate" in="SourceAlpha" result="shadowSpreadOuter1"/><feOffset in="shadowSpreadOuter1" result="shadowOffsetOuter1"/><feColorMatrix values="0 0 0 0 0 0 0 0 0 0 0 0 0 0 0 0 0 0 0.06 0" in="shadowOffsetOuter1"/></filter><path d="M9.942 6.69A1.57 1.57 0 0 0 11 9.42a1.57 1.57 0 0 0 1.076-2.715" id="a"/><mask id="n" x="0" y="0" width="3.143" height="2.731" fill="#fff"><use xlink:href="#a"/></mask><rect id="p" width="22" height="15.7" rx="1.5"/><filter x="-50%" y="-50%" width="200%" height="200%" filterUnits="objectBoundingBox" id="o"><feOffset dy="-.5" in="SourceAlpha" result="shadowOffsetInner1"/><feComposite in="shadowOffsetInner1" in2="SourceAlpha" operator="arithmetic" k2="-1" k3="1" result="shadowInnerInner1"/><feColorMatrix values="0 0 0 0 0 0 0 0 0 0 0 0 0 0 0 0 0 0 0.04 0" in="shadowInnerInner1" result="shadowMatrixInner1"/><feOffset dy=".5" in="SourceAlpha" result="shadowOffsetInner2"/><feComposite in="shadowOffsetInner2" in2="SourceAlpha" operator="arithmetic" k2="-1" k3="1" result="shadowInnerInner2"/><feColorMatrix values="0 0 0 0 1 0 0 0 0 1 0 0 0 0 1 0 0 0 0.12 0" in="shadowInnerInner2" result="shadowMatrixInner2"/><feMerge><feMergeNode in="shadowMatrixInner1"/><feMergeNode in="shadowMatrixInner2"/></feMerge></filter></defs><g filter="url(#b)" transform="translate(1 1)" fill="none" fill-rule="evenodd"><mask id="e" fill="#fff"><use xlink:href="#c"/></mask><use fill="#000" filter="url(#d)" xlink:href="#c"/><g mask="url(#e)"><use fill="#000" filter="url(#f)" xlink:href="#g"/><use fill="url(#h)" xlink:href="#g"/></g><g mask="url(#e)"><use fill="#000" filter="url(#i)" xlink:href="#j"/><use fill="url(#k)" xlink:href="#j"/></g><g mask="url(#e)"><use fill="#000" filter="url(#l)" xlink:href="#m"/><use fill="#fff" xlink:href="#m"/></g><path d="M1.048 4.43c0-.135.112-.243.243-.243h.561c.134 0 .243.112.243.242v.562a.245.245 0 0 1-.243.242h-.561a.245.245 0 0 1-.243-.242v-.562zm2.095 0c0-.135.112-.243.243-.243h.561c.135 0 .243.112.243.242v.562a.245.245 0 0 1-.243.242h-.561a.245.245 0 0 1-.243-.242v-.562zm2.095 0c0-.135.112-.243.243-.243h.562c.134 0 .243.112.243.242v.562a.245.245 0 0 1-.243.242H5.48a.245.245 0 0 1-.243-.242v-.562zm2.095 0c0-.135.112-.243.243-.243h.562c.134 0 .243.112.243.242v.562a.245.245 0 0 1-.243.242h-.562a.245.245 0 0 1-.243-.242v-.562zm2.096 0c0-.135.112-.243.243-.243h.561c.134 0 .243.112.243.242v.562a.245.245 0 0 1-.243.242h-.561a.245.245 0 0 1-.243-.242v-.562zm2.095 0c0-.135.112-.243.243-.243h.561c.135 0 .243.112.243.242v.562a.245.245 0 0 1-.243.242h-.561a.245.245 0 0 1-.243-.242v-.562zm2.095 0c0-.135.112-.243.243-.243h.562c.134 0 .243.112.243.242v.562a.245.245 0 0 1-.243.242h-.562a.245.245 0 0 1-.243-.242v-.562zm2.095 0c0-.135.112-.243.243-.243h.562c.134 0 .243.112.243.242v.562a.245.245 0 0 1-.243.242h-.562a.245.245 0 0 1-.243-.242v-.562zm2.096 0c0-.135.112-.243.243-.243h.561c.134 0 .243.112.243.242v.562a.245.245 0 0 1-.243.242h-.561a.245.245 0 0 1-.243-.242v-.562zm2.095 0c0-.135.112-.243.243-.243h.561c.135 0 .243.112.243.242v.562a.245.245 0 0 1-.243.242h-.561a.245.245 0 0 1-.243-.242v-.562zM1.048 10.71c0-.135.112-.243.243-.243h.561c.134 0 .243.112.243.242v.562a.245.245 0 0 1-.243.242h-.561a.245.245 0 0 1-.243-.242v-.562zm2.095 0c0-.135.112-.243.243-.243h.561c.135 0 .243.112.243.242v.562a.245.245 0 0 1-.243.242h-.561a.245.245 0 0 1-.243-.242v-.562zm2.095 0c0-.135.112-.243.243-.243h.562c.134 0 .243.112.243.242v.562a.245.245 0 0 1-.243.242H5.48a.245.245 0 0 1-.243-.242v-.562zm2.095 0c0-.135.112-.243.243-.243h.562c.134 0 .243.112.243.242v.562a.245.245 0 0 1-.243.242h-.562a.245.245 0 0 1-.243-.242v-.562zm2.096 0c0-.135.112-.243.243-.243h.561c.134 0 .243.112.243.242v.562a.245.245 0 0 1-.243.242h-.561a.245.245 0 0 1-.243-.242v-.562zm2.095 0c0-.135.112-.243.243-.243h.561c.135 0 .243.112.243.242v.562a.245.245 0 0 1-.243.242h-.561a.245.245 0 0 1-.243-.242v-.562zm2.095 0c0-.135.112-.243.243-.243h.562c.134 0 .243.112.243.242v.562a.245.245 0 0 1-.243.242h-.562a.245.245 0 0 1-.243-.242v-.562zm2.095 0c0-.135.112-.243.243-.243h.562c.134 0 .243.112.243.242v.562a.245.245 0 0 1-.243.242h-.562a.245.245 0 0 1-.243-.242v-.562zm2.096 0c0-.135.112-.243.243-.243h.561c.134 0 .243.112.243.242v.562a.245.245 0 0 1-.243.242h-.561a.245.245 0 0 1-.243-.242v-.562zm2.095 0c0-.135.112-.243.243-.243h.561c.135 0 .243.112.243.242v.562a.245.245 0 0 1-.243.242h-.561a.245.245 0 0 1-.243-.242v-.562z" fill-opacity=".5" fill="#FFF" mask="url(#e)"/><g mask="url(#e)" stroke="#D80915"><use mask="url(#n)" xlink:href="#a"/></g><rect fill="#D80915" mask="url(#e)" x="10.476" y="7.327" width="1.048" height="2.093" rx=".5"/><g mask="url(#e)" fill="#000"><use filter="url(#o)" xlink:href="#p"/></g></g></svg>