<svg width="24" height="18" viewBox="0 0 24 18" xmlns="http://www.w3.org/2000/svg" xmlns:xlink="http://www.w3.org/1999/xlink"><title>KI</title><defs><filter x="-50%" y="-50%" width="200%" height="200%" filterUnits="objectBoundingBox" id="a"><feOffset dy=".5" in="SourceAlpha" result="shadowOffsetOuter1"/><feGaussianBlur stdDeviation=".5" in="shadowOffsetOuter1" result="shadowBlurOuter1"/><feColorMatrix values="0 0 0 0 0 0 0 0 0 0 0 0 0 0 0 0 0 0 0.16 0" in="shadowBlurOuter1" result="shadowMatrixOuter1"/><feMerge><feMergeNode in="shadowMatrixOuter1"/><feMergeNode in="SourceGraphic"/></feMerge></filter><rect id="b" width="22" height="15.7" rx="1.5"/><filter x="-50%" y="-50%" width="200%" height="200%" filterUnits="objectBoundingBox" id="c"><feOffset dy=".5" in="SourceAlpha" result="shadowOffsetOuter1"/><feGaussianBlur stdDeviation=".5" in="shadowOffsetOuter1" result="shadowBlurOuter1"/><feColorMatrix values="0 0 0 0 0 0 0 0 0 0 0 0 0 0 0 0 0 0 0.16 0" in="shadowBlurOuter1"/></filter><linearGradient x1="50%" y1="0%" x2="50%" y2="100%" id="g"><stop stop-color="#E72B3E" offset="0%"/><stop stop-color="#CA1A2C" offset="100%"/></linearGradient><path id="f" d="M0 0h22v8.373H0z"/><filter x="-50%" y="-50%" width="200%" height="200%" filterUnits="objectBoundingBox" id="e"><feMorphology radius=".25" operator="dilate" in="SourceAlpha" result="shadowSpreadOuter1"/><feOffset in="shadowSpreadOuter1" result="shadowOffsetOuter1"/><feColorMatrix values="0 0 0 0 0 0 0 0 0 0 0 0 0 0 0 0 0 0 0.08 0" in="shadowOffsetOuter1"/></filter><linearGradient x1="50%" y1="0%" x2="50%" y2="100%" id="j"><stop stop-color="#FFDA57" offset="0%"/><stop stop-color="#FCD036" offset="100%"/></linearGradient><ellipse id="i" cx="5.762" cy="7.85" rx="2.619" ry="2.617"/><filter x="-50%" y="-50%" width="200%" height="200%" filterUnits="objectBoundingBox" id="h"><feOffset dy=".5" in="SourceAlpha" result="shadowOffsetOuter1"/><feColorMatrix values="0 0 0 0 0 0 0 0 0 0 0 0 0 0 0 0 0 0 0.08 0" in="shadowOffsetOuter1"/></filter><path d="M5.762 11.55L4.48 13.462l-.325-2.278-1.986 1.167.697-2.194-2.295.19 1.58-1.674L0 7.85l2.151-.823-1.58-1.675 2.295.191-.697-2.194 1.986 1.167.325-2.278L5.762 4.15l1.282-1.912.325 2.278L9.354 3.35l-.697 2.194 2.296-.19-1.58 1.674 2.15.823-2.15.823 1.58 1.675-2.296-.191.697 2.194-1.985-1.167-.325 2.278-1.282-1.912zm0-.037A3.665 3.665 0 0 0 9.429 7.85a3.665 3.665 0 0 0-3.667-3.663A3.665 3.665 0 0 0 2.095 7.85a3.665 3.665 0 0 0 3.667 3.663z" id="l"/><filter x="-50%" y="-50%" width="200%" height="200%" filterUnits="objectBoundingBox" id="k"><feOffset dy=".5" in="SourceAlpha" result="shadowOffsetOuter1"/><feColorMatrix values="0 0 0 0 0 0 0 0 0 0 0 0 0 0 0 0 0 0 0.08 0" in="shadowOffsetOuter1"/></filter><path d="M4.044 1.468l-.05-.245 1.03-.17S3.641.725 3.186.562C2.532.328 2.623.147 2.623.147s1.87.367 2.792.367c.197 0 .588.49.588.49s.68-.687 1.004-.71A79.822 79.822 0 0 0 10.068 0s-.46.308-.734.391C8.588.618 7.007.93 7.007.93l-.22.342h1.567l-.661.196.343.318s-.36-.186-.833-.098c-.325.06-.704.278-1.053.367-.857.22-1.372-.587-1.372-.587h-.734z" id="n"/><filter x="-50%" y="-50%" width="200%" height="200%" filterUnits="objectBoundingBox" id="m"><feOffset dy=".5" in="SourceAlpha" result="shadowOffsetOuter1"/><feColorMatrix values="0 0 0 0 0 0 0 0 0 0 0 0 0 0 0 0 0 0 0.08 0" in="shadowOffsetOuter1"/></filter><linearGradient x1="50%" y1="0%" x2="50%" y2="100%" id="q"><stop stop-color="#0652A2" offset="0%"/><stop stop-color="#034285" offset="100%"/></linearGradient><path id="p" d="M0 8.373h22V15.7H0z"/><filter x="-50%" y="-50%" width="200%" height="200%" filterUnits="objectBoundingBox" id="o"><feMorphology radius=".25" operator="dilate" in="SourceAlpha" result="shadowSpreadOuter1"/><feOffset in="shadowSpreadOuter1" result="shadowOffsetOuter1"/><feColorMatrix values="0 0 0 0 0 0 0 0 0 0 0 0 0 0 0 0 0 0 0.06 0" in="shadowOffsetOuter1"/></filter><path d="M24.432 13.537l.497.165-.331.993-.497-.165-.491-.164-2.16-.72a1.34 1.34 0 0 0-.652 0l-2.16.72a2.345 2.345 0 0 1-1.314 0l-2.16-.72a1.34 1.34 0 0 0-.651 0l-2.161.72a2.345 2.345 0 0 1-1.313 0l-2.161-.72a1.34 1.34 0 0 0-.651 0l-2.16.72a2.345 2.345 0 0 1-1.314 0l-2.16-.72a1.34 1.34 0 0 0-.652 0l-2.16.72-.497.166-.332-.993.497-.166 2.161-.72a2.345 2.345 0 0 1 1.313 0l2.161.72c.16.054.49.054.651 0l2.16-.72a2.345 2.345 0 0 1 1.314 0l2.16.72c.16.054.49.054.652 0l2.16-.72a2.345 2.345 0 0 1 1.314 0l2.16.72c.16.054.49.054.651 0l2.161-.72a2.345 2.345 0 0 1 1.314 0l2.16.72.491.164zm0-2.617l.497.166-.331.993-.497-.166-.491-.163-2.16-.72a1.34 1.34 0 0 0-.652 0l-2.16.72a2.345 2.345 0 0 1-1.314 0l-2.16-.72a1.34 1.34 0 0 0-.651 0l-2.161.72a2.345 2.345 0 0 1-1.313 0l-2.161-.72a1.34 1.34 0 0 0-.651 0l-2.16.72a2.345 2.345 0 0 1-1.314 0l-2.16-.72a1.34 1.34 0 0 0-.652 0l-2.16.72-.497.165-.332-.993.497-.165 2.161-.72a2.345 2.345 0 0 1 1.313 0l2.161.72c.16.053.49.053.651 0l2.16-.72a2.345 2.345 0 0 1 1.314 0l2.16.72c.16.053.49.053.652 0l2.16-.72a2.345 2.345 0 0 1 1.314 0l2.16.72c.16.053.49.053.651 0l2.161-.72a2.345 2.345 0 0 1 1.314 0l2.16.72.491.163zm0-2.616l.497.165-.331.993-.497-.165-.491-.164-2.16-.72a1.34 1.34 0 0 0-.652 0l-2.16.72a2.345 2.345 0 0 1-1.314 0l-2.16-.72a1.34 1.34 0 0 0-.651 0l-2.161.72a2.345 2.345 0 0 1-1.313 0l-2.161-.72a1.34 1.34 0 0 0-.651 0l-2.16.72a2.345 2.345 0 0 1-1.314 0l-2.16-.72a1.34 1.34 0 0 0-.652 0l-2.16.72-.497.166-.332-.993.497-.166 2.161-.72a2.345 2.345 0 0 1 1.313 0l2.161.72c.16.053.49.054.651 0l2.16-.72a2.345 2.345 0 0 1 1.314 0l2.16.72c.16.053.49.054.652 0l2.16-.72a2.345 2.345 0 0 1 1.314 0l2.16.72c.16.053.49.054.651 0l2.161-.72a2.345 2.345 0 0 1 1.314 0l2.16.72.491.164z" id="s"/><filter x="-50%" y="-50%" width="200%" height="200%" filterUnits="objectBoundingBox" id="r"><feOffset dy=".5" in="SourceAlpha" result="shadowOffsetOuter1"/><feColorMatrix values="0 0 0 0 0 0 0 0 0 0 0 0 0 0 0 0 0 0 0.24 0" in="shadowOffsetOuter1"/></filter><rect id="u" width="22" height="15.7" rx="1.5"/><filter x="-50%" y="-50%" width="200%" height="200%" filterUnits="objectBoundingBox" id="t"><feOffset dy="-.5" in="SourceAlpha" result="shadowOffsetInner1"/><feComposite in="shadowOffsetInner1" in2="SourceAlpha" operator="arithmetic" k2="-1" k3="1" result="shadowInnerInner1"/><feColorMatrix values="0 0 0 0 0 0 0 0 0 0 0 0 0 0 0 0 0 0 0.04 0" in="shadowInnerInner1" result="shadowMatrixInner1"/><feOffset dy=".5" in="SourceAlpha" result="shadowOffsetInner2"/><feComposite in="shadowOffsetInner2" in2="SourceAlpha" operator="arithmetic" k2="-1" k3="1" result="shadowInnerInner2"/><feColorMatrix values="0 0 0 0 1 0 0 0 0 1 0 0 0 0 1 0 0 0 0.12 0" in="shadowInnerInner2" result="shadowMatrixInner2"/><feMerge><feMergeNode in="shadowMatrixInner1"/><feMergeNode in="shadowMatrixInner2"/></feMerge></filter></defs><g filter="url(#a)" transform="translate(1 1)" fill="none" fill-rule="evenodd"><mask id="d" fill="#fff"><use xlink:href="#b"/></mask><use fill="#000" filter="url(#c)" xlink:href="#b"/><g mask="url(#d)"><use fill="#000" filter="url(#e)" xlink:href="#f"/><use fill="url(#g)" xlink:href="#f"/></g><g mask="url(#d)"><g transform="translate(5.238 1.047)"><use fill="#000" filter="url(#h)" xlink:href="#i"/><use fill="url(#j)" xlink:href="#i"/></g><g transform="translate(5.238 1.047)"><use fill="#000" filter="url(#k)" xlink:href="#l"/><use fill="url(#j)" xlink:href="#l"/></g><g transform="translate(5.238 1.047)"><use fill="#000" filter="url(#m)" xlink:href="#n"/><use fill="url(#j)" xlink:href="#n"/></g></g><g mask="url(#d)"><use fill="#000" filter="url(#o)" xlink:href="#p"/><use fill="url(#q)" xlink:href="#p"/></g><g mask="url(#d)" fill-rule="nonzero"><use fill="#000" filter="url(#r)" xlink:href="#s"/><use fill="#FFF" fill-rule="evenodd" xlink:href="#s"/></g><g mask="url(#d)" fill="#000"><use filter="url(#t)" xlink:href="#u"/></g></g></svg>