<svg width="24" height="18" viewBox="0 0 24 18" xmlns="http://www.w3.org/2000/svg" xmlns:xlink="http://www.w3.org/1999/xlink"><title>MK</title><defs><filter x="-50%" y="-50%" width="200%" height="200%" filterUnits="objectBoundingBox" id="a"><feOffset dy=".5" in="SourceAlpha" result="shadowOffsetOuter1"/><feGaussianBlur stdDeviation=".5" in="shadowOffsetOuter1" result="shadowBlurOuter1"/><feColorMatrix values="0 0 0 0 0 0 0 0 0 0 0 0 0 0 0 0 0 0 0.16 0" in="shadowBlurOuter1" result="shadowMatrixOuter1"/><feMerge><feMergeNode in="shadowMatrixOuter1"/><feMergeNode in="SourceGraphic"/></feMerge></filter><rect id="b" width="22" height="15.7" rx="1.5"/><filter x="-50%" y="-50%" width="200%" height="200%" filterUnits="objectBoundingBox" id="c"><feOffset dy=".5" in="SourceAlpha" result="shadowOffsetOuter1"/><feGaussianBlur stdDeviation=".5" in="shadowOffsetOuter1" result="shadowBlurOuter1"/><feColorMatrix values="0 0 0 0 0 0 0 0 0 0 0 0 0 0 0 0 0 0 0.16 0" in="shadowBlurOuter1"/></filter><linearGradient x1="50%" y1="0%" x2="50%" y2="100%" id="d"><stop stop-color="#E81A26" offset="0%"/><stop stop-color="#D00914" offset="100%"/></linearGradient><linearGradient x1="50%" y1="0%" x2="50%" y2="100%" id="h"><stop stop-color="#FFEA4E" offset="0%"/><stop stop-color="#FFE633" offset="100%"/></linearGradient><ellipse id="g" cx="11" cy="7.85" rx="2.619" ry="2.617"/><filter x="-50%" y="-50%" width="200%" height="200%" filterUnits="objectBoundingBox" id="f"><feOffset dy=".5" in="SourceAlpha" result="shadowOffsetOuter1"/><feColorMatrix values="0 0 0 0 0 0 0 0 0 0 0 0 0 0 0 0 0 0 0.06 0" in="shadowOffsetOuter1"/></filter><path d="M8.022 5.713L-.561-.447 1.54-2.78l7.024 7.892c-.202.18-.384.381-.542.6zm.542 4.875L1.54 18.48l-2.1-2.333 8.582-6.16c.158.22.34.421.542.6zM7.37 7.332L0 6.28v3.14l7.37-1.052a3.691 3.691 0 0 1 0-1.036zm4.35-3.075L12.57 0H9.43l.852 4.257a3.688 3.688 0 0 1 1.438 0zm1.716 6.33l7.024 7.893 2.1-2.333-8.582-6.16c-.158.22-.34.421-.542.6zm.542-4.874l8.583-6.16L20.46-2.78l-7.024 7.892c.202.18.384.381.542.6zm.652 2.655L22 9.42V6.28l-7.37 1.052a3.692 3.692 0 0 1 0 1.036zm-4.35 3.075L9.43 15.7h3.142l-.852-4.257a3.688 3.688 0 0 1-1.438 0z" id="j"/><filter x="-50%" y="-50%" width="200%" height="200%" filterUnits="objectBoundingBox" id="i"><feOffset dy=".5" in="SourceAlpha" result="shadowOffsetOuter1"/><feColorMatrix values="0 0 0 0 0 0 0 0 0 0 0 0 0 0 0 0 0 0 0.06 0" in="shadowOffsetOuter1"/></filter><rect id="l" width="22" height="15.7" rx="1.5"/><filter x="-50%" y="-50%" width="200%" height="200%" filterUnits="objectBoundingBox" id="k"><feOffset dy="-.5" in="SourceAlpha" result="shadowOffsetInner1"/><feComposite in="shadowOffsetInner1" in2="SourceAlpha" operator="arithmetic" k2="-1" k3="1" result="shadowInnerInner1"/><feColorMatrix values="0 0 0 0 0 0 0 0 0 0 0 0 0 0 0 0 0 0 0.04 0" in="shadowInnerInner1" result="shadowMatrixInner1"/><feOffset dy=".5" in="SourceAlpha" result="shadowOffsetInner2"/><feComposite in="shadowOffsetInner2" in2="SourceAlpha" operator="arithmetic" k2="-1" k3="1" result="shadowInnerInner2"/><feColorMatrix values="0 0 0 0 1 0 0 0 0 1 0 0 0 0 1 0 0 0 0.12 0" in="shadowInnerInner2" result="shadowMatrixInner2"/><feMerge><feMergeNode in="shadowMatrixInner1"/><feMergeNode in="shadowMatrixInner2"/></feMerge></filter></defs><g filter="url(#a)" transform="translate(1 1)" fill="none" fill-rule="evenodd"><mask id="e" fill="#fff"><use xlink:href="#b"/></mask><use fill="#000" filter="url(#c)" xlink:href="#b"/><path fill="url(#d)" mask="url(#e)" d="M0 0h22v15.7H0z"/><g mask="url(#e)"><use fill="#000" filter="url(#f)" xlink:href="#g"/><use fill="url(#h)" xlink:href="#g"/></g><g mask="url(#e)"><use fill="#000" filter="url(#i)" xlink:href="#j"/><use fill="url(#h)" xlink:href="#j"/></g><g mask="url(#e)" fill="#000"><use filter="url(#k)" xlink:href="#l"/></g></g></svg>