<svg width="24" height="18" viewBox="0 0 24 18" xmlns="http://www.w3.org/2000/svg" xmlns:xlink="http://www.w3.org/1999/xlink"><title>MQ</title><defs><filter x="-50%" y="-50%" width="200%" height="200%" filterUnits="objectBoundingBox" id="a"><feOffset dy=".5" in="SourceAlpha" result="shadowOffsetOuter1"/><feGaussianBlur stdDeviation=".5" in="shadowOffsetOuter1" result="shadowBlurOuter1"/><feColorMatrix values="0 0 0 0 0 0 0 0 0 0 0 0 0 0 0 0 0 0 0.16 0" in="shadowBlurOuter1" result="shadowMatrixOuter1"/><feMerge><feMergeNode in="shadowMatrixOuter1"/><feMergeNode in="SourceGraphic"/></feMerge></filter><linearGradient x1="50%" y1="0%" x2="50%" y2="100%" id="d"><stop stop-color="#345CB3" offset="0%"/><stop stop-color="#23448D" offset="100%"/></linearGradient><rect id="b" width="22" height="15.7" rx="1.5"/><filter x="-50%" y="-50%" width="200%" height="200%" filterUnits="objectBoundingBox" id="c"><feOffset dy=".5" in="SourceAlpha" result="shadowOffsetOuter1"/><feGaussianBlur stdDeviation=".5" in="shadowOffsetOuter1" result="shadowBlurOuter1"/><feColorMatrix values="0 0 0 0 0 0 0 0 0 0 0 0 0 0 0 0 0 0 0.16 0" in="shadowBlurOuter1"/></filter><path d="M16.675 1.678c.16-.006.333-.004.493.008.216.016.369.064.357.02-.018-.07-.006-.089-.03-.07-.054.038.026-.008-.292.174-.463.264-.664.465-.562.828.089.317.324.405.878.492l.073.011c.222.035.32.055.387.085.015.006-.014-.04-.005-.068-.008.025-.155.083-.524.155l-.184.037c-.713.145-1.068.335-1.121.827-.058.54.502.915 1.205 1.008.717.094 1.34-.143 1.405-.725.04-.37-.217-.592-.625-.673-.276-.056-.64-.055-1.077-.012a11.93 11.93 0 0 0-1.452.246.262.262 0 1 0 .122.51 11.435 11.435 0 0 1 1.382-.235c.39-.039.708-.04.923.004.174.035.21.066.206.103-.022.199-.35.324-.816.263-.457-.06-.77-.27-.752-.433.018-.167.21-.27.705-.37l.18-.036c.61-.12.832-.207.925-.52.076-.255-.05-.456-.285-.56-.125-.055-.246-.08-.519-.123l-.072-.011c-.315-.05-.45-.1-.455-.116-.004-.016.072-.092.318-.233l.172-.098a1.96 1.96 0 0 0 .169-.108c.18-.132.28-.28.228-.484-.075-.286-.356-.374-.824-.41a5.082 5.082 0 0 0-.55-.01l-.08.004a.262.262 0 1 0 .031.523l.066-.003z" id="g"/><filter x="-50%" y="-50%" width="200%" height="200%" filterUnits="objectBoundingBox" id="f"><feOffset dy=".5" in="SourceAlpha" result="shadowOffsetOuter1"/><feColorMatrix values="0 0 0 0 0 0 0 0 0 0 0 0 0 0 0 0 0 0 0.06 0" in="shadowOffsetOuter1"/></filter><path d="M4.523 1.678c.159-.006.332-.004.493.008.216.016.368.064.357.02-.019-.07-.007-.089-.03-.07-.054.038.025-.008-.293.174-.463.264-.663.465-.562.828.09.317.325.405.879.492l.073.011c.221.035.32.055.387.085.015.006-.014-.04-.006-.068-.007.025-.154.083-.524.155l-.183.037c-.713.145-1.068.335-1.121.827-.059.54.501.915 1.204 1.008.718.094 1.342-.143 1.405-.725.04-.37-.216-.592-.624-.673-.277-.056-.64-.055-1.077-.012a11.93 11.93 0 0 0-1.452.246.262.262 0 1 0 .122.51 11.435 11.435 0 0 1 1.382-.235c.389-.039.708-.04.922.004.175.035.21.066.207.103-.022.199-.351.324-.816.263-.457-.06-.77-.27-.753-.433.018-.167.21-.27.705-.37l.18-.036c.61-.12.833-.207.926-.52.076-.255-.05-.456-.285-.56-.126-.055-.247-.08-.519-.123l-.072-.011c-.316-.05-.45-.1-.455-.116-.005-.016.071-.092.317-.233l.172-.098a1.96 1.96 0 0 0 .17-.108c.18-.132.28-.28.228-.484-.075-.286-.356-.374-.824-.41a5.082 5.082 0 0 0-.55-.01l-.08.004a.262.262 0 1 0 .03.523l.067-.003z" id="i"/><filter x="-50%" y="-50%" width="200%" height="200%" filterUnits="objectBoundingBox" id="h"><feOffset dy=".5" in="SourceAlpha" result="shadowOffsetOuter1"/><feColorMatrix values="0 0 0 0 0 0 0 0 0 0 0 0 0 0 0 0 0 0 0.06 0" in="shadowOffsetOuter1"/></filter><path d="M16.675 11.098c.16-.006.333-.004.493.008.216.016.369.064.357.02-.018-.07-.006-.089-.03-.07-.054.038.026-.008-.292.174-.463.264-.664.465-.562.828.089.317.324.405.878.492l.073.011c.222.035.32.055.387.085.015.006-.014-.04-.005-.068-.008.025-.155.083-.524.155l-.184.037c-.713.145-1.068.335-1.121.827-.058.54.502.915 1.205 1.008.717.094 1.34-.143 1.405-.725.04-.37-.217-.592-.625-.673-.276-.056-.64-.055-1.077-.012a11.93 11.93 0 0 0-1.452.246.262.262 0 1 0 .122.51 11.435 11.435 0 0 1 1.382-.235c.39-.039.708-.04.923.004.174.035.21.066.206.103-.022.199-.35.324-.816.263-.457-.06-.77-.27-.752-.433.018-.167.21-.27.705-.37l.18-.036c.61-.12.832-.207.925-.52.076-.255-.05-.456-.285-.56-.125-.055-.246-.08-.519-.123l-.072-.011c-.315-.05-.45-.1-.455-.116-.004-.016.072-.092.318-.233l.172-.098a1.96 1.96 0 0 0 .169-.108c.18-.132.28-.28.228-.484-.075-.286-.356-.374-.824-.41a5.082 5.082 0 0 0-.55-.01l-.08.004a.262.262 0 1 0 .031.523l.066-.003z" id="k"/><filter x="-50%" y="-50%" width="200%" height="200%" filterUnits="objectBoundingBox" id="j"><feOffset dy=".5" in="SourceAlpha" result="shadowOffsetOuter1"/><feColorMatrix values="0 0 0 0 0 0 0 0 0 0 0 0 0 0 0 0 0 0 0.06 0" in="shadowOffsetOuter1"/></filter><path d="M4.523 11.098c.159-.006.332-.004.493.008.216.016.368.064.357.02-.019-.07-.007-.089-.03-.07-.054.038.025-.008-.293.174-.463.264-.663.465-.562.828.09.317.325.405.879.492l.073.011c.221.035.32.055.387.085.015.006-.014-.04-.006-.068-.007.025-.154.083-.524.155l-.183.037c-.713.145-1.068.335-1.121.827-.059.54.501.915 1.204 1.008.718.094 1.342-.143 1.405-.725.04-.37-.216-.592-.624-.673-.277-.056-.64-.055-1.077-.012a11.93 11.93 0 0 0-1.452.246.262.262 0 1 0 .122.51 11.435 11.435 0 0 1 1.382-.235c.389-.039.708-.04.922.004.175.035.21.066.207.103-.022.199-.351.324-.816.263-.457-.06-.77-.27-.753-.433.018-.167.21-.27.705-.37l.18-.036c.61-.12.833-.207.926-.52.076-.255-.05-.456-.285-.56-.126-.055-.247-.08-.519-.123l-.072-.011c-.316-.05-.45-.1-.455-.116-.005-.016.071-.092.317-.233l.172-.098a1.96 1.96 0 0 0 .17-.108c.18-.132.28-.28.228-.484-.075-.286-.356-.374-.824-.41a5.082 5.082 0 0 0-.55-.01l-.08.004a.262.262 0 1 0 .03.523l.067-.003z" id="m"/><filter x="-50%" y="-50%" width="200%" height="200%" filterUnits="objectBoundingBox" id="l"><feOffset dy=".5" in="SourceAlpha" result="shadowOffsetOuter1"/><feColorMatrix values="0 0 0 0 0 0 0 0 0 0 0 0 0 0 0 0 0 0 0.06 0" in="shadowOffsetOuter1"/></filter><path d="M9.429 6.28H-1.048v3.14H9.43v7.327h3.142V9.42h10.477V6.28H12.57v-7.327H9.43V6.28z" id="o"/><filter x="-50%" y="-50%" width="200%" height="200%" filterUnits="objectBoundingBox" id="n"><feMorphology radius=".25" operator="dilate" in="SourceAlpha" result="shadowSpreadOuter1"/><feOffset in="shadowSpreadOuter1" result="shadowOffsetOuter1"/><feColorMatrix values="0 0 0 0 0 0 0 0 0 0 0 0 0 0 0 0 0 0 0.06 0" in="shadowOffsetOuter1"/></filter><rect id="q" width="22" height="15.7" rx="1.5"/><filter x="-50%" y="-50%" width="200%" height="200%" filterUnits="objectBoundingBox" id="p"><feOffset dy="-.5" in="SourceAlpha" result="shadowOffsetInner1"/><feComposite in="shadowOffsetInner1" in2="SourceAlpha" operator="arithmetic" k2="-1" k3="1" result="shadowInnerInner1"/><feColorMatrix values="0 0 0 0 0 0 0 0 0 0 0 0 0 0 0 0 0 0 0.04 0" in="shadowInnerInner1" result="shadowMatrixInner1"/><feOffset dy=".5" in="SourceAlpha" result="shadowOffsetInner2"/><feComposite in="shadowOffsetInner2" in2="SourceAlpha" operator="arithmetic" k2="-1" k3="1" result="shadowInnerInner2"/><feColorMatrix values="0 0 0 0 1 0 0 0 0 1 0 0 0 0 1 0 0 0 0.12 0" in="shadowInnerInner2" result="shadowMatrixInner2"/><feMerge><feMergeNode in="shadowMatrixInner1"/><feMergeNode in="shadowMatrixInner2"/></feMerge></filter></defs><g filter="url(#a)" transform="translate(1 1)" fill="none" fill-rule="evenodd"><mask id="e" fill="#fff"><use xlink:href="#b"/></mask><use fill="#000" filter="url(#c)" xlink:href="#b"/><use fill="url(#d)" xlink:href="#b"/><g mask="url(#e)" fill-rule="nonzero"><use fill="#000" filter="url(#f)" xlink:href="#g"/><use fill="#fff" fill-rule="evenodd" xlink:href="#g"/></g><g mask="url(#e)" fill-rule="nonzero"><use fill="#000" filter="url(#h)" xlink:href="#i"/><use fill="#fff" fill-rule="evenodd" xlink:href="#i"/></g><g mask="url(#e)" fill-rule="nonzero"><use fill="#000" filter="url(#j)" xlink:href="#k"/><use fill="#fff" fill-rule="evenodd" xlink:href="#k"/></g><g mask="url(#e)" fill-rule="nonzero"><use fill="#000" filter="url(#l)" xlink:href="#m"/><use fill="#fff" fill-rule="evenodd" xlink:href="#m"/></g><g mask="url(#e)"><use fill="#000" filter="url(#n)" xlink:href="#o"/><use fill="#fff" xlink:href="#o"/></g><g mask="url(#e)" fill="#000"><use filter="url(#p)" xlink:href="#q"/></g></g></svg>