<svg width="24" height="18" viewBox="0 0 24 18" xmlns="http://www.w3.org/2000/svg" xmlns:xlink="http://www.w3.org/1999/xlink"><title>NP</title><defs><filter x="-50%" y="-50%" width="200%" height="200%" filterUnits="objectBoundingBox" id="b"><feOffset dy=".5" in="SourceAlpha" result="shadowOffsetOuter1"/><feGaussianBlur stdDeviation=".5" in="shadowOffsetOuter1" result="shadowBlurOuter1"/><feColorMatrix values="0 0 0 0 0 0 0 0 0 0 0 0 0 0 0 0 0 0 0.16 0" in="shadowBlurOuter1" result="shadowMatrixOuter1"/><feMerge><feMergeNode in="shadowMatrixOuter1"/><feMergeNode in="SourceGraphic"/></feMerge></filter><path d="M0 1.505C0 .674.671 0 1.494 0h.087c.279 0 .691.125.921.279L13.77 7.817c.459.307.382.556-.175.556H6.257l7.588 6.664c.417.366.302.663-.249.663H1.507A1.507 1.507 0 0 1 0 14.195V1.505z" id="c"/><filter x="-50%" y="-50%" width="200%" height="200%" filterUnits="objectBoundingBox" id="d"><feOffset dy=".5" in="SourceAlpha" result="shadowOffsetOuter1"/><feGaussianBlur stdDeviation=".5" in="shadowOffsetOuter1" result="shadowBlurOuter1"/><feColorMatrix values="0 0 0 0 0 0 0 0 0 0 0 0 0 0 0 0 0 0 0.16 0" in="shadowBlurOuter1"/></filter><linearGradient x1="50%" y1="0%" x2="50%" y2="100%" id="g"><stop stop-color="#EF1B44" offset="0%"/><stop stop-color="#DD153C" offset="100%"/></linearGradient><linearGradient x1="50%" y1="0%" x2="50%" y2="100%" id="f"><stop stop-color="#0443A8" offset="0%"/><stop stop-color="#003893" offset="100%"/></linearGradient><path d="M0 0h1.58c.28 0 .692.125.922.279L13.77 7.817c.459.307.382.556-.175.556H6.257l7.588 6.664c.417.366.302.663-.249.663H0V0z" id="a"/><mask id="h" x="0" y="0" width="14.076" height="15.7" fill="#fff"><use xlink:href="#a"/></mask><path d="M0 1.505C0 .674.671 0 1.494 0h.087c.279 0 .691.125.921.279L13.77 7.817c.459.307.382.556-.175.556H6.257l7.588 6.664c.417.366.302.663-.249.663H1.507A1.507 1.507 0 0 1 0 14.195V1.505z" id="i"/><filter x="-50%" y="-50%" width="200%" height="200%" filterUnits="objectBoundingBox" id="j"><feOffset dy="-.5" in="SourceAlpha" result="shadowOffsetInner1"/><feComposite in="shadowOffsetInner1" in2="SourceAlpha" operator="arithmetic" k2="-1" k3="1" result="shadowInnerInner1"/><feColorMatrix values="0 0 0 0 0 0 0 0 0 0 0 0 0 0 0 0 0 0 0.04 0" in="shadowInnerInner1" result="shadowMatrixInner1"/><feOffset dy=".5" in="SourceAlpha" result="shadowOffsetInner2"/><feComposite in="shadowOffsetInner2" in2="SourceAlpha" operator="arithmetic" k2="-1" k3="1" result="shadowInnerInner2"/><feColorMatrix values="0 0 0 0 1 0 0 0 0 1 0 0 0 0 1 0 0 0 0.12 0" in="shadowInnerInner2" result="shadowMatrixInner2"/><feMerge><feMergeNode in="shadowMatrixInner1"/><feMergeNode in="shadowMatrixInner2"/></feMerge></filter><path d="M5.359 6.124c.3-.083.577-.196.822-.334A2.088 2.088 0 0 1 4.17 7.327c-.96 0-1.768-.651-2.011-1.537.245.138.523.252.825.334l.405-.367-.663-.601.892.046-.045-.896.598.666.6-.666-.047.896.893-.046-.663.6.405.368zM4.17 12.56l-.798.887.061-1.194-1.19.061.885-.8-.885-.802 1.19.061-.06-1.194.797.888.799-.888-.061 1.194 1.19-.06-.885.8.884.801-1.19-.06.062 1.193-.799-.887z" id="m"/><filter x="-50%" y="-50%" width="200%" height="200%" filterUnits="objectBoundingBox" id="l"><feOffset dy=".5" in="SourceAlpha" result="shadowOffsetOuter1"/><feColorMatrix values="0 0 0 0 0 0 0 0 0 0 0 0 0 0 0 0 0 0 0.06 0" in="shadowOffsetOuter1"/></filter></defs><g filter="url(#b)" transform="translate(1 1)" fill="none" fill-rule="evenodd"><mask id="e" fill="#fff"><use xlink:href="#c"/></mask><use fill="#000" filter="url(#d)" xlink:href="#c"/><g mask="url(#e)" stroke="url(#f)" stroke-width="2" fill="url(#g)" stroke-linejoin="round"><use mask="url(#h)" xlink:href="#a"/></g><mask id="k" fill="#fff"><use xlink:href="#i"/></mask><use filter="url(#j)" xlink:href="#i" fill="#000"/><g mask="url(#k)"><use fill="#000" filter="url(#l)" xlink:href="#m"/><use fill="#fff" xlink:href="#m"/></g></g></svg>