<svg width="24" height="18" viewBox="0 0 24 18" xmlns="http://www.w3.org/2000/svg" xmlns:xlink="http://www.w3.org/1999/xlink"><title>PM</title><defs><filter x="-50%" y="-50%" width="200%" height="200%" filterUnits="objectBoundingBox" id="a"><feOffset dy=".5" in="SourceAlpha" result="shadowOffsetOuter1"/><feGaussianBlur stdDeviation=".5" in="shadowOffsetOuter1" result="shadowBlurOuter1"/><feColorMatrix values="0 0 0 0 0 0 0 0 0 0 0 0 0 0 0 0 0 0 0.16 0" in="shadowBlurOuter1" result="shadowMatrixOuter1"/><feMerge><feMergeNode in="shadowMatrixOuter1"/><feMergeNode in="SourceGraphic"/></feMerge></filter><rect id="b" width="22" height="15.7" rx="1.5"/><filter x="-50%" y="-50%" width="200%" height="200%" filterUnits="objectBoundingBox" id="c"><feOffset dy=".5" in="SourceAlpha" result="shadowOffsetOuter1"/><feGaussianBlur stdDeviation=".5" in="shadowOffsetOuter1" result="shadowBlurOuter1"/><feColorMatrix values="0 0 0 0 0 0 0 0 0 0 0 0 0 0 0 0 0 0 0.16 0" in="shadowBlurOuter1"/></filter><linearGradient x1="50%" y1="0%" x2="50%" y2="100%" id="g"><stop stop-color="#128F15" offset="0%"/><stop stop-color="#0F7F12" offset="100%"/></linearGradient><path id="f" d="M0 10.467h22V15.7H0z"/><filter x="-50%" y="-50%" width="200%" height="200%" filterUnits="objectBoundingBox" id="e"><feMorphology radius=".25" operator="dilate" in="SourceAlpha" result="shadowSpreadOuter1"/><feOffset in="shadowSpreadOuter1" result="shadowOffsetOuter1"/><feColorMatrix values="0 0 0 0 0 0 0 0 0 0 0 0 0 0 0 0 0 0 0.06 0" in="shadowOffsetOuter1"/></filter><linearGradient x1="50%" y1="0%" x2="50%" y2="100%" id="h"><stop stop-color="#26A7DD" offset="0%"/><stop stop-color="#1B94C6" offset="100%"/></linearGradient><linearGradient x1="50%" y1="0%" x2="50%" y2="100%" id="k"><stop stop-color="#FCCD3F" offset="0%"/><stop stop-color="#FFCE2F" offset="100%"/></linearGradient><path d="M18.15 6.729c1.077-.265 1.755-.335 1.755.598 0 1.734-2.345 3.14-5.238 3.14-2.893 0-5.238-1.406-5.238-3.14 0-.933.677-.863 1.754-.598a4.302 4.302 0 0 1-.17-.588c-.3-1.414.145-2.706.994-2.887.849-.18 1.78.82 2.08 2.233.142.667.119 1.306-.035 1.815a7.775 7.775 0 0 0 1.23 0c-.154-.509-.178-1.148-.036-1.815.3-1.413 1.232-2.413 2.08-2.233.85.18 1.294 1.473.994 2.887-.044.205-.101.402-.17.588z" id="j"/><filter x="-50%" y="-50%" width="200%" height="200%" filterUnits="objectBoundingBox" id="i"><feOffset dy=".5" in="SourceAlpha" result="shadowOffsetOuter1"/><feColorMatrix values="0 0 0 0 0 0 0 0 0 0 0 0 0 0 0 0 0 0 0.06 0" in="shadowOffsetOuter1"/></filter><linearGradient x1="50%" y1="0%" x2="50%" y2="100%" id="m"><stop stop-color="#F13533" offset="0%"/><stop stop-color="#D82A28" offset="100%"/></linearGradient><path id="l" d="M0 0h7.333v5.233H0z"/><linearGradient x1="82.842%" y1="18.137%" x2="20.426%" y2="78.479%" id="n"><stop stop-color="#2AA954" offset="0%"/><stop stop-color="#219447" offset="100%"/></linearGradient><path d="M4.19 2.093v-3.14H3.143v3.14H0V3.14h3.143v3.14H4.19V3.14h3.143V2.093H4.19z" id="q"/><filter x="-50%" y="-50%" width="200%" height="200%" filterUnits="objectBoundingBox" id="p"><feMorphology radius=".25" operator="dilate" in="SourceAlpha" result="shadowSpreadOuter1"/><feOffset in="shadowSpreadOuter1" result="shadowOffsetOuter1"/><feColorMatrix values="0 0 0 0 0 0 0 0 0 0 0 0 0 0 0 0 0 0 0.06 0" in="shadowOffsetOuter1"/></filter><path id="s" d="M0 5.233h7.333v5.233H0z"/><filter x="-50%" y="-50%" width="200%" height="200%" filterUnits="objectBoundingBox" id="r"><feOffset dy=".5" in="SourceAlpha" result="shadowOffsetOuter1"/><feColorMatrix values="0 0 0 0 0 0 0 0 0 0 0 0 0 0 0 0 0 0 0.06 0" in="shadowOffsetOuter1"/></filter><linearGradient x1="50%" y1="0%" x2="50%" y2="100%" id="t"><stop stop-color="#262626" offset="0%"/><stop stop-color="#0C0C0C" offset="100%"/></linearGradient><linearGradient x1="50%" y1="0%" x2="50%" y2="100%" id="u"><stop stop-color="#D7171C" offset="0%"/><stop stop-color="#C60E13" offset="100%"/></linearGradient><rect id="v" width="22" height="15.7" rx="1.5"/><filter x="-50%" y="-50%" width="200%" height="200%" filterUnits="objectBoundingBox" id="w"><feOffset dy="-.5" in="SourceAlpha" result="shadowOffsetInner1"/><feComposite in="shadowOffsetInner1" in2="SourceAlpha" operator="arithmetic" k2="-1" k3="1" result="shadowInnerInner1"/><feColorMatrix values="0 0 0 0 0 0 0 0 0 0 0 0 0 0 0 0 0 0 0.04 0" in="shadowInnerInner1" result="shadowMatrixInner1"/><feOffset dy=".5" in="SourceAlpha" result="shadowOffsetInner2"/><feComposite in="shadowOffsetInner2" in2="SourceAlpha" operator="arithmetic" k2="-1" k3="1" result="shadowInnerInner2"/><feColorMatrix values="0 0 0 0 1 0 0 0 0 1 0 0 0 0 1 0 0 0 0.12 0" in="shadowInnerInner2" result="shadowMatrixInner2"/><feMerge><feMergeNode in="shadowMatrixInner1"/><feMergeNode in="shadowMatrixInner2"/></feMerge></filter><linearGradient x1="50%" y1="0%" x2="50%" y2="100%" id="x"><stop stop-color="#FCCD3F" offset="0%"/><stop stop-color="#FECB2F" offset="100%"/></linearGradient></defs><g filter="url(#a)" transform="translate(1 1)" fill="none" fill-rule="evenodd"><mask id="d" fill="#fff"><use xlink:href="#b"/></mask><use fill="#000" filter="url(#c)" xlink:href="#b"/><g mask="url(#d)"><use fill="#000" filter="url(#e)" xlink:href="#f"/><use fill="url(#g)" xlink:href="#f"/></g><path fill="url(#h)" mask="url(#d)" d="M0 15.7h22V0H0z"/><g mask="url(#d)"><use fill="#000" filter="url(#i)" xlink:href="#j"/><use fill="url(#k)" xlink:href="#j"/></g><path stroke="#fff" stroke-linecap="round" stroke-linejoin="round" mask="url(#d)" d="M10.476 12.037l2.095 1.046 2.096-1.046 2.095 1.046 2.095-1.046"/><g mask="url(#d)"><mask id="o" fill="#fff"><use xlink:href="#l"/></mask><use fill="url(#m)" xlink:href="#l"/><path d="M4.19 2.093v-4.186H3.143v4.186h-4.19V3.14h4.19v4.187H4.19V3.14h4.191V2.093h-4.19z" fill="url(#n)" mask="url(#o)" transform="rotate(-45 3.667 2.617)"/><g mask="url(#o)"><use fill="#000" filter="url(#p)" xlink:href="#q"/><use fill="#fff" xlink:href="#q"/></g></g><g mask="url(#d)"><use fill="#000" filter="url(#r)" xlink:href="#s"/><use fill="#fff" xlink:href="#s"/></g><path d="M1.571 7.327a.524.524 0 1 1 0-1.047.524.524 0 0 1 0 1.047zm2.096 0a.524.524 0 1 1 0-1.047.524.524 0 0 1 0 1.047zm2.095 0a.524.524 0 1 1 0-1.047.524.524 0 0 1 0 1.047zM4.714 9.42a.524.524 0 1 1 0-1.047.524.524 0 0 1 0 1.047zm-2.095 0a.524.524 0 1 1 0-1.047.524.524 0 0 1 0 1.047z" fill="url(#t)" mask="url(#d)"/><path fill="url(#u)" mask="url(#d)" d="M0 10.467h7.333V15.7H0z"/><use filter="url(#w)" xlink:href="#v" fill="#000"/><path d="M3.667 12.56c-1.447 0-2.62-.234-2.62-.523 0-.29 1.173-.524 2.62-.524 1.446 0 2.619.235 2.619.524 0 .289-1.173.523-2.62.523zm0 2.093c-1.447 0-2.62-.234-2.62-.523 0-.289 1.173-.523 2.62-.523 1.446 0 2.619.234 2.619.523 0 .289-1.173.523-2.62.523z" fill="url(#x)"/></g></svg>