<svg width="24" height="18" viewBox="0 0 24 18" xmlns="http://www.w3.org/2000/svg" xmlns:xlink="http://www.w3.org/1999/xlink"><title>SAMI</title><defs><filter x="-50%" y="-50%" width="200%" height="200%" filterUnits="objectBoundingBox" id="a"><feOffset dy=".5" in="SourceAlpha" result="shadowOffsetOuter1"/><feGaussianBlur stdDeviation=".5" in="shadowOffsetOuter1" result="shadowBlurOuter1"/><feColorMatrix values="0 0 0 0 0 0 0 0 0 0 0 0 0 0 0 0 0 0 0.16 0" in="shadowBlurOuter1" result="shadowMatrixOuter1"/><feMerge><feMergeNode in="shadowMatrixOuter1"/><feMergeNode in="SourceGraphic"/></feMerge></filter><rect id="b" width="22" height="15.7" rx="1.5"/><filter x="-50%" y="-50%" width="200%" height="200%" filterUnits="objectBoundingBox" id="c"><feOffset dy=".5" in="SourceAlpha" result="shadowOffsetOuter1"/><feGaussianBlur stdDeviation=".5" in="shadowOffsetOuter1" result="shadowBlurOuter1"/><feColorMatrix values="0 0 0 0 0 0 0 0 0 0 0 0 0 0 0 0 0 0 0.16 0" in="shadowBlurOuter1"/></filter><linearGradient x1="50%" y1="0%" x2="50%" y2="100%" id="d"><stop stop-color="#E5332A" offset="0%"/><stop stop-color="#D62219" offset="100%"/></linearGradient><linearGradient x1="50%" y1="0%" x2="50%" y2="100%" id="f"><stop stop-color="#179A53" offset="0%"/><stop stop-color="#0F7A40" offset="100%"/></linearGradient><linearGradient x1="50%" y1="0%" x2="50%" y2="100%" id="g"><stop stop-color="#FFD850" offset="0%"/><stop stop-color="#FCD036" offset="100%"/></linearGradient><linearGradient x1="50%" y1="0%" x2="50%" y2="100%" id="h"><stop stop-color="#0E4DC6" offset="0%"/><stop stop-color="#073DA6" offset="100%"/></linearGradient><path d="M9.429 5.757c0-2.623-1.9-4.71-4.19-4.71-2.292 0-4.191 2.087-4.191 4.71 0 2.622 1.9 4.71 4.19 4.71 2.291 0 4.19-2.088 4.19-4.71zM0 5.757C0 2.577 2.345 0 5.238 0c2.893 0 5.238 2.577 5.238 5.757 0 3.179-2.345 5.756-5.238 5.756C2.345 11.513 0 8.936 0 5.757z" id="i"/><linearGradient x1="50%" y1="0%" x2="50%" y2="100%" id="j"><stop stop-color="#1050CD" offset="0%"/><stop stop-color="#073DA6" offset="100%"/></linearGradient><linearGradient x1="50%" y1="0%" x2="50%" y2="100%" id="l"><stop stop-color="#F53027" offset="0%"/><stop stop-color="#D62219" offset="100%"/></linearGradient><rect id="m" width="22" height="15.7" rx="1.5"/><filter x="-50%" y="-50%" width="200%" height="200%" filterUnits="objectBoundingBox" id="n"><feOffset dy="-.5" in="SourceAlpha" result="shadowOffsetInner1"/><feComposite in="shadowOffsetInner1" in2="SourceAlpha" operator="arithmetic" k2="-1" k3="1" result="shadowInnerInner1"/><feColorMatrix values="0 0 0 0 0 0 0 0 0 0 0 0 0 0 0 0 0 0 0.04 0" in="shadowInnerInner1" result="shadowMatrixInner1"/><feOffset dy=".5" in="SourceAlpha" result="shadowOffsetInner2"/><feComposite in="shadowOffsetInner2" in2="SourceAlpha" operator="arithmetic" k2="-1" k3="1" result="shadowInnerInner2"/><feColorMatrix values="0 0 0 0 1 0 0 0 0 1 0 0 0 0 1 0 0 0 0.12 0" in="shadowInnerInner2" result="shadowMatrixInner2"/><feMerge><feMergeNode in="shadowMatrixInner1"/><feMergeNode in="shadowMatrixInner2"/></feMerge></filter></defs><g filter="url(#a)" transform="translate(1 1)" fill="none" fill-rule="evenodd"><mask id="e" fill="#fff"><use xlink:href="#b"/></mask><use filter="url(#c)" xlink:href="#b" fill="#000"/><path d="M0 1.505C0 .674.673 0 1.506 0h4.78v15.7h-4.78A1.506 1.506 0 0 1 0 14.195V1.505z" fill="url(#d)" mask="url(#e)"/><path fill="url(#f)" mask="url(#e)" d="M6.286 0h2.095v15.7H6.286z"/><path fill="url(#g)" mask="url(#e)" d="M8.381 0h2.095v15.7H8.381z"/><path fill="url(#h)" mask="url(#e)" d="M10.476 0H22v15.7H10.476z"/><g mask="url(#e)"><g transform="translate(3.143 2.093)"><mask id="k" fill="#fff"><use xlink:href="#i"/></mask><use fill="#979797" fill-rule="nonzero" xlink:href="#i"/><rect fill="url(#j)" mask="url(#k)" y="-2.093" width="5.238" height="15.7" rx="1.5"/><rect fill="url(#l)" mask="url(#k)" x="5.238" y="-2.093" width="5.238" height="15.7" rx="1.5"/></g></g><use filter="url(#n)" xlink:href="#m" fill="#000"/></g></svg>