<svg width="24" height="18" viewBox="0 0 24 18" xmlns="http://www.w3.org/2000/svg" xmlns:xlink="http://www.w3.org/1999/xlink"><title>SK</title><defs><filter x="-50%" y="-50%" width="200%" height="200%" filterUnits="objectBoundingBox" id="b"><feOffset dy=".5" in="SourceAlpha" result="shadowOffsetOuter1"/><feGaussianBlur stdDeviation=".5" in="shadowOffsetOuter1" result="shadowBlurOuter1"/><feColorMatrix values="0 0 0 0 0 0 0 0 0 0 0 0 0 0 0 0 0 0 0.16 0" in="shadowBlurOuter1" result="shadowMatrixOuter1"/><feMerge><feMergeNode in="shadowMatrixOuter1"/><feMergeNode in="SourceGraphic"/></feMerge></filter><rect id="c" width="22" height="15.7" rx="1.5"/><filter x="-50%" y="-50%" width="200%" height="200%" filterUnits="objectBoundingBox" id="d"><feOffset dy=".5" in="SourceAlpha" result="shadowOffsetOuter1"/><feGaussianBlur stdDeviation=".5" in="shadowOffsetOuter1" result="shadowBlurOuter1"/><feColorMatrix values="0 0 0 0 0 0 0 0 0 0 0 0 0 0 0 0 0 0 0.16 0" in="shadowBlurOuter1"/></filter><linearGradient x1="50%" y1="0%" x2="50%" y2="100%" id="h"><stop stop-color="#0C47B7" offset="0%"/><stop stop-color="#073DA4" offset="100%"/></linearGradient><path id="g" d="M0 5.233h22v5.233H0z"/><filter x="-50%" y="-50%" width="200%" height="200%" filterUnits="objectBoundingBox" id="f"><feMorphology radius=".25" operator="dilate" in="SourceAlpha" result="shadowSpreadOuter1"/><feOffset in="shadowSpreadOuter1" result="shadowOffsetOuter1"/><feColorMatrix values="0 0 0 0 0 0 0 0 0 0 0 0 0 0 0 0 0 0 0.06 0" in="shadowOffsetOuter1"/></filter><linearGradient x1="50%" y1="0%" x2="50%" y2="100%" id="k"><stop stop-color="#E53B35" offset="0%"/><stop stop-color="#D32E28" offset="100%"/></linearGradient><path id="j" d="M0 10.467h22V15.7H0z"/><filter x="-50%" y="-50%" width="200%" height="200%" filterUnits="objectBoundingBox" id="i"><feMorphology radius=".25" operator="dilate" in="SourceAlpha" result="shadowSpreadOuter1"/><feOffset in="shadowSpreadOuter1" result="shadowOffsetOuter1"/><feColorMatrix values="0 0 0 0 0 0 0 0 0 0 0 0 0 0 0 0 0 0 0.06 0" in="shadowOffsetOuter1"/></filter><path id="m" d="M0 0h22v5.233H0z"/><filter x="-50%" y="-50%" width="200%" height="200%" filterUnits="objectBoundingBox" id="l"><feMorphology radius=".25" operator="dilate" in="SourceAlpha" result="shadowSpreadOuter1"/><feOffset in="shadowSpreadOuter1" result="shadowOffsetOuter1"/><feColorMatrix values="0 0 0 0 0 0 0 0 0 0 0 0 0 0 0 0 0 0 0.06 0" in="shadowOffsetOuter1"/></filter><linearGradient x1="50%" y1="0%" x2="50%" y2="100%" id="o"><stop stop-color="#F73744" offset="0%"/><stop stop-color="#EC212F" offset="100%"/></linearGradient><linearGradient x1="50%" y1="0%" x2="50%" y2="100%" id="p"><stop stop-color="#FFF" offset="0%"/><stop stop-color="#F0F0F0" offset="100%"/></linearGradient><path d="M.747 1.004A1.05 1.05 0 0 1 1.79 0h4.8a1.05 1.05 0 0 1 1.044 1.004l.184 4.795c.022.555-.3 1.294-.72 1.655L5.33 8.967c-.63.54-1.65.54-2.28 0L1.283 7.454C.864 7.094.54 6.357.562 5.799l.185-4.795z" id="a"/><filter x="-50%" y="-50%" width="200%" height="200%" filterUnits="objectBoundingBox" id="n"><feMorphology radius="1" operator="dilate" in="SourceAlpha" result="shadowSpreadOuter1"/><feOffset dy="1" in="shadowSpreadOuter1" result="shadowOffsetOuter1"/><feComposite in="shadowOffsetOuter1" in2="SourceAlpha" operator="out" result="shadowOffsetOuter1"/><feColorMatrix values="0 0 0 0 0 0 0 0 0 0 0 0 0 0 0 0 0 0 0.06 0" in="shadowOffsetOuter1"/></filter><mask id="q" x="-1" y="-1" width="9.255" height="11.34"><path fill="#fff" d="M-.437-1h9.255v11.34H-.437z"/><use xlink:href="#a"/></mask><path d="M3.667 5.49c0-.142-.103-.257-.246-.257h-1.08a.246.246 0 0 1-.246-.242v-.562a.24.24 0 0 1 .246-.242h1.08a.246.246 0 0 0 .246-.243v-.561a.245.245 0 0 0-.243-.243h-.562a.245.245 0 0 1-.243-.243v-.56c0-.135.112-.244.243-.244h.562a.245.245 0 0 0 .243-.242v-.562c0-.134.112-.242.243-.242h.561c.135 0 .243.112.243.242v.562c0 .134.112.242.243.242h.562c.134 0 .243.112.243.243v.561a.245.245 0 0 1-.243.243h-.562a.245.245 0 0 0-.243.243v.56a.24.24 0 0 0 .246.244h1.08c.136 0 .246.112.246.242v.562a.24.24 0 0 1-.246.242H4.96a.25.25 0 0 0-.246.257v1.58c0 .142-.112.257-.243.257H3.91a.249.249 0 0 1-.243-.257V5.49z" id="t"/><filter x="-50%" y="-50%" width="200%" height="200%" filterUnits="objectBoundingBox" id="s"><feOffset dy=".5" in="SourceAlpha" result="shadowOffsetOuter1"/><feColorMatrix values="0 0 0 0 0 0 0 0 0 0 0 0 0 0 0 0 0 0 0.06 0" in="shadowOffsetOuter1"/></filter><rect id="v" width="22" height="15.7" rx="1.5"/><filter x="-50%" y="-50%" width="200%" height="200%" filterUnits="objectBoundingBox" id="u"><feOffset dy="-.5" in="SourceAlpha" result="shadowOffsetInner1"/><feComposite in="shadowOffsetInner1" in2="SourceAlpha" operator="arithmetic" k2="-1" k3="1" result="shadowInnerInner1"/><feColorMatrix values="0 0 0 0 0 0 0 0 0 0 0 0 0 0 0 0 0 0 0.04 0" in="shadowInnerInner1" result="shadowMatrixInner1"/><feOffset dy=".5" in="SourceAlpha" result="shadowOffsetInner2"/><feComposite in="shadowOffsetInner2" in2="SourceAlpha" operator="arithmetic" k2="-1" k3="1" result="shadowInnerInner2"/><feColorMatrix values="0 0 0 0 1 0 0 0 0 1 0 0 0 0 1 0 0 0 0.12 0" in="shadowInnerInner2" result="shadowMatrixInner2"/><feMerge><feMergeNode in="shadowMatrixInner1"/><feMergeNode in="shadowMatrixInner2"/></feMerge></filter></defs><g filter="url(#b)" transform="translate(1 1)" fill="none" fill-rule="evenodd"><mask id="e" fill="#fff"><use xlink:href="#c"/></mask><use fill="#000" filter="url(#d)" xlink:href="#c"/><g mask="url(#e)"><use fill="#000" filter="url(#f)" xlink:href="#g"/><use fill="url(#h)" xlink:href="#g"/></g><g mask="url(#e)"><use fill="#000" filter="url(#i)" xlink:href="#j"/><use fill="url(#k)" xlink:href="#j"/></g><g mask="url(#e)"><use fill="#000" filter="url(#l)" xlink:href="#m"/><use fill="#fff" xlink:href="#m"/></g><g mask="url(#e)"><g transform="translate(3.667 3.14)"><mask id="r" fill="#fff"><use xlink:href="#a"/></mask><use fill="#000" filter="url(#n)" xlink:href="#a"/><use fill="url(#o)" xlink:href="#a"/><use stroke="url(#p)" mask="url(#q)" stroke-width="2" xlink:href="#a"/><g mask="url(#r)"><use fill="#000" filter="url(#s)" xlink:href="#t"/><use fill="#fff" xlink:href="#t"/></g><path d="M3.245 7.399c-1.274.2-2.197.795-2.197 1.498 0 .867 1.407 1.57 3.142 1.57 1.736 0 3.143-.703 3.143-1.57 0-.703-.923-1.298-2.197-1.498a1.048 1.048 0 0 0-1.891 0z" fill="#1251A1" mask="url(#r)"/></g></g><g mask="url(#e)" fill="#000"><use filter="url(#u)" xlink:href="#v"/></g></g></svg>