<svg width="24" height="18" viewBox="0 0 24 18" xmlns="http://www.w3.org/2000/svg" xmlns:xlink="http://www.w3.org/1999/xlink"><title>US-CA</title><defs><filter x="-50%" y="-50%" width="200%" height="200%" filterUnits="objectBoundingBox" id="b"><feOffset dy=".5" in="SourceAlpha" result="shadowOffsetOuter1"/><feGaussianBlur stdDeviation=".5" in="shadowOffsetOuter1" result="shadowBlurOuter1"/><feColorMatrix values="0 0 0 0 0 0 0 0 0 0 0 0 0 0 0 0 0 0 0.16 0" in="shadowBlurOuter1" result="shadowMatrixOuter1"/><feMerge><feMergeNode in="shadowMatrixOuter1"/><feMergeNode in="SourceGraphic"/></feMerge></filter><rect id="c" width="22" height="15.7" rx="1.5"/><filter x="-50%" y="-50%" width="200%" height="200%" filterUnits="objectBoundingBox" id="d"><feOffset dy=".5" in="SourceAlpha" result="shadowOffsetOuter1"/><feGaussianBlur stdDeviation=".5" in="shadowOffsetOuter1" result="shadowBlurOuter1"/><feColorMatrix values="0 0 0 0 0 0 0 0 0 0 0 0 0 0 0 0 0 0 0.16 0" in="shadowBlurOuter1"/></filter><linearGradient x1="50%" y1="0%" x2="50%" y2="100%" id="h"><stop stop-color="#E7413D" offset="0%"/><stop stop-color="#DB3531" offset="100%"/></linearGradient><path id="g" d="M0 12.56h22v3.14H0z"/><filter x="-50%" y="-50%" width="200%" height="200%" filterUnits="objectBoundingBox" id="f"><feMorphology radius=".25" operator="dilate" in="SourceAlpha" result="shadowSpreadOuter1"/><feOffset in="shadowSpreadOuter1" result="shadowOffsetOuter1"/><feColorMatrix values="0 0 0 0 0 0 0 0 0 0 0 0 0 0 0 0 0 0 0.06 0" in="shadowOffsetOuter1"/></filter><path id="j" d="M0 0h22v12.56H0z"/><filter x="-50%" y="-50%" width="200%" height="200%" filterUnits="objectBoundingBox" id="i"><feMorphology radius=".25" operator="dilate" in="SourceAlpha" result="shadowSpreadOuter1"/><feOffset in="shadowSpreadOuter1" result="shadowOffsetOuter1"/><feColorMatrix values="0 0 0 0 0 0 0 0 0 0 0 0 0 0 0 0 0 0 0.06 0" in="shadowOffsetOuter1"/></filter><path d="M7.66 6.908c-.158-.146-.15.132-.504.084-.094-.012-.21-.226-.21-.226s-.59-.038-.622-.312c-.031-.275.367-.404.515-.61.117-.163.02-.3.108-.48s.35-.236.377-.328c.016-.057-.14-.277.08-.351.213-.072.41.11.41.11s.001-.255.174-.284c.25-.044.411.174.411.174s1.274-1.054 1.99-1.062c.616-.006.897.38 1.488.444.963.104 1.39-.444 2.369 0 1.252.567 1.33 3.131 1.33 3.131s.315.421.365.652c.047.219 0 .372-.215.545-.214.174-.946.39-1.083.152-.137-.239.64-.417.509-.474-.51-.223-.906-.875-.906-.875s-.543.29-.844.652c-.247.298-.141.697-.513.697-.713 0-1.04.069-1.08-.152-.088-.474.923-.123.745-.241-.123-.081-.123-1.388-.123-1.388h-.773s.165 1.504-.12 1.542c-.742.1-.384.089-1.006 0C10.19 8.26 11 7.85 11 7.85s-.109-.778-.468-.772c-.585.58-1.497 1.653-1.86 1.653-.442 0-.354-.05-.684-.074-.696-.054 0-.584.411-.349.174-.235.794-1.966.794-1.966s-1.128.942-1.533.566z" id="a"/><mask id="k" x="0" y="0" width="9.635" height="5.108" fill="#fff"><use xlink:href="#a"/></mask><rect id="m" width="22" height="15.7" rx="1.5"/><filter x="-50%" y="-50%" width="200%" height="200%" filterUnits="objectBoundingBox" id="l"><feOffset dy="-.5" in="SourceAlpha" result="shadowOffsetInner1"/><feComposite in="shadowOffsetInner1" in2="SourceAlpha" operator="arithmetic" k2="-1" k3="1" result="shadowInnerInner1"/><feColorMatrix values="0 0 0 0 0 0 0 0 0 0 0 0 0 0 0 0 0 0 0.04 0" in="shadowInnerInner1" result="shadowMatrixInner1"/><feOffset dy=".5" in="SourceAlpha" result="shadowOffsetInner2"/><feComposite in="shadowOffsetInner2" in2="SourceAlpha" operator="arithmetic" k2="-1" k3="1" result="shadowInnerInner2"/><feColorMatrix values="0 0 0 0 1 0 0 0 0 1 0 0 0 0 1 0 0 0 0.12 0" in="shadowInnerInner2" result="shadowMatrixInner2"/><feMerge><feMergeNode in="shadowMatrixInner1"/><feMergeNode in="shadowMatrixInner2"/></feMerge></filter></defs><g filter="url(#b)" transform="translate(1 1)" fill="none" fill-rule="evenodd"><mask id="e" fill="#fff"><use xlink:href="#c"/></mask><use filter="url(#d)" xlink:href="#c" fill="#000"/><g mask="url(#e)"><use fill="#000" filter="url(#f)" xlink:href="#g"/><use fill="url(#h)" xlink:href="#g"/></g><g mask="url(#e)"><use fill="#000" filter="url(#i)" xlink:href="#j"/><use fill="#fff" xlink:href="#j"/></g><path d="M3.492 11.099a.129.129 0 0 1 .076.117c0 .025-.007.05-.023.073a.457.457 0 0 1-.396.203.452.452 0 0 1-.297-.098.572.572 0 0 1-.176-.265 1.143 1.143 0 0 1-.057-.37c0-.133.019-.256.057-.367a.58.58 0 0 1 .176-.266.45.45 0 0 1 .297-.099c.16 0 .286.061.38.184a.128.128 0 0 1-.038.19l-.005.003a.122.122 0 0 1-.064.017.121.121 0 0 1-.101-.049.213.213 0 0 0-.172-.09c-.08 0-.145.043-.194.13a.713.713 0 0 0-.072.348c0 .15.024.266.072.351.049.086.113.128.194.128a.215.215 0 0 0 .18-.098.129.129 0 0 1 .162-.044v.002zm.908.393c.073 0 .109-.031.109-.094a.224.224 0 0 0-.006-.05l-.292-1.216a.143.143 0 0 0-.046-.074.117.117 0 0 0-.08-.03H3.98a.115.115 0 0 0-.078.03.143.143 0 0 0-.046.074l-.289 1.212a.228.228 0 0 0-.008.058c0 .037.01.06.029.073.02.011.045.017.075.017h.044a.13.13 0 0 0 .078-.02c.02-.014.035-.04.046-.078l.032-.115a1.64 1.64 0 0 1 .012-.044.104.104 0 0 1 .033-.053.089.089 0 0 1 .057-.018h.132c.035 0 .059.01.07.028a.279.279 0 0 1 .03.087l.032.115c.011.038.027.064.046.077.02.014.046.021.08.021H4.4zm-.293-.692a.352.352 0 0 1 .008.062c0 .04-.022.061-.065.061h-.033c-.045 0-.067-.023-.067-.07a.25.25 0 0 1 .006-.056l.027-.15.031-.155a.036.036 0 0 1 .008-.015c.003-.004.006-.006.01-.006.009 0 .015.008.016.025l.03.15.029.154zm1.19.692a.104.104 0 0 0 .107-.104v-.05a.1.1 0 0 0-.03-.076.106.106 0 0 0-.077-.03h-.298a.102.102 0 0 1-.076-.03.105.105 0 0 1-.03-.076v-.994c0-.03-.01-.054-.031-.075a.101.101 0 0 0-.074-.03h-.065a.102.102 0 0 0-.074.03.1.1 0 0 0-.031.075v1.256a.1.1 0 0 0 .031.074c.021.02.046.03.074.03h.574zm.387 0c.03 0 .055-.01.076-.03a.1.1 0 0 0 .031-.074V10.13a.097.097 0 0 0-.031-.073.105.105 0 0 0-.076-.03h-.062a.102.102 0 0 0-.074.03.097.097 0 0 0-.031.073v1.258a.1.1 0 0 0 .031.074c.021.02.046.03.074.03h.062zm.514 0c.029 0 .054-.01.075-.03a.1.1 0 0 0 .032-.074v-.421c0-.03.01-.054.03-.075a.1.1 0 0 1 .074-.032h.216c.028 0 .052-.01.072-.03.02-.02.03-.044.03-.072v-.055a.102.102 0 0 0-.03-.073.097.097 0 0 0-.072-.031H6.41a.1.1 0 0 1-.075-.03.103.103 0 0 1-.03-.075v-.1c0-.03.01-.055.03-.075a.1.1 0 0 1 .075-.03h.296c.03 0 .054-.01.075-.03a.1.1 0 0 0 .032-.075v-.052a.1.1 0 0 0-.032-.074.103.103 0 0 0-.075-.03h-.57a.1.1 0 0 0-.073.03.1.1 0 0 0-.032.074v1.256c0 .029.01.054.03.074.02.02.046.03.075.03h.063zm.679-.363c.037.111.096.2.176.265.08.066.178.098.297.098a.457.457 0 0 0 .299-.098.576.576 0 0 0 .178-.265c.038-.11.057-.234.057-.37 0-.133-.019-.256-.057-.367a.583.583 0 0 0-.178-.266.453.453 0 0 0-.299-.099.45.45 0 0 0-.297.1.58.58 0 0 0-.176.265c-.038.111-.057.234-.057.368 0 .135.019.258.057.37zm.671-.018c-.05.086-.115.128-.198.128-.08 0-.146-.042-.194-.128a.717.717 0 0 1-.072-.351c0-.147.024-.263.072-.349.048-.086.113-.129.194-.129.083 0 .149.043.198.13.05.085.074.201.074.348a.7.7 0 0 1-.074.351zm1.361.201c.008.016.013.031.013.046a.086.086 0 0 1-.02.053l-.03.037c-.037.04-.073.061-.11.061a.078.078 0 0 1-.056-.025.641.641 0 0 1-.158-.196.977.977 0 0 1-.077-.195.087.087 0 0 0-.033-.054.102.102 0 0 0-.061-.018c-.074 0-.111.032-.111.095v.29a.097.097 0 0 1-.023.065c-.016.019-.04.028-.072.028h-.065a.122.122 0 0 1-.082-.029.083.083 0 0 1-.033-.063v-1.29a.08.08 0 0 1 .033-.063.124.124 0 0 1 .082-.027h.315a.42.42 0 0 1 .405.247.548.548 0 0 1-.11.613.085.085 0 0 0-.02.044.269.269 0 0 0 .016.083.626.626 0 0 0 .06.133.49.49 0 0 0 .103.124.158.158 0 0 1 .034.041zm-.365-.636a.282.282 0 0 0 .057-.174.239.239 0 0 0-.057-.159c-.037-.044-.093-.067-.167-.067a.117.117 0 0 0-.08.027.081.081 0 0 0-.031.063v.295c0 .032.01.055.028.07.019.013.046.02.083.02.074 0 .13-.025.167-.075zm1.216.798c.02.012.04.018.056.018h.061c.026 0 .05-.01.07-.032a.108.108 0 0 0 .03-.076v-1.246a.11.11 0 0 0-.03-.08.095.095 0 0 0-.07-.03h-.034a.108.108 0 0 0-.11.11v.682c0 .034-.004.05-.011.05-.004 0-.013-.013-.027-.04l-.371-.732a.119.119 0 0 0-.047-.051.14.14 0 0 0-.075-.02h-.06a.108.108 0 0 0-.112.111v1.246c0 .03.011.056.033.077.022.02.048.031.079.031h.023c.029 0 .054-.01.075-.031a.105.105 0 0 0 .031-.077v-.712c0-.01.002-.018.006-.023.003-.006.007-.009.011-.009.009 0 .016.007.023.021l.407.77a.1.1 0 0 0 .042.043zm.54.018c.03 0 .055-.01.076-.03a.1.1 0 0 0 .031-.074V10.13a.097.097 0 0 0-.031-.073.105.105 0 0 0-.076-.03h-.063a.102.102 0 0 0-.073.03.097.097 0 0 0-.031.073v1.258a.1.1 0 0 0 .031.074c.021.02.045.03.073.03h.063zm1.056 0c.073 0 .11-.031.11-.094a.224.224 0 0 0-.007-.05l-.291-1.216a.143.143 0 0 0-.046-.074.117.117 0 0 0-.08-.03h-.107a.115.115 0 0 0-.077.03.143.143 0 0 0-.047.074l-.289 1.212a.228.228 0 0 0-.008.058c0 .037.01.06.03.073.019.011.044.017.075.017h.044a.13.13 0 0 0 .077-.02c.02-.014.035-.04.046-.078l.032-.115a1.64 1.64 0 0 1 .012-.044.104.104 0 0 1 .033-.053.089.089 0 0 1 .057-.018h.132c.035 0 .059.01.07.028a.279.279 0 0 1 .031.087l.031.115c.012.038.027.064.046.077.02.014.047.021.08.021h.046zm-.293-.692a.352.352 0 0 1 .008.062c0 .04-.021.061-.065.061h-.033c-.045 0-.067-.023-.067-.07a.25.25 0 0 1 .006-.056l.027-.15.032-.155a.036.036 0 0 1 .007-.015c.003-.004.007-.006.01-.006.01 0 .015.008.016.025l.03.15.029.154zm1.741.512c.008.016.013.031.013.046a.086.086 0 0 1-.02.053l-.03.037c-.037.04-.073.061-.11.061a.078.078 0 0 1-.056-.025.641.641 0 0 1-.158-.196.977.977 0 0 1-.077-.195.087.087 0 0 0-.033-.054.102.102 0 0 0-.061-.018c-.074 0-.111.032-.111.095v.29a.097.097 0 0 1-.023.065c-.016.019-.04.028-.072.028h-.064a.122.122 0 0 1-.083-.029.083.083 0 0 1-.033-.063v-1.29a.08.08 0 0 1 .033-.063.124.124 0 0 1 .083-.027h.314a.42.42 0 0 1 .405.247.548.548 0 0 1-.11.613.085.085 0 0 0-.02.044.269.269 0 0 0 .016.083.626.626 0 0 0 .06.133.49.49 0 0 0 .103.124.158.158 0 0 1 .034.041zm-.365-.636a.282.282 0 0 0 .057-.174.239.239 0 0 0-.057-.159c-.037-.044-.093-.067-.167-.067a.117.117 0 0 0-.08.027.081.081 0 0 0-.031.063v.295c0 .032.01.055.028.07.019.013.046.02.083.02.074 0 .13-.025.167-.075zm1.161.816a.104.104 0 0 0 .105-.107v-.05a.102.102 0 0 0-.03-.073.1.1 0 0 0-.075-.031h-.3a.098.098 0 0 1-.07-.032.098.098 0 0 1-.032-.07v-.164c0-.03.01-.054.03-.074.02-.02.045-.03.073-.03h.18c.03 0 .054-.01.074-.031.02-.02.03-.044.03-.072V10.7a.102.102 0 0 0-.03-.073.1.1 0 0 0-.074-.032h-.18a.098.098 0 0 1-.072-.03.098.098 0 0 1-.031-.072v-.1c0-.029.01-.053.031-.075a.097.097 0 0 1 .072-.032h.3c.029 0 .053-.01.074-.03.02-.02.03-.043.03-.07v-.057a.099.099 0 0 0-.03-.073.101.101 0 0 0-.075-.03h-.568c-.03 0-.056.01-.076.03a.098.098 0 0 0-.03.073v1.256a.104.104 0 0 0 .106.106h.568zm.33-.027c.017.018.039.027.064.027h.086c.027 0 .049-.009.067-.027a.091.091 0 0 0 .027-.067v-.28c0-.027.01-.05.028-.068a.087.087 0 0 1 .064-.029.586.586 0 0 0 .299-.073.505.505 0 0 0 .259-.44.51.51 0 0 0-.06-.249.42.42 0 0 0-.175-.17.583.583 0 0 0-.279-.062h-.316a.089.089 0 0 0-.065.027.091.091 0 0 0-.027.067v1.277c0 .027.009.049.027.067zm.336-.705a.089.089 0 0 1-.064-.027.091.091 0 0 1-.028-.067v-.29c0-.026.01-.049.028-.067a.087.087 0 0 1 .064-.029h.013c.082 0 .148.019.198.056.05.037.074.095.074.175a.23.23 0 0 1-.077.179.28.28 0 0 1-.195.07h-.013zm1.291-.707a.088.088 0 0 0-.027.066v.877a.287.287 0 0 1-.045.175c-.03.04-.08.06-.152.06-.07 0-.12-.02-.15-.059a.27.27 0 0 1-.047-.17v-.883a.086.086 0 0 0-.03-.065.098.098 0 0 0-.068-.027h-.072a.095.095 0 0 0-.07.026.09.09 0 0 0-.026.066v.867c0 .169.042.295.127.38a.46.46 0 0 0 .34.126.45.45 0 0 0 .336-.126c.084-.085.125-.211.125-.38v-.867a.084.084 0 0 0-.03-.065.102.102 0 0 0-.07-.027h-.072a.096.096 0 0 0-.069.026zm.34 1.415a.085.085 0 0 0 .06.024h.336c.171 0 .3-.041.383-.124a.438.438 0 0 0 .126-.326v-.07a.282.282 0 0 0-.054-.165.36.36 0 0 0-.139-.112c-.003 0-.004-.002-.004-.006l.002-.003a.27.27 0 0 0 .11-.13.475.475 0 0 0 .037-.188c0-.1-.041-.182-.123-.246a.554.554 0 0 0-.347-.095h-.327a.085.085 0 0 0-.086.084v1.298a.08.08 0 0 0 .026.06zm.337-.882c-.036 0-.06-.006-.071-.017-.012-.01-.017-.034-.017-.069v-.128c0-.033.005-.056.016-.068.01-.011.034-.017.072-.017h.017c.08 0 .139.012.175.036a.111.111 0 0 1 .053.096.157.157 0 0 1-.052.118c-.035.033-.093.049-.174.049h-.02zm0 .647c-.034 0-.057-.006-.07-.018-.012-.012-.018-.035-.018-.068v-.234c0-.037.006-.06.019-.07.012-.011.035-.016.069-.016h.077c.067 0 .122.017.165.052a.17.17 0 0 1 .064.138v.025c0 .127-.076.19-.226.19h-.08zm1.397.26a.104.104 0 0 0 .107-.105v-.05a.1.1 0 0 0-.03-.076.106.106 0 0 0-.077-.03h-.297a.102.102 0 0 1-.077-.03.105.105 0 0 1-.03-.076v-.994c0-.03-.01-.054-.03-.075a.101.101 0 0 0-.075-.03h-.065a.102.102 0 0 0-.073.03.1.1 0 0 0-.031.075v1.256a.1.1 0 0 0 .031.074c.021.02.045.03.073.03h.574zm.388 0c.03 0 .055-.01.075-.031a.1.1 0 0 0 .032-.074V10.13a.097.097 0 0 0-.032-.073.105.105 0 0 0-.075-.03h-.063a.102.102 0 0 0-.073.03.097.097 0 0 0-.032.073v1.258a.1.1 0 0 0 .032.074c.02.02.045.03.073.03h.063zm1.143-.394h.001a.129.129 0 0 1 .075.117c0 .025-.007.05-.023.073a.457.457 0 0 1-.396.203.452.452 0 0 1-.297-.098.572.572 0 0 1-.176-.265 1.143 1.143 0 0 1-.057-.37c0-.133.02-.256.057-.367a.58.58 0 0 1 .176-.266.45.45 0 0 1 .297-.099c.16 0 .286.061.38.184a.128.128 0 0 1-.038.19l-.004.003a.122.122 0 0 1-.065.017.121.121 0 0 1-.1-.049.213.213 0 0 0-.173-.09c-.08 0-.145.043-.193.13a.713.713 0 0 0-.073.348c0 .15.024.266.073.351.048.086.112.128.193.128a.215.215 0 0 0 .18-.098.129.129 0 0 1 .162-.044l.001.002z" fill="#414B52" mask="url(#e)"/><path d="M6.572 9.039c-.854-.022-.872-.163-.027-.308 0 0 2.853-.565 4.908-.565 2.135 0 4.848.558 4.848.558.84.152.825.293-.03.316l-4.72.127-4.979-.128z" fill="#319400" mask="url(#e)"/><g mask="url(#e)" stroke="#391800" fill="#944200" stroke-linejoin="round"><use mask="url(#k)" xlink:href="#a"/></g><path d="M9.413 6.494s.318-.866.304-1.194c-.013-.311-.192-1.078-.303-.643-.11.435-.592.134-.592.134M12.62 6.605s1.03-.788 1.03-1.383" stroke="#391800" stroke-width=".5" stroke-linecap="round" mask="url(#e)"/><path fill="url(#h)" mask="url(#e)" d="M3.667 4.466l-1.232.89.467-1.445-1.228-.895 1.52-.002.473-1.444.472 1.444 1.52.002-1.228.895.467 1.446z"/><g mask="url(#e)" fill="#000"><use filter="url(#l)" xlink:href="#m"/></g></g></svg>