<svg width="24" height="18" viewBox="0 0 24 18" xmlns="http://www.w3.org/2000/svg" xmlns:xlink="http://www.w3.org/1999/xlink"><title>US</title><defs><filter x="-50%" y="-50%" width="200%" height="200%" filterUnits="objectBoundingBox" id="a"><feOffset dy=".5" in="SourceAlpha" result="shadowOffsetOuter1"/><feGaussianBlur stdDeviation=".5" in="shadowOffsetOuter1" result="shadowBlurOuter1"/><feColorMatrix values="0 0 0 0 0 0 0 0 0 0 0 0 0 0 0 0 0 0 0.16 0" in="shadowBlurOuter1" result="shadowMatrixOuter1"/><feMerge><feMergeNode in="shadowMatrixOuter1"/><feMergeNode in="SourceGraphic"/></feMerge></filter><rect id="b" width="22" height="15.7" rx="1.5"/><filter x="-50%" y="-50%" width="200%" height="200%" filterUnits="objectBoundingBox" id="c"><feOffset dy=".5" in="SourceAlpha" result="shadowOffsetOuter1"/><feGaussianBlur stdDeviation=".5" in="shadowOffsetOuter1" result="shadowBlurOuter1"/><feColorMatrix values="0 0 0 0 0 0 0 0 0 0 0 0 0 0 0 0 0 0 0.16 0" in="shadowBlurOuter1"/></filter><linearGradient x1="50%" y1="0%" x2="50%" y2="100%" id="d"><stop stop-color="#D02F44" offset="0%"/><stop stop-color="#B12537" offset="100%"/></linearGradient><linearGradient x1="50%" y1="0%" x2="50%" y2="100%" id="f"><stop stop-color="#46467F" offset="0%"/><stop stop-color="#3C3C6D" offset="100%"/></linearGradient><path d="M1.571 2.093a.524.524 0 1 1 0-1.047.524.524 0 0 1 0 1.047zm2.096 0a.524.524 0 1 1 0-1.047.524.524 0 0 1 0 1.047zm2.095 0a.524.524 0 1 1 0-1.047.524.524 0 0 1 0 1.047zm2.095 0a.524.524 0 1 1 0-1.047.524.524 0 0 1 0 1.047zM2.62 3.14a.524.524 0 1 1 0-1.047.524.524 0 0 1 0 1.047zm2.095 0a.524.524 0 1 1 0-1.047.524.524 0 0 1 0 1.047zm2.096 0a.524.524 0 1 1-.001-1.047.524.524 0 0 1 0 1.047zm1.047 1.047a.524.524 0 1 1 0-1.047.524.524 0 0 1 0 1.047zm-2.095 0a.524.524 0 1 1 0-1.047.524.524 0 0 1 0 1.047zm-2.095 0a.524.524 0 1 1 0-1.047.524.524 0 0 1 0 1.047zm-2.096 0a.524.524 0 1 1 0-1.047.524.524 0 0 1 0 1.047zM2.62 5.233a.524.524 0 1 1 0-1.047.524.524 0 0 1 0 1.047zm2.095 0a.524.524 0 1 1 0-1.047.524.524 0 0 1 0 1.047zm2.096 0a.524.524 0 1 1-.001-1.047.524.524 0 0 1 0 1.047zM7.857 6.28a.524.524 0 1 1 0-1.047.524.524 0 0 1 0 1.047zm-2.095 0a.524.524 0 1 1 0-1.047.524.524 0 0 1 0 1.047zm-2.095 0a.524.524 0 1 1 0-1.047.524.524 0 0 1 0 1.047zm-2.096 0a.524.524 0 1 1 0-1.047.524.524 0 0 1 0 1.047z" id="h"/><filter x="-50%" y="-50%" width="200%" height="200%" filterUnits="objectBoundingBox" id="g"><feOffset dy=".5" in="SourceAlpha" result="shadowOffsetOuter1"/><feColorMatrix values="0 0 0 0 0 0 0 0 0 0 0 0 0 0 0 0 0 0 0.06 0" in="shadowOffsetOuter1"/></filter><rect id="i" width="22" height="15.7" rx="1.5"/><filter x="-50%" y="-50%" width="200%" height="200%" filterUnits="objectBoundingBox" id="j"><feOffset dy="-.5" in="SourceAlpha" result="shadowOffsetInner1"/><feComposite in="shadowOffsetInner1" in2="SourceAlpha" operator="arithmetic" k2="-1" k3="1" result="shadowInnerInner1"/><feColorMatrix values="0 0 0 0 0 0 0 0 0 0 0 0 0 0 0 0 0 0 0.04 0" in="shadowInnerInner1" result="shadowMatrixInner1"/><feOffset dy=".5" in="SourceAlpha" result="shadowOffsetInner2"/><feComposite in="shadowOffsetInner2" in2="SourceAlpha" operator="arithmetic" k2="-1" k3="1" result="shadowInnerInner2"/><feColorMatrix values="0 0 0 0 1 0 0 0 0 1 0 0 0 0 1 0 0 0 0.12 0" in="shadowInnerInner2" result="shadowMatrixInner2"/><feMerge><feMergeNode in="shadowMatrixInner1"/><feMergeNode in="shadowMatrixInner2"/></feMerge></filter></defs><g filter="url(#a)" transform="translate(1 1)" fill="none" fill-rule="evenodd"><mask id="e" fill="#fff"><use xlink:href="#b"/></mask><use fill="#000" filter="url(#c)" xlink:href="#b"/><use fill="#fff" xlink:href="#b"/><path d="M0 0h22v1.047H0V0zm0 2.093h22V3.14H0V2.093zm0 2.094h22v1.046H0V4.187zM0 6.28h22v1.047H0V6.28zm0 2.093h22V9.42H0V8.373zm0 2.094h22v1.046H0v-1.046zm0 2.093h22v1.047H0V12.56zm0 2.093h22V15.7H0v-1.047z" fill="url(#d)" mask="url(#e)"/><path fill="url(#f)" mask="url(#e)" d="M0 0h9.429v7.327H0z"/><g mask="url(#e)"><use fill="#000" filter="url(#g)" xlink:href="#h"/><use fill="#fff" xlink:href="#h"/></g><g fill="#000"><use filter="url(#j)" xlink:href="#i"/></g></g></svg>