<svg width="24" height="18" viewBox="0 0 24 18" xmlns="http://www.w3.org/2000/svg" xmlns:xlink="http://www.w3.org/1999/xlink"><title>VI</title><defs><filter x="-50%" y="-50%" width="200%" height="200%" filterUnits="objectBoundingBox" id="b"><feOffset dy=".5" in="SourceAlpha" result="shadowOffsetOuter1"/><feGaussianBlur stdDeviation=".5" in="shadowOffsetOuter1" result="shadowBlurOuter1"/><feColorMatrix values="0 0 0 0 0 0 0 0 0 0 0 0 0 0 0 0 0 0 0.16 0" in="shadowBlurOuter1" result="shadowMatrixOuter1"/><feMerge><feMergeNode in="shadowMatrixOuter1"/><feMergeNode in="SourceGraphic"/></feMerge></filter><rect id="d" width="22" height="15.7" rx="1.5"/><filter x="-50%" y="-50%" width="200%" height="200%" filterUnits="objectBoundingBox" id="c"><feOffset dy=".5" in="SourceAlpha" result="shadowOffsetOuter1"/><feGaussianBlur stdDeviation=".5" in="shadowOffsetOuter1" result="shadowBlurOuter1"/><feColorMatrix values="0 0 0 0 0 0 0 0 0 0 0 0 0 0 0 0 0 0 0.16 0" in="shadowBlurOuter1"/></filter><rect id="e" width="22" height="15.7" rx="1.5"/><filter x="-50%" y="-50%" width="200%" height="200%" filterUnits="objectBoundingBox" id="f"><feOffset dy="-.5" in="SourceAlpha" result="shadowOffsetInner1"/><feComposite in="shadowOffsetInner1" in2="SourceAlpha" operator="arithmetic" k2="-1" k3="1" result="shadowInnerInner1"/><feColorMatrix values="0 0 0 0 0 0 0 0 0 0 0 0 0 0 0 0 0 0 0.04 0" in="shadowInnerInner1" result="shadowMatrixInner1"/><feOffset dy=".5" in="SourceAlpha" result="shadowOffsetInner2"/><feComposite in="shadowOffsetInner2" in2="SourceAlpha" operator="arithmetic" k2="-1" k3="1" result="shadowInnerInner2"/><feColorMatrix values="0 0 0 0 1 0 0 0 0 1 0 0 0 0 1 0 0 0 0.12 0" in="shadowInnerInner2" result="shadowMatrixInner2"/><feMerge><feMergeNode in="shadowMatrixInner1"/><feMergeNode in="shadowMatrixInner2"/></feMerge></filter><linearGradient x1="50%" y1="0%" x2="50%" y2="100%" id="h"><stop stop-color="#F9CE61" offset="0%"/><stop stop-color="#F3C44B" offset="100%"/></linearGradient><path d="M15.714 6.803s.038.696-.841 1.047-1.778 0-1.778 0 .647.38 1.048 1.047c.4.667.19 1.029.524 1.361.332.333.933.106 1.171.391.238.285.22.611-.124.864-.343.254-.452.135-.841-.124-.389-.259-.206-.518-.206-.518s-.67-.346-1.182-.496c-.39-.727-.914-.955-.914-.955v.523s1.048.537 1.048 1.047c0 .223-.484.96-1.048 1.483a3.737 3.737 0 0 1-1.571.86V5.758l3.143-.524S12.696 4.096 15.976 3.3l4.012-.973c.533-.129.732.148.433.614 0 0-.047.136-.516.722-.47.586-.573.691-1.048 1.047-.475.356-.475.094-1.047.523-.573.43-.594.82-1.048 1.047-.454.227-1.048 0-1.048 0v.523zm-9.429 0V6.28s-.593.227-1.047 0c-.454-.227-.475-.618-1.048-1.047-.572-.429-.572-.167-1.047-.523-.476-.356-.579-.46-1.048-1.047-.47-.586-.516-.722-.516-.722-.3-.466-.1-.743.433-.614l4.012.973c3.28.796 1.833 1.933 1.833 1.933L11 5.757v7.577s-.846-.186-1.572-.86c-.563-.525-1.047-1.261-1.047-1.484 0-.51 1.047-1.047 1.047-1.047V9.42s-.523.228-.913.955c-.512.15-1.182.496-1.182.496s.183.26-.206.518c-.39.26-.498.378-.842.124-.343-.253-.361-.579-.124-.864.238-.285.84-.058 1.172-.39.333-.333.123-.695.524-1.362A3.354 3.354 0 0 1 8.905 7.85s-.9.351-1.778 0c-.879-.351-.842-1.047-.842-1.047zM9.69 4.947c-.022-.146-.334-.262-.195-.298.26-.067.39-.15.517-.369.056-.097-.196-.033-.114-.128.431-.5.521-.888.245-1.018-.598-.282-.672.446-.648.146.017-.214.039-.385.066-.472.12-.382.73-.36.768-.434.154-.307.33-.336.672-.28.342.054.498.218.634.49.103.206.073.526.186.832.073.197.18.307.259.505.046.115-.302-.113-.259 0 .119.307.416.294.593.572.073.114-.268-.02-.246.156.016.119.404.584.404.584H9.43s.279-.16.26-.286z" id="a"/><mask id="i" x="0" y="0" width="19.087" height="11.263" fill="#fff"><use xlink:href="#a"/></mask><path d="M0 2.617V0s.522.512 1.218.512S2.62 0 2.62 0s.656.512 1.31.512C4.585.512 5.24 0 5.24 0v2.617c0 2.616-2.62 3.663-2.62 3.663S0 5.233 0 2.617z" id="j"/><filter x="-50%" y="-50%" width="200%" height="200%" filterUnits="objectBoundingBox" id="k"><feOffset dy=".5" in="SourceAlpha" result="shadowOffsetOuter1"/><feColorMatrix values="0 0 0 0 0 0 0 0 0 0 0 0 0 0 0 0 0 0 0.06 0" in="shadowOffsetOuter1"/></filter><linearGradient x1="50%" y1="0%" x2="50%" y2="100%" id="l"><stop stop-color="#1D347F" offset="0%"/><stop stop-color="#162966" offset="100%"/></linearGradient><linearGradient x1="50%" y1="0%" x2="50%" y2="100%" id="p"><stop stop-color="#BD1442" offset="0%"/><stop stop-color="#A30B35" offset="100%"/></linearGradient><path d="M0 2.093h1.048V6.28H0V2.093zm2.095 0h1.048V6.28H2.095V2.093zm2.095 0h1.048V6.28H4.19V2.093z" id="o"/><filter x="-50%" y="-50%" width="200%" height="200%" filterUnits="objectBoundingBox" id="n"><feMorphology radius=".25" operator="dilate" in="SourceAlpha" result="shadowSpreadOuter1"/><feOffset in="shadowSpreadOuter1" result="shadowOffsetOuter1"/><feColorMatrix values="0 0 0 0 0 0 0 0 0 0 0 0 0 0 0 0 0 0 0.06 0" in="shadowOffsetOuter1"/></filter></defs><g filter="url(#b)" transform="translate(1 1)" fill="none" fill-rule="evenodd"><use fill="#000" filter="url(#c)" xlink:href="#d"/><use fill="#fff" xlink:href="#d"/><mask id="g" fill="#fff"><use xlink:href="#e"/></mask><use filter="url(#f)" xlink:href="#e" fill="#000"/><path d="M17.36 6.93l-3.217 6.153m3.645-4.746l-3.645 4.746m2.049-5.233l-2.05 5.233" stroke="#1583C4" stroke-width=".5" stroke-linecap="round" mask="url(#g)"/><path d="M4.714 6.803S5.251 8.57 5.762 9.42c.537.894 2.095 2.617 2.095 2.617" stroke="#409347" stroke-width=".5" stroke-linecap="round" mask="url(#g)"/><path d="M20.429 6.803V9.42M1.571 6.803L2.62 9.42l1.048-2.617" stroke="#1583C4" stroke-linecap="round" stroke-linejoin="round" mask="url(#g)"/><g mask="url(#g)" stroke="#000" stroke-opacity=".08" fill="url(#h)"><use mask="url(#i)" xlink:href="#a"/></g><g mask="url(#g)"><g transform="translate(8.381 4.187)"><mask id="m" fill="#fff"><use xlink:href="#j"/></mask><use fill="#000" filter="url(#k)" xlink:href="#j"/><use fill="#fff" xlink:href="#j"/><path fill="url(#l)" mask="url(#m)" d="M0 0h5.238v2.093H0z"/><g mask="url(#m)"><use fill="#000" filter="url(#n)" xlink:href="#o"/><use fill="url(#p)" xlink:href="#o"/></g></g></g></g></svg>