<svg width="24" height="18" viewBox="0 0 24 18" xmlns="http://www.w3.org/2000/svg" xmlns:xlink="http://www.w3.org/1999/xlink"><title>WW-ASI</title><defs><filter x="-50%" y="-50%" width="200%" height="200%" filterUnits="objectBoundingBox" id="a"><feOffset dy=".5" in="SourceAlpha" result="shadowOffsetOuter1"/><feGaussianBlur stdDeviation=".5" in="shadowOffsetOuter1" result="shadowBlurOuter1"/><feColorMatrix values="0 0 0 0 0 0 0 0 0 0 0 0 0 0 0 0 0 0 0.16 0" in="shadowBlurOuter1" result="shadowMatrixOuter1"/><feMerge><feMergeNode in="shadowMatrixOuter1"/><feMergeNode in="SourceGraphic"/></feMerge></filter><rect id="b" width="22" height="15.7" rx="1.5"/><filter x="-50%" y="-50%" width="200%" height="200%" filterUnits="objectBoundingBox" id="c"><feOffset dy=".5" in="SourceAlpha" result="shadowOffsetOuter1"/><feGaussianBlur stdDeviation=".5" in="shadowOffsetOuter1" result="shadowBlurOuter1"/><feColorMatrix values="0 0 0 0 0 0 0 0 0 0 0 0 0 0 0 0 0 0 0.16 0" in="shadowBlurOuter1"/></filter><linearGradient x1="50%" y1="0%" x2="50%" y2="100%" id="d"><stop stop-color="#19BFBF" offset="0%"/><stop stop-color="#10ACAC" offset="100%"/></linearGradient><path d="M4.415 6.915a.247.247 0 0 1-.113-.334l.301-.602a.686.686 0 0 0 .03-.468l-.36-1.079c-.046-.136.014-.197.14-.134l.603.301a.792.792 0 0 0 .462.051l1.615-.403.48-.12 1.615-.404a1.09 1.09 0 0 0 .42-.24l1.212-1.21a.7.7 0 0 1 .422-.18h2.135c.134 0 .242.112.242.243v.561a.692.692 0 0 1-.177.42l-.17.17c-.097.097-.056.187.07.199l5.268.478c.136.013.199.12.136.245l-.302.602a.428.428 0 0 1-.356.222h-1.08a.7.7 0 0 0-.429.183l-.682.682c-.101.1-.08.216.063.264l1.08.36a.696.696 0 0 1 .357.303l.301.603a.246.246 0 0 1-.11.333l-.604.301a.246.246 0 0 0-.111.333l.302.603c.061.123-.01.222-.139.222h-.024a.437.437 0 0 1-.361-.222l-.302-.603c-.061-.122-.193-.14-.293-.04l-.683.683c-.1.1-.1.264-.005.36l.169.168c.098.098.177.29.177.42v.561a.43.43 0 0 1-.222.354l-.603.301a1.25 1.25 0 0 1-.465.111h-.562a.693.693 0 0 0-.42.178l-.17.168a.253.253 0 0 0 0 .355l.17.169c.098.098.177.289.177.42v.56c0 .135-.097.195-.222.133l-.603-.302a1.873 1.873 0 0 1-.405-.293l-.683-.682c-.1-.1-.23-.279-.293-.404l-.302-.603c-.061-.123-.156-.11-.2.001l-.87 2.17a.403.403 0 0 1-.338.224h-.025a.521.521 0 0 1-.386-.206l-.774-1.16a.96.96 0 0 1-.137-.447v-.561a.335.335 0 0 0-.24-.303l-1.615-.403c-.133-.033-.24.061-.24.19v.024c0 .137.096.297.222.36l.603.301c.123.062.14.193.045.289l-.17.168-.359.36-.683.682c-.1.1-.279.134-.404.071l-.604-.301a.686.686 0 0 1-.304-.356l-.36-1.08a1.94 1.94 0 0 1-.082-.494v-.025a.7.7 0 0 1 .178-.427l.169-.168c.098-.098.074-.212-.068-.26l-1.08-.36a.375.375 0 0 1-.246-.324v-.56a.24.24 0 0 1 .245-.244h1.08c.136 0 .343.049.468.111l.604.302c.122.061.27.014.333-.111l.302-.603a.25.25 0 0 0-.114-.334l-1.646-.823zM11 13.607a.524.524 0 1 1 0-1.047.524.524 0 0 1 0 1.047zM7.857 8.373a.524.524 0 1 0 0-1.047.524.524 0 0 0 0 1.047zm9.953 2.094v-.804c0-.134.112-.243.243-.243h.561c.134 0 .146.048.021.111l-.825.412.523.524-.412.824a.44.44 0 0 1-.354.222h-.562c-.134 0-.16-.082-.06-.182l.865-.864z" id="g"/><filter x="-50%" y="-50%" width="200%" height="200%" filterUnits="objectBoundingBox" id="f"><feOffset dy=".5" in="SourceAlpha" result="shadowOffsetOuter1"/><feColorMatrix values="0 0 0 0 0 0 0 0 0 0 0 0 0 0 0 0 0 0 0.06 0" in="shadowOffsetOuter1"/></filter><rect id="i" width="22" height="15.7" rx="1.5"/><filter x="-50%" y="-50%" width="200%" height="200%" filterUnits="objectBoundingBox" id="h"><feOffset dy="-.5" in="SourceAlpha" result="shadowOffsetInner1"/><feComposite in="shadowOffsetInner1" in2="SourceAlpha" operator="arithmetic" k2="-1" k3="1" result="shadowInnerInner1"/><feColorMatrix values="0 0 0 0 0 0 0 0 0 0 0 0 0 0 0 0 0 0 0.04 0" in="shadowInnerInner1" result="shadowMatrixInner1"/><feOffset dy=".5" in="SourceAlpha" result="shadowOffsetInner2"/><feComposite in="shadowOffsetInner2" in2="SourceAlpha" operator="arithmetic" k2="-1" k3="1" result="shadowInnerInner2"/><feColorMatrix values="0 0 0 0 1 0 0 0 0 1 0 0 0 0 1 0 0 0 0.12 0" in="shadowInnerInner2" result="shadowMatrixInner2"/><feMerge><feMergeNode in="shadowMatrixInner1"/><feMergeNode in="shadowMatrixInner2"/></feMerge></filter></defs><g filter="url(#a)" transform="translate(1 1)" fill="none" fill-rule="evenodd"><mask id="e" fill="#fff"><use xlink:href="#b"/></mask><use filter="url(#c)" xlink:href="#b" fill="#000"/><path fill="url(#d)" mask="url(#e)" d="M0 0h22v15.7H0z"/><g mask="url(#e)"><use fill="#000" filter="url(#f)" xlink:href="#g"/><use fill="#fff" xlink:href="#g"/></g><g mask="url(#e)" fill="#000"><use filter="url(#h)" xlink:href="#i"/></g></g></svg>