<svg width="24" height="18" viewBox="0 0 24 18" xmlns="http://www.w3.org/2000/svg" xmlns:xlink="http://www.w3.org/1999/xlink"><title>YT</title><defs><filter x="-50%" y="-50%" width="200%" height="200%" filterUnits="objectBoundingBox" id="b"><feOffset dy=".5" in="SourceAlpha" result="shadowOffsetOuter1"/><feGaussianBlur stdDeviation=".5" in="shadowOffsetOuter1" result="shadowBlurOuter1"/><feColorMatrix values="0 0 0 0 0 0 0 0 0 0 0 0 0 0 0 0 0 0 0.16 0" in="shadowBlurOuter1" result="shadowMatrixOuter1"/><feMerge><feMergeNode in="shadowMatrixOuter1"/><feMergeNode in="SourceGraphic"/></feMerge></filter><rect id="c" width="22" height="15.7" rx="1.5"/><filter x="-50%" y="-50%" width="200%" height="200%" filterUnits="objectBoundingBox" id="d"><feOffset dy=".5" in="SourceAlpha" result="shadowOffsetOuter1"/><feGaussianBlur stdDeviation=".5" in="shadowOffsetOuter1" result="shadowBlurOuter1"/><feColorMatrix values="0 0 0 0 0 0 0 0 0 0 0 0 0 0 0 0 0 0 0.16 0" in="shadowBlurOuter1"/></filter><rect id="e" width="22" height="15.7" rx="1.5"/><filter x="-50%" y="-50%" width="200%" height="200%" filterUnits="objectBoundingBox" id="f"><feOffset dy="-.5" in="SourceAlpha" result="shadowOffsetInner1"/><feComposite in="shadowOffsetInner1" in2="SourceAlpha" operator="arithmetic" k2="-1" k3="1" result="shadowInnerInner1"/><feColorMatrix values="0 0 0 0 0 0 0 0 0 0 0 0 0 0 0 0 0 0 0.04 0" in="shadowInnerInner1" result="shadowMatrixInner1"/><feOffset dy=".5" in="SourceAlpha" result="shadowOffsetInner2"/><feComposite in="shadowOffsetInner2" in2="SourceAlpha" operator="arithmetic" k2="-1" k3="1" result="shadowInnerInner2"/><feColorMatrix values="0 0 0 0 1 0 0 0 0 1 0 0 0 0 1 0 0 0 0.12 0" in="shadowInnerInner2" result="shadowMatrixInner2"/><feMerge><feMergeNode in="shadowMatrixInner1"/><feMergeNode in="shadowMatrixInner2"/></feMerge></filter><path d="M0 .493C0 .22.225 0 .502 0h4.234a.5.5 0 0 1 .502.493v5.294a.542.542 0 0 1-.502.523s-1.593-.03-2.117.954C2.095 6.28.502 6.31.502 6.31A.537.537 0 0 1 0 5.787V.493z" id="a"/><mask id="h" x="0" y="0" width="5.238" height="7.264" fill="#fff"><use xlink:href="#a"/></mask><mask id="i" x="0" y="0" width="5.238" height="7.264" fill="#fff"><use xlink:href="#a"/></mask><linearGradient x1="50%" y1="0%" x2="50%" y2="100%" id="m"><stop stop-color="#1B2BA9" offset="0%"/><stop stop-color="#132294" offset="100%"/></linearGradient><path id="l" d="M0 0h5.238v3.14H0z"/><filter x="-50%" y="-50%" width="200%" height="200%" filterUnits="objectBoundingBox" id="k"><feMorphology radius=".25" operator="dilate" in="SourceAlpha" result="shadowSpreadOuter1"/><feOffset in="shadowSpreadOuter1" result="shadowOffsetOuter1"/><feColorMatrix values="0 0 0 0 0 0 0 0 0 0 0 0 0 0 0 0 0 0 0.06 0" in="shadowOffsetOuter1"/></filter><linearGradient x1="50%" y1="0%" x2="50%" y2="100%" id="p"><stop stop-color="#E7402C" offset="0%"/><stop stop-color="#D1321F" offset="100%"/></linearGradient><path id="o" d="M0 3.14h5.238v4.187H0z"/><filter x="-50%" y="-50%" width="200%" height="200%" filterUnits="objectBoundingBox" id="n"><feMorphology radius=".25" operator="dilate" in="SourceAlpha" result="shadowSpreadOuter1"/><feOffset in="shadowSpreadOuter1" result="shadowOffsetOuter1"/><feColorMatrix values="0 0 0 0 0 0 0 0 0 0 0 0 0 0 0 0 0 0 0.06 0" in="shadowOffsetOuter1"/></filter><linearGradient x1="50%" y1="0%" x2="50%" y2="100%" id="q"><stop stop-color="#D0D0D0" offset="0%"/><stop stop-color="#C5C5C5" offset="100%"/></linearGradient><linearGradient x1="50%" y1="0%" x2="50%" y2="100%" id="r"><stop stop-color="#262626" offset="0%"/><stop stop-color="#0C0C0C" offset="100%"/></linearGradient><path d="M10.093 5.233a1.047 1.047 0 1 0 1.815 0 1.047 1.047 0 0 1-1.815 0z" id="t"/><filter x="-50%" y="-50%" width="200%" height="200%" filterUnits="objectBoundingBox" id="s"><feOffset dy=".5" in="SourceAlpha" result="shadowOffsetOuter1"/><feColorMatrix values="0 0 0 0 0 0 0 0 0 0 0 0 0 0 0 0 0 0 0.06 0" in="shadowOffsetOuter1"/></filter><linearGradient x1="50%" y1="0%" x2="50%" y2="100%" id="w"><stop stop-color="#F8E04B" offset="0%"/><stop stop-color="#EAD135" offset="100%"/></linearGradient><path d="M9.952 9.42a.524.524 0 1 1 0-1.047.524.524 0 0 1 0 1.047zm2.096 0a.524.524 0 1 1 0-1.047.524.524 0 0 1 0 1.047z" id="v"/><filter x="-50%" y="-50%" width="200%" height="200%" filterUnits="objectBoundingBox" id="u"><feOffset dy=".5" in="SourceAlpha" result="shadowOffsetOuter1"/><feColorMatrix values="0 0 0 0 0 0 0 0 0 0 0 0 0 0 0 0 0 0 0.06 0" in="shadowOffsetOuter1"/></filter></defs><g filter="url(#b)" transform="translate(1 1)" fill="none" fill-rule="evenodd"><use fill="#000" filter="url(#d)" xlink:href="#c"/><use fill="#fff" xlink:href="#c"/><mask id="g" fill="#fff"><use xlink:href="#e"/></mask><use filter="url(#f)" xlink:href="#e" fill="#000"/><g mask="url(#g)"><g transform="translate(8.381 4.187)"><mask id="j" fill="#fff"><use xlink:href="#a"/></mask><g stroke="#979797" mask="url(#h)" stroke-width="2" fill="#D8D8D8"><use mask="url(#i)" xlink:href="#a"/></g><g mask="url(#j)"><use fill="#000" filter="url(#k)" xlink:href="#l"/><use fill="url(#m)" xlink:href="#l"/></g><g mask="url(#j)"><use fill="#000" filter="url(#n)" xlink:href="#o"/><use fill="url(#p)" xlink:href="#o"/></g></g></g><g mask="url(#g)"><g transform="translate(14.667 3.14)"><path d="M1.088 1.806v-.485l.483-.274s-.476-.582-.24-.582c.287 0 1.497.383 1.812.582.315.199.475.438.52.89.044.45-.332 1.026-.332 1.026l-.188.438.825-.186s.134.864-.474 1.495c-.607.63-1.46.512-1.46.512l-.172-.512s-.557.216-.884.706c-.327.49-.42 1.335.11 1.858.53.522 1.405.477 1.822-.257 0 0 .168-.65-.218-.954-.385-.306-.647.325-.658.29-.075-.22-.172-.596.448-.596s.938.666.85 1.178c-.09.512-.269.998-1.47 1.134C.661 8.205.352 6.684.352 6.684s-.306-1.42 0-2.444c.306-1.025.76-1.05 1.682-1.613.922-.563-.557-.191-.557-.191s-.702.527-.922.335c-.22-.192.533-.965.533-.965z" fill="url(#q)"/><ellipse fill-opacity=".3" fill="url(#r)" cx="1.833" cy="1.832" rx=".262" ry=".262"/></g></g><g mask="url(#g)"><g transform="matrix(-1 0 0 1 7.333 3.14)"><path d="M1.088 1.806v-.485l.483-.274s-.476-.582-.24-.582c.287 0 1.497.383 1.812.582.315.199.475.438.52.89.044.45-.332 1.026-.332 1.026l-.188.438.825-.186s.134.864-.474 1.495c-.607.63-1.46.512-1.46.512l-.172-.512s-.557.216-.884.706c-.327.49-.42 1.335.11 1.858.53.522 1.405.477 1.822-.257 0 0 .168-.65-.218-.954-.385-.306-.647.325-.658.29-.075-.22-.172-.596.448-.596s.938.666.85 1.178c-.09.512-.269.998-1.47 1.134C.661 8.205.352 6.684.352 6.684s-.306-1.42 0-2.444c.306-1.025.76-1.05 1.682-1.613.922-.563-.557-.191-.557-.191s-.702.527-.922.335c-.22-.192.533-.965.533-.965z" fill="url(#q)"/><ellipse fill-opacity=".3" fill="url(#r)" cx="1.833" cy="1.832" rx=".262" ry=".262"/></g></g><g><use fill="#000" filter="url(#s)" xlink:href="#t"/><use fill="#fff" xlink:href="#t"/></g><g><use fill="#000" filter="url(#u)" xlink:href="#v"/><use fill="url(#w)" xlink:href="#v"/></g></g></svg>