<svg width="24" height="18" viewBox="0 0 24 18" xmlns="http://www.w3.org/2000/svg" xmlns:xlink="http://www.w3.org/1999/xlink"><title>AD</title><defs><filter x="-50%" y="-50%" width="200%" height="200%" filterUnits="objectBoundingBox" id="b"><feOffset dy=".5" in="SourceAlpha" result="shadowOffsetOuter1"/><feGaussianBlur stdDeviation=".5" in="shadowOffsetOuter1" result="shadowBlurOuter1"/><feColorMatrix values="0 0 0 0 0 0 0 0 0 0 0 0 0 0 0 0 0 0 0.16 0" in="shadowBlurOuter1" result="shadowMatrixOuter1"/><feMerge><feMergeNode in="shadowMatrixOuter1"/><feMergeNode in="SourceGraphic"/></feMerge></filter><rect id="c" width="22" height="15.7" rx="1.5"/><filter x="-50%" y="-50%" width="200%" height="200%" filterUnits="objectBoundingBox" id="d"><feOffset dy=".5" in="SourceAlpha" result="shadowOffsetOuter1"/><feGaussianBlur stdDeviation=".5" in="shadowOffsetOuter1" result="shadowBlurOuter1"/><feColorMatrix values="0 0 0 0 0 0 0 0 0 0 0 0 0 0 0 0 0 0 0.16 0" in="shadowBlurOuter1"/></filter><linearGradient x1="50%" y1="0%" x2="50%" y2="100%" id="e"><stop stop-color="#1437D2" offset="0%"/><stop stop-color="#0522A5" offset="100%"/></linearGradient><linearGradient x1="50%" y1="0%" x2="50%" y2="100%" id="g"><stop stop-color="#EA3058" offset="0%"/><stop stop-color="#CE173E" offset="100%"/></linearGradient><linearGradient x1="50%" y1="0%" x2="50%" y2="100%" id="j"><stop stop-color="#FFCF3C" offset="0%"/><stop stop-color="#FECB2F" offset="100%"/></linearGradient><path id="i" d="M7.333 0h7.333v15.7H7.333z"/><filter x="-50%" y="-50%" width="200%" height="200%" filterUnits="objectBoundingBox" id="h"><feMorphology radius=".25" operator="dilate" in="SourceAlpha" result="shadowSpreadOuter1"/><feOffset in="shadowSpreadOuter1" result="shadowOffsetOuter1"/><feColorMatrix values="0 0 0 0 0 0 0 0 0 0 0 0 0 0 0 0 0 0 0.06 0" in="shadowOffsetOuter1"/></filter><path d="M9.47 6.77a.448.448 0 0 1 .45-.49h2.16c.272 0 .473.226.45.49l-.138 1.656c-.045.55-.539.994-1.088.994h-.608a1.1 1.1 0 0 1-1.088-.994l-.139-1.655z" id="a"/><mask id="k" x="0" y="0" width="3.06" height="3.14" fill="#fff"><use xlink:href="#a"/></mask><rect id="m" width="22" height="15.7" rx="1.5"/><filter x="-50%" y="-50%" width="200%" height="200%" filterUnits="objectBoundingBox" id="l"><feOffset dy="-.5" in="SourceAlpha" result="shadowOffsetInner1"/><feComposite in="shadowOffsetInner1" in2="SourceAlpha" operator="arithmetic" k2="-1" k3="1" result="shadowInnerInner1"/><feColorMatrix values="0 0 0 0 0 0 0 0 0 0 0 0 0 0 0 0 0 0 0.04 0" in="shadowInnerInner1" result="shadowMatrixInner1"/><feOffset dy=".5" in="SourceAlpha" result="shadowOffsetInner2"/><feComposite in="shadowOffsetInner2" in2="SourceAlpha" operator="arithmetic" k2="-1" k3="1" result="shadowInnerInner2"/><feColorMatrix values="0 0 0 0 1 0 0 0 0 1 0 0 0 0 1 0 0 0 0.12 0" in="shadowInnerInner2" result="shadowMatrixInner2"/><feMerge><feMergeNode in="shadowMatrixInner1"/><feMergeNode in="shadowMatrixInner2"/></feMerge></filter></defs><g filter="url(#b)" transform="translate(1 1)" fill="none" fill-rule="evenodd"><mask id="f" fill="#fff"><use xlink:href="#c"/></mask><use fill="#000" filter="url(#d)" xlink:href="#c"/><path fill="url(#e)" mask="url(#f)" d="M0 0h22v15.7H0z"/><path fill="url(#g)" mask="url(#f)" d="M10.476 0H22v15.7H10.476z"/><g mask="url(#f)"><use fill="#000" filter="url(#h)" xlink:href="#i"/><use fill="url(#j)" xlink:href="#i"/></g><path fill="#FFEDB1" mask="url(#f)" d="M9.952 6.803H11v.524H9.952z"/><g mask="url(#f)" stroke="#D32E28"><use mask="url(#k)" xlink:href="#a"/></g><path fill="#D32E28" mask="url(#f)" d="M9.952 7.327h2.096v.523H9.952z"/><g mask="url(#f)" fill="#000"><use filter="url(#l)" xlink:href="#m"/></g></g></svg>