<svg width="24" height="18" viewBox="0 0 24 18" xmlns="http://www.w3.org/2000/svg" xmlns:xlink="http://www.w3.org/1999/xlink"><title>BB</title><defs><filter x="-50%" y="-50%" width="200%" height="200%" filterUnits="objectBoundingBox" id="a"><feOffset dy=".5" in="SourceAlpha" result="shadowOffsetOuter1"/><feGaussianBlur stdDeviation=".5" in="shadowOffsetOuter1" result="shadowBlurOuter1"/><feColorMatrix values="0 0 0 0 0 0 0 0 0 0 0 0 0 0 0 0 0 0 0.16 0" in="shadowBlurOuter1" result="shadowMatrixOuter1"/><feMerge><feMergeNode in="shadowMatrixOuter1"/><feMergeNode in="SourceGraphic"/></feMerge></filter><rect id="b" width="22" height="15.7" rx="1.5"/><filter x="-50%" y="-50%" width="200%" height="200%" filterUnits="objectBoundingBox" id="c"><feOffset dy=".5" in="SourceAlpha" result="shadowOffsetOuter1"/><feGaussianBlur stdDeviation=".5" in="shadowOffsetOuter1" result="shadowBlurOuter1"/><feColorMatrix values="0 0 0 0 0 0 0 0 0 0 0 0 0 0 0 0 0 0 0.16 0" in="shadowBlurOuter1"/></filter><linearGradient x1="50%" y1="0%" x2="50%" y2="100%" id="d"><stop stop-color="#1031C7" offset="0%"/><stop stop-color="#0522A5" offset="100%"/></linearGradient><linearGradient x1="50%" y1="0%" x2="50%" y2="100%" id="f"><stop stop-color="#08369D" offset="0%"/><stop stop-color="#042A7D" offset="100%"/></linearGradient><linearGradient x1="50%" y1="0%" x2="50%" y2="100%" id="i"><stop stop-color="#FFCC50" offset="0%"/><stop stop-color="#FFC63C" offset="100%"/></linearGradient><path id="h" d="M7.333 0h7.333v15.7H7.333z"/><filter x="-50%" y="-50%" width="200%" height="200%" filterUnits="objectBoundingBox" id="g"><feMorphology radius=".25" operator="dilate" in="SourceAlpha" result="shadowSpreadOuter1"/><feOffset in="shadowSpreadOuter1" result="shadowOffsetOuter1"/><feColorMatrix values="0 0 0 0 0 0 0 0 0 0 0 0 0 0 0 0 0 0 0.06 0" in="shadowOffsetOuter1"/></filter><linearGradient x1="50%" y1="0%" x2="50%" y2="100%" id="j"><stop stop-color="#262626" offset="0%"/><stop stop-color="#0C0C0C" offset="100%"/></linearGradient><rect id="l" width="22" height="15.7" rx="1.5"/><filter x="-50%" y="-50%" width="200%" height="200%" filterUnits="objectBoundingBox" id="k"><feOffset dy="-.5" in="SourceAlpha" result="shadowOffsetInner1"/><feComposite in="shadowOffsetInner1" in2="SourceAlpha" operator="arithmetic" k2="-1" k3="1" result="shadowInnerInner1"/><feColorMatrix values="0 0 0 0 0 0 0 0 0 0 0 0 0 0 0 0 0 0 0.04 0" in="shadowInnerInner1" result="shadowMatrixInner1"/><feOffset dy=".5" in="SourceAlpha" result="shadowOffsetInner2"/><feComposite in="shadowOffsetInner2" in2="SourceAlpha" operator="arithmetic" k2="-1" k3="1" result="shadowInnerInner2"/><feColorMatrix values="0 0 0 0 1 0 0 0 0 1 0 0 0 0 1 0 0 0 0.12 0" in="shadowInnerInner2" result="shadowMatrixInner2"/><feMerge><feMergeNode in="shadowMatrixInner1"/><feMergeNode in="shadowMatrixInner2"/></feMerge></filter></defs><g filter="url(#a)" transform="translate(1 1)" fill="none" fill-rule="evenodd"><mask id="e" fill="#fff"><use xlink:href="#b"/></mask><use fill="#000" filter="url(#c)" xlink:href="#b"/><path fill="url(#d)" mask="url(#e)" d="M0 0h22v15.7H0z"/><path fill="url(#f)" mask="url(#e)" d="M10.476 0H22v15.7H10.476zM0 0h7.333v15.7H0z"/><g mask="url(#e)"><use fill="#000" filter="url(#g)" xlink:href="#h"/><use fill="url(#i)" xlink:href="#h"/></g><path d="M10.881 4.915c.078-.113.201-.111.274 0l.758 1.16c.075.113.025.205-.114.205h-.288a.22.22 0 0 0-.225.241l.214 2.134c.013.134.145.242.273.242h.025c.138 0 .331-.081.427-.176l.17-.167a.686.686 0 0 0 .176-.42v-.563a.693.693 0 0 0-.177-.422l-.169-.168c-.098-.098-.074-.212.068-.26l1.08-.36c.136-.044.225.031.202.16l-.393 2.134a.92.92 0 0 1-.225.415l-.73.7a.738.738 0 0 1-.429.173h-.025a.248.248 0 0 0-.25.243v.561a.245.245 0 0 1-.242.243h-.562a.245.245 0 0 1-.243-.243v-.56c0-.135-.121-.244-.25-.244h-.024a.706.706 0 0 1-.432-.182l-.683-.682a.992.992 0 0 1-.23-.424l-.428-2.134c-.026-.133.055-.207.197-.16l1.08.36c.136.046.165.164.069.26l-.17.168a.693.693 0 0 0-.176.422v.564c0 .135.081.325.177.42l.169.166a.722.722 0 0 0 .427.176h.025c.137 0 .26-.113.273-.242l.214-2.134a.217.217 0 0 0-.225-.241h-.288c-.137 0-.191-.084-.109-.205l.79-1.16z" fill="url(#j)" mask="url(#e)"/><g mask="url(#e)" fill="#000"><use filter="url(#k)" xlink:href="#l"/></g></g></svg>