<svg width="24" height="18" viewBox="0 0 24 18" xmlns="http://www.w3.org/2000/svg" xmlns:xlink="http://www.w3.org/1999/xlink"><title>CX</title><defs><filter x="-50%" y="-50%" width="200%" height="200%" filterUnits="objectBoundingBox" id="a"><feOffset dy=".5" in="SourceAlpha" result="shadowOffsetOuter1"/><feGaussianBlur stdDeviation=".5" in="shadowOffsetOuter1" result="shadowBlurOuter1"/><feColorMatrix values="0 0 0 0 0 0 0 0 0 0 0 0 0 0 0 0 0 0 0.16 0" in="shadowBlurOuter1" result="shadowMatrixOuter1"/><feMerge><feMergeNode in="shadowMatrixOuter1"/><feMergeNode in="SourceGraphic"/></feMerge></filter><rect id="b" width="22" height="15.7" rx="1.5"/><filter x="-50%" y="-50%" width="200%" height="200%" filterUnits="objectBoundingBox" id="c"><feOffset dy=".5" in="SourceAlpha" result="shadowOffsetOuter1"/><feGaussianBlur stdDeviation=".5" in="shadowOffsetOuter1" result="shadowBlurOuter1"/><feColorMatrix values="0 0 0 0 0 0 0 0 0 0 0 0 0 0 0 0 0 0 0.16 0" in="shadowBlurOuter1"/></filter><linearGradient x1="50%" y1="0%" x2="50%" y2="100%" id="d"><stop stop-color="#0537C5" offset="0%"/><stop stop-color="#002CAA" offset="100%"/></linearGradient><path id="g" d="M4.19 13.607l-.74.216.217-.74-.217-.74.74.217.741-.217-.217.74.217.74z"/><filter x="-50%" y="-50%" width="200%" height="200%" filterUnits="objectBoundingBox" id="f"><feOffset dy=".5" in="SourceAlpha" result="shadowOffsetOuter1"/><feColorMatrix values="0 0 0 0 0 0 0 0 0 0 0 0 0 0 0 0 0 0 0.24 0" in="shadowOffsetOuter1"/></filter><path id="i" d="M4.19 5.757l-.74.216.217-.74-.217-.74.74.217.741-.217-.217.74.217.74z"/><filter x="-50%" y="-50%" width="200%" height="200%" filterUnits="objectBoundingBox" id="h"><feOffset dy=".5" in="SourceAlpha" result="shadowOffsetOuter1"/><feColorMatrix values="0 0 0 0 0 0 0 0 0 0 0 0 0 0 0 0 0 0 0.24 0" in="shadowOffsetOuter1"/></filter><path id="k" d="M6.286 8.897l-.741.216.217-.74-.217-.74.74.217.741-.217-.216.74.216.74z"/><filter x="-50%" y="-50%" width="200%" height="200%" filterUnits="objectBoundingBox" id="j"><feOffset dy=".5" in="SourceAlpha" result="shadowOffsetOuter1"/><feColorMatrix values="0 0 0 0 0 0 0 0 0 0 0 0 0 0 0 0 0 0 0.24 0" in="shadowOffsetOuter1"/></filter><path id="m" d="M2.095 9.943l-.74.217.216-.74-.217-.74.741.217.741-.217-.217.74.217.74z"/><filter x="-50%" y="-50%" width="200%" height="200%" filterUnits="objectBoundingBox" id="l"><feOffset dy=".5" in="SourceAlpha" result="shadowOffsetOuter1"/><feColorMatrix values="0 0 0 0 0 0 0 0 0 0 0 0 0 0 0 0 0 0 0.24 0" in="shadowOffsetOuter1"/></filter><path id="o" d="M5.762 11.252l-.37.108.108-.37-.108-.37.37.108.37-.108-.108.37.108.37z"/><filter x="-50%" y="-50%" width="200%" height="200%" filterUnits="objectBoundingBox" id="n"><feOffset dy=".5" in="SourceAlpha" result="shadowOffsetOuter1"/><feColorMatrix values="0 0 0 0 0 0 0 0 0 0 0 0 0 0 0 0 0 0 0.24 0" in="shadowOffsetOuter1"/></filter><linearGradient x1="50%" y1="0%" x2="50%" y2="100%" id="r"><stop stop-color="#3BA758" offset="0%"/><stop stop-color="#2C8945" offset="100%"/></linearGradient><path d="M0 15.7l9.346-6.67s2.077 1.074 2.87.507c.794-.566.363-2.814.363-2.814L22 0H0v15.7z" id="q"/><filter x="-50%" y="-50%" width="200%" height="200%" filterUnits="objectBoundingBox" id="p"><feMorphology radius=".25" operator="dilate" in="SourceAlpha" result="shadowSpreadOuter1"/><feOffset in="shadowSpreadOuter1" result="shadowOffsetOuter1"/><feColorMatrix values="0 0 0 0 0 0 0 0 0 0 0 0 0 0 0 0 0 0 0.06 0" in="shadowOffsetOuter1"/></filter><linearGradient x1="50%" y1="0%" x2="50%" y2="100%" id="u"><stop stop-color="#FFCC5D" offset="0%"/><stop stop-color="#FEC54A" offset="100%"/></linearGradient><path d="M15.15 7.85s2.529-.418 2.83-1.598c.302-1.18-2.407-2.024-2.514-2.449-.107-.424.996-.123 1.483 0 .472.12 1.396.729 1.396.729s-.011-.838-.137-1.225c-.212-.65-.876-1.887-.876-1.887s1.126.722 1.61 1.298c.276.33.38 1.82.722 2.33.612.913 2.04-.107 1.434.861-.607.968-2.002 1.1-3.117 1.523-1.012.384-3.264.901-3.264.901l.432-.483z" id="t"/><filter x="-50%" y="-50%" width="200%" height="200%" filterUnits="objectBoundingBox" id="s"><feOffset dy=".5" in="SourceAlpha" result="shadowOffsetOuter1"/><feColorMatrix values="0 0 0 0 0 0 0 0 0 0 0 0 0 0 0 0 0 0 0.06 0" in="shadowOffsetOuter1"/></filter><path d="M11 10.467a2.618 2.618 0 1 1 2.619-2.617A2.618 2.618 0 0 1 11 10.467zM9.7 7.85l-.271.523s.879-.198 1.176 0c.403.268.395 1.047.395 1.047h.524s-.172-.764.097-1.301c.27-.537.95-.792.95-.792V6.28s-.713.761-1.571 1.047c-.858.285-1.571 0-1.571 0l.27.523z" id="w"/><filter x="-50%" y="-50%" width="200%" height="200%" filterUnits="objectBoundingBox" id="v"><feOffset dy=".5" in="SourceAlpha" result="shadowOffsetOuter1"/><feColorMatrix values="0 0 0 0 0 0 0 0 0 0 0 0 0 0 0 0 0 0 0.06 0" in="shadowOffsetOuter1"/></filter><rect id="y" width="22" height="15.7" rx="1.5"/><filter x="-50%" y="-50%" width="200%" height="200%" filterUnits="objectBoundingBox" id="x"><feOffset dy="-.5" in="SourceAlpha" result="shadowOffsetInner1"/><feComposite in="shadowOffsetInner1" in2="SourceAlpha" operator="arithmetic" k2="-1" k3="1" result="shadowInnerInner1"/><feColorMatrix values="0 0 0 0 0 0 0 0 0 0 0 0 0 0 0 0 0 0 0.04 0" in="shadowInnerInner1" result="shadowMatrixInner1"/><feOffset dy=".5" in="SourceAlpha" result="shadowOffsetInner2"/><feComposite in="shadowOffsetInner2" in2="SourceAlpha" operator="arithmetic" k2="-1" k3="1" result="shadowInnerInner2"/><feColorMatrix values="0 0 0 0 1 0 0 0 0 1 0 0 0 0 1 0 0 0 0.12 0" in="shadowInnerInner2" result="shadowMatrixInner2"/><feMerge><feMergeNode in="shadowMatrixInner1"/><feMergeNode in="shadowMatrixInner2"/></feMerge></filter></defs><g filter="url(#a)" transform="translate(1 1)" fill="none" fill-rule="evenodd"><mask id="e" fill="#fff"><use xlink:href="#b"/></mask><use fill="#000" filter="url(#c)" xlink:href="#b"/><path fill="url(#d)" mask="url(#e)" d="M0 0h22v15.7H0z"/><g mask="url(#e)"><use fill="#000" filter="url(#f)" xlink:href="#g"/><use fill="#FFF" xlink:href="#g"/></g><g mask="url(#e)"><use fill="#000" filter="url(#h)" xlink:href="#i"/><use fill="#FFF" xlink:href="#i"/></g><g mask="url(#e)"><use fill="#000" filter="url(#j)" xlink:href="#k"/><use fill="#FFF" xlink:href="#k"/></g><g mask="url(#e)"><use fill="#000" filter="url(#l)" xlink:href="#m"/><use fill="#FFF" xlink:href="#m"/></g><g mask="url(#e)"><use fill="#000" filter="url(#n)" xlink:href="#o"/><use fill="#FFF" xlink:href="#o"/></g><g mask="url(#e)" transform="matrix(-1 0 0 1 22 0)"><use fill="#000" filter="url(#p)" xlink:href="#q"/><use fill="url(#r)" xlink:href="#q"/></g><g mask="url(#e)"><use fill="#000" filter="url(#s)" xlink:href="#t"/><use fill="url(#u)" xlink:href="#t"/></g><g mask="url(#e)"><use fill="#000" filter="url(#v)" xlink:href="#w"/><use fill="url(#u)" xlink:href="#w"/></g><g mask="url(#e)" fill="#000"><use filter="url(#x)" xlink:href="#y"/></g></g></svg>