<svg width="24" height="18" viewBox="0 0 24 18" xmlns="http://www.w3.org/2000/svg" xmlns:xlink="http://www.w3.org/1999/xlink"><title>GB-WLS</title><defs><filter x="-50%" y="-50%" width="200%" height="200%" filterUnits="objectBoundingBox" id="a"><feOffset dy=".5" in="SourceAlpha" result="shadowOffsetOuter1"/><feGaussianBlur stdDeviation=".5" in="shadowOffsetOuter1" result="shadowBlurOuter1"/><feColorMatrix values="0 0 0 0 0 0 0 0 0 0 0 0 0 0 0 0 0 0 0.16 0" in="shadowBlurOuter1" result="shadowMatrixOuter1"/><feMerge><feMergeNode in="shadowMatrixOuter1"/><feMergeNode in="SourceGraphic"/></feMerge></filter><filter x="-50%" y="-50%" width="200%" height="200%" filterUnits="objectBoundingBox" id="b"><feMorphology radius=".25" operator="dilate" in="SourceAlpha" result="shadowSpreadOuter1"/><feOffset in="shadowSpreadOuter1" result="shadowOffsetOuter1"/><feColorMatrix values="0 0 0 0 0 0 0 0 0 0 0 0 0 0 0 0 0 0 0.06 0" in="shadowOffsetOuter1" result="shadowMatrixOuter1"/><feMerge><feMergeNode in="shadowMatrixOuter1"/><feMergeNode in="SourceGraphic"/></feMerge></filter><rect id="c" width="22" height="15.7" rx="1.5"/><filter x="-50%" y="-50%" width="200%" height="200%" filterUnits="objectBoundingBox" id="d"><feOffset dy=".5" in="SourceAlpha" result="shadowOffsetOuter1"/><feGaussianBlur stdDeviation=".5" in="shadowOffsetOuter1" result="shadowBlurOuter1"/><feColorMatrix values="0 0 0 0 0 0 0 0 0 0 0 0 0 0 0 0 0 0 0.16 0" in="shadowBlurOuter1"/></filter><linearGradient x1="50%" y1="0%" x2="50%" y2="100%" id="h"><stop stop-color="#3ACC55" offset="0%"/><stop stop-color="#28A940" offset="100%"/></linearGradient><path id="g" d="M0 7.327h22V15.7H0z"/><filter x="-50%" y="-50%" width="200%" height="200%" filterUnits="objectBoundingBox" id="f"><feMorphology radius=".25" operator="dilate" in="SourceAlpha" result="shadowSpreadOuter1"/><feOffset in="shadowSpreadOuter1" result="shadowOffsetOuter1"/><feColorMatrix values="0 0 0 0 0 0 0 0 0 0 0 0 0 0 0 0 0 0 0.06 0" in="shadowOffsetOuter1"/></filter><path id="j" d="M0 0h22v7.327H0z"/><filter x="-50%" y="-50%" width="200%" height="200%" filterUnits="objectBoundingBox" id="i"><feMorphology radius=".25" operator="dilate" in="SourceAlpha" result="shadowSpreadOuter1"/><feOffset in="shadowSpreadOuter1" result="shadowOffsetOuter1"/><feColorMatrix values="0 0 0 0 0 0 0 0 0 0 0 0 0 0 0 0 0 0 0.06 0" in="shadowOffsetOuter1"/></filter><rect id="l" width="22" height="15.7" rx="1.5"/><filter x="-50%" y="-50%" width="200%" height="200%" filterUnits="objectBoundingBox" id="k"><feOffset dy="-.5" in="SourceAlpha" result="shadowOffsetInner1"/><feComposite in="shadowOffsetInner1" in2="SourceAlpha" operator="arithmetic" k2="-1" k3="1" result="shadowInnerInner1"/><feColorMatrix values="0 0 0 0 0 0 0 0 0 0 0 0 0 0 0 0 0 0 0.04 0" in="shadowInnerInner1" result="shadowMatrixInner1"/><feOffset dy=".5" in="SourceAlpha" result="shadowOffsetInner2"/><feComposite in="shadowOffsetInner2" in2="SourceAlpha" operator="arithmetic" k2="-1" k3="1" result="shadowInnerInner2"/><feColorMatrix values="0 0 0 0 1 0 0 0 0 1 0 0 0 0 1 0 0 0 0.12 0" in="shadowInnerInner2" result="shadowMatrixInner2"/><feMerge><feMergeNode in="shadowMatrixInner1"/><feMergeNode in="shadowMatrixInner2"/></feMerge></filter><linearGradient x1="50%" y1="0%" x2="50%" y2="100%" id="m"><stop stop-color="#EA1B43" offset="0%"/><stop stop-color="#D20F35" offset="100%"/></linearGradient></defs><g filter="url(#a)" transform="translate(1 1)" fill="none" fill-rule="evenodd"><g filter="url(#b)"><mask id="e" fill="#fff"><use xlink:href="#c"/></mask><use filter="url(#d)" xlink:href="#c" fill="#000"/><g mask="url(#e)"><use fill="#000" filter="url(#f)" xlink:href="#g"/><use fill="url(#h)" xlink:href="#g"/></g><g mask="url(#e)"><use fill="#000" filter="url(#i)" xlink:href="#j"/><use fill="#fff" xlink:href="#j"/></g><g mask="url(#e)" fill="#000"><use filter="url(#k)" xlink:href="#l"/></g></g><path d="M8.45 11.928l1.295-.22-1.002-.473.686-.384s1.156.975 1.156.662c0-.336 1.087-.189 1.044-.662-.06-.649-1.204-.048-1.408-.858-.114-.453-.476-.395-.476-.395l-1.152.395-.573.858-.285-.858s-.673.546-.896.858c-.24.333-.493 1.077-.493 1.077l1.175.49-1.713-.301-1.25.301-.768.214.337-.354-.687-.35.687-.415-.337-.278 1.486.278s.542-.054.748-.278c.259-.283.462-1.242.462-1.242l-.678-.395-.532.964s-.368-.912-.718-1.423C4.296 8.758 3.44 7.886 3.44 7.886l-1.105.58.616-1.227s.489-.426.178-.864c-.31-.437-.571-1.416-.571-1.416s.647 1.121.882 1.035c.331-.123-.414-1.146 0-1.328.297-.131.35 1.172.35 1.172l.337-.64v.796s-.196.95.137 1.514c.333.564 1.32.958 1.32.958s-.256-.566 0-1.653c.175-.736.793-1.992 1.084-2.394.153-.213-1.227.78-1.227.78v-.78l-1.314-.135-.337.382-.84-1.375 1.045.524h1.59l-.31-.38h-1.28s.27-.553 1.59-.553l.624-.424s.854.025 1.335.043c.427.016 1.199-.526 1.199-.526l.217.526-.51.79.51.524-.217.324.373.527H8.45l.51.82-.51-.287.293.795-.293.819 1.295-.438s0-1.176.476-1.71c1.451-1.487 3.818-2.69 3.818-2.69s-.125 1.08.225 1.165c.509.123 2.73-.89 2.73-.89s-1.335 1.435-1.062 1.565c.147.07.392.324.392.324s-1.153.941-1.346 1.347c-.193.405.283.89.283.89s-.997 0-1.493.437c1.493 0 2.714.706 3.436.185.485-.35-1.734-.131-1.443-1.004.108-.324.39-.7 1.037-.795.647-.096.876.287.876.287l.348-.527h-1.029l1.864-1.819.243 2.346-.63-.527-.283.88c.67 2.047-2.426 2.482-2.426 2.482l1.913 1.277-.68.195-.196 1.914.876.711-1.151-.301-2.259.515.45-.704-.946.189.632-.604-.632-.278.807-.224 1.018.696s.503-.65.559-.997c.057-.357-.22-1.112-.22-1.112s-1.499-.032-2.027-.163c-.529-.13-.834-.546-.834-.546l-.6.709s2.091.783 1.568 1.112c-.121.076-.72-.148-.72-.148s-1.03 1.204-1.69 1.366c-.3.073.841.49.841.49s-.975-.154-1.47-.301c-.519-.155-2.04.301-2.04.301l-.51-.49zm8.403-5.593a.262.262 0 1 0 0-.524.262.262 0 0 0 0 .524z" fill="url(#m)"/></g></svg>