<svg width="24" height="18" viewBox="0 0 24 18" xmlns="http://www.w3.org/2000/svg" xmlns:xlink="http://www.w3.org/1999/xlink"><title>GI</title><defs><filter x="-50%" y="-50%" width="200%" height="200%" filterUnits="objectBoundingBox" id="a"><feOffset dy=".5" in="SourceAlpha" result="shadowOffsetOuter1"/><feGaussianBlur stdDeviation=".5" in="shadowOffsetOuter1" result="shadowBlurOuter1"/><feColorMatrix values="0 0 0 0 0 0 0 0 0 0 0 0 0 0 0 0 0 0 0.16 0" in="shadowBlurOuter1" result="shadowMatrixOuter1"/><feMerge><feMergeNode in="shadowMatrixOuter1"/><feMergeNode in="SourceGraphic"/></feMerge></filter><filter x="-50%" y="-50%" width="200%" height="200%" filterUnits="objectBoundingBox" id="b"><feMorphology radius=".25" operator="dilate" in="SourceAlpha" result="shadowSpreadOuter1"/><feOffset in="shadowSpreadOuter1" result="shadowOffsetOuter1"/><feColorMatrix values="0 0 0 0 0 0 0 0 0 0 0 0 0 0 0 0 0 0 0.06 0" in="shadowOffsetOuter1" result="shadowMatrixOuter1"/><feMerge><feMergeNode in="shadowMatrixOuter1"/><feMergeNode in="SourceGraphic"/></feMerge></filter><rect id="c" width="22" height="15.7" rx="1.5"/><filter x="-50%" y="-50%" width="200%" height="200%" filterUnits="objectBoundingBox" id="d"><feOffset dy=".5" in="SourceAlpha" result="shadowOffsetOuter1"/><feGaussianBlur stdDeviation=".5" in="shadowOffsetOuter1" result="shadowBlurOuter1"/><feColorMatrix values="0 0 0 0 0 0 0 0 0 0 0 0 0 0 0 0 0 0 0.16 0" in="shadowBlurOuter1"/></filter><path id="g" d="M0 0h22v10.467H0z"/><filter x="-50%" y="-50%" width="200%" height="200%" filterUnits="objectBoundingBox" id="f"><feMorphology radius=".25" operator="dilate" in="SourceAlpha" result="shadowSpreadOuter1"/><feOffset in="shadowSpreadOuter1" result="shadowOffsetOuter1"/><feColorMatrix values="0 0 0 0 0 0 0 0 0 0 0 0 0 0 0 0 0 0 0.06 0" in="shadowOffsetOuter1"/></filter><linearGradient x1="50%" y1="0%" x2="50%" y2="100%" id="h"><stop stop-color="#E81924" offset="0%"/><stop stop-color="#D6101B" offset="100%"/></linearGradient><rect id="j" width="22" height="15.7" rx="1.5"/><filter x="-50%" y="-50%" width="200%" height="200%" filterUnits="objectBoundingBox" id="i"><feOffset dy="-.5" in="SourceAlpha" result="shadowOffsetInner1"/><feComposite in="shadowOffsetInner1" in2="SourceAlpha" operator="arithmetic" k2="-1" k3="1" result="shadowInnerInner1"/><feColorMatrix values="0 0 0 0 0 0 0 0 0 0 0 0 0 0 0 0 0 0 0.04 0" in="shadowInnerInner1" result="shadowMatrixInner1"/><feOffset dy=".5" in="SourceAlpha" result="shadowOffsetInner2"/><feComposite in="shadowOffsetInner2" in2="SourceAlpha" operator="arithmetic" k2="-1" k3="1" result="shadowInnerInner2"/><feColorMatrix values="0 0 0 0 1 0 0 0 0 1 0 0 0 0 1 0 0 0 0.12 0" in="shadowInnerInner2" result="shadowMatrixInner2"/><feMerge><feMergeNode in="shadowMatrixInner1"/><feMergeNode in="shadowMatrixInner2"/></feMerge></filter><linearGradient x1="50%" y1="0%" x2="50%" y2="100%" id="k"><stop stop-color="#EB1824" offset="0%"/><stop stop-color="#D6101B" offset="100%"/></linearGradient><linearGradient x1="50%" y1="0%" x2="50%" y2="100%" id="l"><stop stop-color="#262626" offset="0%"/><stop stop-color="#0C0C0C" offset="100%"/></linearGradient><linearGradient x1="50%" y1="0%" x2="50%" y2="100%" id="m"><stop stop-color="#ECCF3E" offset="0%"/><stop stop-color="#D9BC2D" offset="100%"/></linearGradient></defs><g filter="url(#a)" transform="translate(1 1)" fill="none" fill-rule="evenodd"><g filter="url(#b)"><mask id="e" fill="#fff"><use xlink:href="#c"/></mask><use fill="#000" filter="url(#d)" xlink:href="#c"/><g mask="url(#e)"><use fill="#000" filter="url(#f)" xlink:href="#g"/><use fill="#fff" xlink:href="#g"/></g><path fill="url(#h)" mask="url(#e)" d="M0 10.467h22V15.7H0z"/><g mask="url(#e)" fill="#000"><use filter="url(#i)" xlink:href="#j"/></g></g><path d="M9.429 6.28H8.38V4.683a.504.504 0 0 0-.507-.496H6.793a.5.5 0 0 0-.507.496v3.69L5.238 9.42h11.524l-1.048-1.047v-3.69a.504.504 0 0 0-.507-.496h-1.08a.5.5 0 0 0-.508.496V6.28h-1.048V3.637a.496.496 0 0 0-.49-.497H9.92a.498.498 0 0 0-.491.497V6.28z" fill="url(#k)"/><path d="M7.333 8.373a.524.524 0 1 1 0-1.047.524.524 0 0 1 0 1.047zm0-2.093a.524.524 0 1 1 0-1.047.524.524 0 0 1 0 1.047zM11 8.373a.524.524 0 1 1 0-1.047.524.524 0 0 1 0 1.047zm0-3.14a.524.524 0 1 1 0-1.047.524.524 0 0 1 0 1.047zm3.667 3.14a.524.524 0 1 1 0-1.047.524.524 0 0 1 0 1.047zm0-2.093a.524.524 0 1 1 0-1.047.524.524 0 0 1 0 1.047z" fill="url(#l)"/><path d="M10.476 10.407v2.153H9.43v1.047h2.095v-3.2c.61-.144 1.047-.531 1.047-.987 0-.578-.703-1.047-1.571-1.047s-1.571.469-1.571 1.047c0 .456.437.843 1.047.987z" fill="url(#m)"/></g></svg>