<svg width="24" height="18" viewBox="0 0 24 18" xmlns="http://www.w3.org/2000/svg" xmlns:xlink="http://www.w3.org/1999/xlink"><title>GU</title><defs><filter x="-50%" y="-50%" width="200%" height="200%" filterUnits="objectBoundingBox" id="a"><feOffset dy=".5" in="SourceAlpha" result="shadowOffsetOuter1"/><feGaussianBlur stdDeviation=".5" in="shadowOffsetOuter1" result="shadowBlurOuter1"/><feColorMatrix values="0 0 0 0 0 0 0 0 0 0 0 0 0 0 0 0 0 0 0.16 0" in="shadowBlurOuter1" result="shadowMatrixOuter1"/><feMerge><feMergeNode in="shadowMatrixOuter1"/><feMergeNode in="SourceGraphic"/></feMerge></filter><rect id="b" width="22" height="15.7" rx="1.5"/><filter x="-50%" y="-50%" width="200%" height="200%" filterUnits="objectBoundingBox" id="c"><feOffset dy=".5" in="SourceAlpha" result="shadowOffsetOuter1"/><feGaussianBlur stdDeviation=".5" in="shadowOffsetOuter1" result="shadowBlurOuter1"/><feColorMatrix values="0 0 0 0 0 0 0 0 0 0 0 0 0 0 0 0 0 0 0.16 0" in="shadowBlurOuter1"/></filter><linearGradient x1="50%" y1="0%" x2="50%" y2="100%" id="d"><stop stop-color="#DE3149" offset="0%"/><stop stop-color="#C2273D" offset="100%"/></linearGradient><linearGradient x1="50%" y1="0%" x2="50%" y2="100%" id="f"><stop stop-color="#053B94" offset="0%"/><stop stop-color="#002E7A" offset="100%"/></linearGradient><rect id="h" width="22" height="15.7" rx="1.5"/><filter x="-50%" y="-50%" width="200%" height="200%" filterUnits="objectBoundingBox" id="g"><feOffset dy="-.5" in="SourceAlpha" result="shadowOffsetInner1"/><feComposite in="shadowOffsetInner1" in2="SourceAlpha" operator="arithmetic" k2="-1" k3="1" result="shadowInnerInner1"/><feColorMatrix values="0 0 0 0 0 0 0 0 0 0 0 0 0 0 0 0 0 0 0.04 0" in="shadowInnerInner1" result="shadowMatrixInner1"/><feOffset dy=".5" in="SourceAlpha" result="shadowOffsetInner2"/><feComposite in="shadowOffsetInner2" in2="SourceAlpha" operator="arithmetic" k2="-1" k3="1" result="shadowInnerInner2"/><feColorMatrix values="0 0 0 0 1 0 0 0 0 1 0 0 0 0 1 0 0 0 0.12 0" in="shadowInnerInner2" result="shadowMatrixInner2"/><feMerge><feMergeNode in="shadowMatrixInner1"/><feMergeNode in="shadowMatrixInner2"/></feMerge></filter><linearGradient x1="50%" y1="0%" x2="50%" y2="100%" id="k"><stop stop-color="#DE3149" offset="0%"/><stop stop-color="#C2273D" offset="100%"/></linearGradient><path d="M11 12.56s3.143-2.109 3.143-4.71S11 3.14 11 3.14 7.857 5.249 7.857 7.85 11 12.56 11 12.56z" id="j"/><filter x="-50%" y="-50%" width="200%" height="200%" filterUnits="objectBoundingBox" id="i"><feOffset dy=".5" in="SourceAlpha" result="shadowOffsetOuter1"/><feColorMatrix values="0 0 0 0 0 0 0 0 0 0 0 0 0 0 0 0 0 0 0.06 0" in="shadowOffsetOuter1"/></filter><path d="M2.619 8.897s2.62-2.094 2.62-4.187c0-2.093-2.62-4.187-2.62-4.187S0 2.617 0 4.71c0 2.093 2.619 4.187 2.619 4.187z" id="l"/><linearGradient x1="50%" y1="0%" x2="50%" y2="100%" id="m"><stop stop-color="#81C1F4" offset="0%"/><stop stop-color="#6AB1E9" offset="100%"/></linearGradient><linearGradient x1="50%" y1="0%" x2="50%" y2="100%" id="o"><stop stop-color="#26A07E" offset="0%"/><stop stop-color="#1F9171" offset="100%"/></linearGradient><linearGradient x1="50%" y1="0%" x2="50%" y2="100%" id="p"><stop stop-color="#1E8CE8" offset="0%"/><stop stop-color="#107FDC" offset="100%"/></linearGradient><linearGradient x1="50%" y1="0%" x2="50%" y2="100%" id="q"><stop stop-color="#FFF148" offset="0%"/><stop stop-color="#FFEF36" offset="100%"/></linearGradient><linearGradient x1="50%" y1="0%" x2="50%" y2="100%" id="r"><stop stop-color="#8F5714" offset="0%"/><stop stop-color="#7A480D" offset="100%"/></linearGradient><path id="t" d="M9.429 7.85l1.047 1.57H9.43z"/><filter x="-50%" y="-50%" width="200%" height="200%" filterUnits="objectBoundingBox" id="s"><feOffset dy=".5" in="SourceAlpha" result="shadowOffsetOuter1"/><feColorMatrix values="0 0 0 0 0 0 0 0 0 0 0 0 0 0 0 0 0 0 0.24 0" in="shadowOffsetOuter1"/></filter></defs><g filter="url(#a)" transform="translate(1 1)" fill="none" fill-rule="evenodd"><mask id="e" fill="#fff"><use xlink:href="#b"/></mask><use fill="#000" filter="url(#c)" xlink:href="#b"/><path fill="url(#d)" mask="url(#e)" d="M0 0h22v15.7H0z"/><rect fill="url(#f)" mask="url(#e)" x="1.048" y="1.047" width="19.905" height="13.607" rx="1"/><g mask="url(#e)" fill="#000"><use filter="url(#g)" xlink:href="#h"/></g><g><use fill="#000" filter="url(#i)" xlink:href="#j"/><use fill="url(#k)" xlink:href="#j"/></g><g transform="translate(8.381 3.14)"><mask id="n" fill="#fff"><use xlink:href="#l"/></mask><use fill="#fff" xlink:href="#l"/><path fill="url(#m)" mask="url(#n)" d="M0 0h5.238v5.233H0z"/><path fill="url(#o)" mask="url(#n)" d="M2.619 4.291l-.924.642.326-1.076-.896-.679 1.125-.023.369-1.062.37 1.062 1.125.023-.897.68.326 1.075z"/><path fill="url(#p)" mask="url(#n)" d="M0 5.233h5.238V9.42H0z"/><path d="M0 6.28s1.666 1.57 2.095 1.57c.512 0 .52-.757 1.048-1.047.832-.456 2.095-.523 2.095-.523v3.14H0V6.28z" fill="url(#q)" mask="url(#n)"/></g><path d="M11 6.803s-.162 1.609 0 2.094c.187.561 1.048 1.046 1.048 1.046" stroke="url(#r)" stroke-width=".5" stroke-linecap="round"/><g><use fill="#000" filter="url(#s)" xlink:href="#t"/><use fill="#FFF" xlink:href="#t"/></g></g></svg>