<svg width="24" height="18" viewBox="0 0 24 18" xmlns="http://www.w3.org/2000/svg" xmlns:xlink="http://www.w3.org/1999/xlink"><title>HR</title><defs><filter x="-50%" y="-50%" width="200%" height="200%" filterUnits="objectBoundingBox" id="a"><feOffset dy=".5" in="SourceAlpha" result="shadowOffsetOuter1"/><feGaussianBlur stdDeviation=".5" in="shadowOffsetOuter1" result="shadowBlurOuter1"/><feColorMatrix values="0 0 0 0 0 0 0 0 0 0 0 0 0 0 0 0 0 0 0.16 0" in="shadowBlurOuter1" result="shadowMatrixOuter1"/><feMerge><feMergeNode in="shadowMatrixOuter1"/><feMergeNode in="SourceGraphic"/></feMerge></filter><rect id="b" width="22" height="15.7" rx="1.5"/><filter x="-50%" y="-50%" width="200%" height="200%" filterUnits="objectBoundingBox" id="c"><feOffset dy=".5" in="SourceAlpha" result="shadowOffsetOuter1"/><feGaussianBlur stdDeviation=".5" in="shadowOffsetOuter1" result="shadowBlurOuter1"/><feColorMatrix values="0 0 0 0 0 0 0 0 0 0 0 0 0 0 0 0 0 0 0.16 0" in="shadowBlurOuter1"/></filter><linearGradient x1="50%" y1="0%" x2="50%" y2="100%" id="g"><stop stop-color="#FF202D" offset="0%"/><stop stop-color="#FD0D1B" offset="100%"/></linearGradient><path id="f" d="M0 0h22v5.233H0z"/><filter x="-50%" y="-50%" width="200%" height="200%" filterUnits="objectBoundingBox" id="e"><feMorphology radius=".25" operator="dilate" in="SourceAlpha" result="shadowSpreadOuter1"/><feOffset in="shadowSpreadOuter1" result="shadowOffsetOuter1"/><feColorMatrix values="0 0 0 0 0 0 0 0 0 0 0 0 0 0 0 0 0 0 0.06 0" in="shadowOffsetOuter1"/></filter><linearGradient x1="50%" y1="0%" x2="50%" y2="100%" id="j"><stop stop-color="#2026AD" offset="0%"/><stop stop-color="#191F94" offset="100%"/></linearGradient><path id="i" d="M0 10.467h22V15.7H0z"/><filter x="-50%" y="-50%" width="200%" height="200%" filterUnits="objectBoundingBox" id="h"><feMorphology radius=".25" operator="dilate" in="SourceAlpha" result="shadowSpreadOuter1"/><feOffset in="shadowSpreadOuter1" result="shadowOffsetOuter1"/><feColorMatrix values="0 0 0 0 0 0 0 0 0 0 0 0 0 0 0 0 0 0 0.06 0" in="shadowOffsetOuter1"/></filter><path d="M0 10.467V5.233h22v5.234H0zm12.571 0h1.048l-.286.572c-.131.262-.475.474-.756.474h-.006v-1.046zm-2.095 0h1.048v1.046h-1.048v-1.046zm-2.095 0h1.048v1.046h-.006a.912.912 0 0 1-.756-.474l-.286-.572z" id="l"/><filter x="-50%" y="-50%" width="200%" height="200%" filterUnits="objectBoundingBox" id="k"><feMorphology radius=".25" operator="dilate" in="SourceAlpha" result="shadowSpreadOuter1"/><feOffset in="shadowSpreadOuter1" result="shadowOffsetOuter1"/><feColorMatrix values="0 0 0 0 0 0 0 0 0 0 0 0 0 0 0 0 0 0 0.06 0" in="shadowOffsetOuter1"/></filter><linearGradient x1="50%" y1="0%" x2="50%" y2="100%" id="m"><stop stop-color="#FF202D" offset="0%"/><stop stop-color="#FD0D1B" offset="100%"/></linearGradient><rect id="o" width="22" height="15.7" rx="1.5"/><filter x="-50%" y="-50%" width="200%" height="200%" filterUnits="objectBoundingBox" id="n"><feOffset dy="-.5" in="SourceAlpha" result="shadowOffsetInner1"/><feComposite in="shadowOffsetInner1" in2="SourceAlpha" operator="arithmetic" k2="-1" k3="1" result="shadowInnerInner1"/><feColorMatrix values="0 0 0 0 0 0 0 0 0 0 0 0 0 0 0 0 0 0 0.04 0" in="shadowInnerInner1" result="shadowMatrixInner1"/><feOffset dy=".5" in="SourceAlpha" result="shadowOffsetInner2"/><feComposite in="shadowOffsetInner2" in2="SourceAlpha" operator="arithmetic" k2="-1" k3="1" result="shadowInnerInner2"/><feColorMatrix values="0 0 0 0 1 0 0 0 0 1 0 0 0 0 1 0 0 0 0.12 0" in="shadowInnerInner2" result="shadowMatrixInner2"/><feMerge><feMergeNode in="shadowMatrixInner1"/><feMergeNode in="shadowMatrixInner2"/></feMerge></filter></defs><g filter="url(#a)" transform="translate(1 1)" fill="none" fill-rule="evenodd"><mask id="d" fill="#fff"><use xlink:href="#b"/></mask><use fill="#000" filter="url(#c)" xlink:href="#b"/><g mask="url(#d)"><use fill="#000" filter="url(#e)" xlink:href="#f"/><use fill="url(#g)" xlink:href="#f"/></g><path d="M8.381 4.187l.524-.524.524.524v1.046H8.38V4.187zm2.095 0L11 3.663l.524.524v1.046h-1.048V4.187zm2.095 0l.524-.524.524.524v1.046h-1.048V4.187z" fill="#1895DB" opacity=".5" mask="url(#d)"/><path d="M9.429 4.187l.523-.524.524.524v1.046H9.43V4.187zm2.095 0l.524-.524.523.524v1.046h-1.047V4.187z" fill="#191F94" opacity=".5" mask="url(#d)"/><g mask="url(#d)"><use fill="#000" filter="url(#h)" xlink:href="#i"/><use fill="url(#j)" xlink:href="#i"/></g><g mask="url(#d)"><use fill="#000" filter="url(#k)" xlink:href="#l"/><use fill="#fff" xlink:href="#l"/></g><path d="M10.476 5.233h1.048V6.28h-1.048V5.233zm2.095 0h.524l.524 1.047h-1.048V5.233zm-3.666 0h.524V6.28H8.38l.524-1.047zm.524 1.047h1.047v1.047H9.43V6.28zm2.095 0h1.047v1.047h-1.047V6.28zm-1.048 1.047h1.048v1.046h-1.048V7.327zm2.095 0h1.048v1.046h-1.048V7.327zm-1.047 1.046h1.047V9.42h-1.047V8.373zM8.38 7.327h1.048v1.046H8.38V7.327zm1.048 1.046h1.047V9.42H9.43V8.373zM8.38 9.42h1.048v1.047H8.38V9.42zm2.095 0h1.048v1.047h-1.048V9.42zm2.095 0h1.048v1.047h-1.048V9.42zm-1.047 1.047h1.047v1.046h-1.047v-1.046zm-2.095 0h1.047v1.046H9.43v-1.046z" fill="url(#m)" mask="url(#d)"/><g mask="url(#d)" fill="#000"><use filter="url(#n)" xlink:href="#o"/></g></g></svg>