<svg width="24" height="18" viewBox="0 0 24 18" xmlns="http://www.w3.org/2000/svg" xmlns:xlink="http://www.w3.org/1999/xlink"><title>HT</title><defs><filter x="-50%" y="-50%" width="200%" height="200%" filterUnits="objectBoundingBox" id="c"><feOffset dy=".5" in="SourceAlpha" result="shadowOffsetOuter1"/><feGaussianBlur stdDeviation=".5" in="shadowOffsetOuter1" result="shadowBlurOuter1"/><feColorMatrix values="0 0 0 0 0 0 0 0 0 0 0 0 0 0 0 0 0 0 0.16 0" in="shadowBlurOuter1" result="shadowMatrixOuter1"/><feMerge><feMergeNode in="shadowMatrixOuter1"/><feMergeNode in="SourceGraphic"/></feMerge></filter><rect id="d" width="22" height="15.7" rx="1.5"/><filter x="-50%" y="-50%" width="200%" height="200%" filterUnits="objectBoundingBox" id="e"><feOffset dy=".5" in="SourceAlpha" result="shadowOffsetOuter1"/><feGaussianBlur stdDeviation=".5" in="shadowOffsetOuter1" result="shadowBlurOuter1"/><feColorMatrix values="0 0 0 0 0 0 0 0 0 0 0 0 0 0 0 0 0 0 0.16 0" in="shadowBlurOuter1"/></filter><linearGradient x1="50%" y1="0%" x2="50%" y2="100%" id="i"><stop stop-color="#112EBC" offset="0%"/><stop stop-color="#0620A0" offset="100%"/></linearGradient><path id="h" d="M0 0h22v7.327H0z"/><filter x="-50%" y="-50%" width="200%" height="200%" filterUnits="objectBoundingBox" id="g"><feMorphology radius=".25" operator="dilate" in="SourceAlpha" result="shadowSpreadOuter1"/><feOffset in="shadowSpreadOuter1" result="shadowOffsetOuter1"/><feColorMatrix values="0 0 0 0 0 0 0 0 0 0 0 0 0 0 0 0 0 0 0.06 0" in="shadowOffsetOuter1"/></filter><linearGradient x1="50%" y1="0%" x2="50%" y2="100%" id="l"><stop stop-color="#E3264A" offset="0%"/><stop stop-color="#D20F34" offset="100%"/></linearGradient><path id="k" d="M0 7.327h22V15.7H0z"/><filter x="-50%" y="-50%" width="200%" height="200%" filterUnits="objectBoundingBox" id="j"><feMorphology radius=".25" operator="dilate" in="SourceAlpha" result="shadowSpreadOuter1"/><feOffset in="shadowSpreadOuter1" result="shadowOffsetOuter1"/><feColorMatrix values="0 0 0 0 0 0 0 0 0 0 0 0 0 0 0 0 0 0 0.06 0" in="shadowOffsetOuter1"/></filter><rect id="m" width="7.333" height="6.28" rx=".5"/><path d="M0 5.233l1.158-.578c.518-.259 1.401-.468 1.984-.468h1.05c.578 0 1.47.211 1.983.468l1.158.578V6.28H0V5.233z" id="a"/><mask id="o" x="0" y="0" width="7.333" height="2.093" fill="#fff"><use xlink:href="#a"/></mask><path d="M1.048 3.121c0-.278.171-.367.386-.195L3.28 4.4c.214.17.559.172.773 0L5.9 2.926c.214-.171.387-.086.387.195V4.73a.504.504 0 0 1-.503.504H1.55a.502.502 0 0 1-.502-.504V3.12z" id="b"/><mask id="p" x="0" y="0" width="5.238" height="2.382" fill="#fff"><use xlink:href="#b"/></mask><rect id="r" width="22" height="15.7" rx="1.5"/><filter x="-50%" y="-50%" width="200%" height="200%" filterUnits="objectBoundingBox" id="q"><feOffset dy="-.5" in="SourceAlpha" result="shadowOffsetInner1"/><feComposite in="shadowOffsetInner1" in2="SourceAlpha" operator="arithmetic" k2="-1" k3="1" result="shadowInnerInner1"/><feColorMatrix values="0 0 0 0 0 0 0 0 0 0 0 0 0 0 0 0 0 0 0.04 0" in="shadowInnerInner1" result="shadowMatrixInner1"/><feOffset dy=".5" in="SourceAlpha" result="shadowOffsetInner2"/><feComposite in="shadowOffsetInner2" in2="SourceAlpha" operator="arithmetic" k2="-1" k3="1" result="shadowInnerInner2"/><feColorMatrix values="0 0 0 0 1 0 0 0 0 1 0 0 0 0 1 0 0 0 0.12 0" in="shadowInnerInner2" result="shadowMatrixInner2"/><feMerge><feMergeNode in="shadowMatrixInner1"/><feMergeNode in="shadowMatrixInner2"/></feMerge></filter></defs><g filter="url(#c)" transform="translate(1 1)" fill="none" fill-rule="evenodd"><mask id="f" fill="#fff"><use xlink:href="#d"/></mask><use fill="#000" filter="url(#e)" xlink:href="#d"/><g mask="url(#f)"><use fill="#000" filter="url(#g)" xlink:href="#h"/><use fill="url(#i)" xlink:href="#h"/></g><g mask="url(#f)"><use fill="#000" filter="url(#j)" xlink:href="#k"/><use fill="url(#l)" xlink:href="#k"/></g><g mask="url(#f)"><g transform="translate(7.333 5.233)"><mask id="n" fill="#fff"><use xlink:href="#m"/></mask><use fill="#fff" xlink:href="#m"/><g mask="url(#n)"><use stroke="#366C14" mask="url(#o)" fill="#AABCAE" xlink:href="#a"/></g><ellipse fill="#D4B872" mask="url(#n)" cx="3.667" cy="2.617" rx="1.571" ry="1.57"/><g mask="url(#n)"><use stroke="#0D3488" mask="url(#p)" fill="#C28321" xlink:href="#b"/></g><path d="M2.276 1.227c-.1-.1-.076-.18.066-.18h2.65c.136 0 .162.084.066.18l-1.211 1.21c-.1.099-.265.095-.36 0l-1.211-1.21z" fill="#216C30" mask="url(#n)"/></g></g><g mask="url(#f)" fill="#000"><use filter="url(#q)" xlink:href="#r"/></g></g></svg>