<svg width="24" height="18" viewBox="0 0 24 18" xmlns="http://www.w3.org/2000/svg" xmlns:xlink="http://www.w3.org/1999/xlink"><title>IM</title><defs><filter x="-50%" y="-50%" width="200%" height="200%" filterUnits="objectBoundingBox" id="a"><feOffset dy=".5" in="SourceAlpha" result="shadowOffsetOuter1"/><feGaussianBlur stdDeviation=".5" in="shadowOffsetOuter1" result="shadowBlurOuter1"/><feColorMatrix values="0 0 0 0 0 0 0 0 0 0 0 0 0 0 0 0 0 0 0.16 0" in="shadowBlurOuter1" result="shadowMatrixOuter1"/><feMerge><feMergeNode in="shadowMatrixOuter1"/><feMergeNode in="SourceGraphic"/></feMerge></filter><rect id="b" width="22" height="15.7" rx="1.5"/><filter x="-50%" y="-50%" width="200%" height="200%" filterUnits="objectBoundingBox" id="c"><feOffset dy=".5" in="SourceAlpha" result="shadowOffsetOuter1"/><feGaussianBlur stdDeviation=".5" in="shadowOffsetOuter1" result="shadowBlurOuter1"/><feColorMatrix values="0 0 0 0 0 0 0 0 0 0 0 0 0 0 0 0 0 0 0.16 0" in="shadowBlurOuter1"/></filter><linearGradient x1="50%" y1="0%" x2="50%" y2="100%" id="g"><stop stop-color="#E62C42" offset="0%"/><stop stop-color="#CB1D31" offset="100%"/></linearGradient><path id="f" d="M0 0h22v15.7H0z"/><filter x="-50%" y="-50%" width="200%" height="200%" filterUnits="objectBoundingBox" id="e"><feOffset dy=".5" in="SourceAlpha" result="shadowOffsetOuter1"/><feGaussianBlur stdDeviation=".5" in="shadowOffsetOuter1" result="shadowBlurOuter1"/><feColorMatrix values="0 0 0 0 0 0 0 0 0 0 0 0 0 0 0 0 0 0 0.16 0" in="shadowBlurOuter1"/></filter><rect id="i" width="22" height="15.7" rx="1.5"/><filter x="-50%" y="-50%" width="200%" height="200%" filterUnits="objectBoundingBox" id="h"><feOffset dy="-.5" in="SourceAlpha" result="shadowOffsetInner1"/><feComposite in="shadowOffsetInner1" in2="SourceAlpha" operator="arithmetic" k2="-1" k3="1" result="shadowInnerInner1"/><feColorMatrix values="0 0 0 0 0 0 0 0 0 0 0 0 0 0 0 0 0 0 0.04 0" in="shadowInnerInner1" result="shadowMatrixInner1"/><feOffset dy=".5" in="SourceAlpha" result="shadowOffsetInner2"/><feComposite in="shadowOffsetInner2" in2="SourceAlpha" operator="arithmetic" k2="-1" k3="1" result="shadowInnerInner2"/><feColorMatrix values="0 0 0 0 1 0 0 0 0 1 0 0 0 0 1 0 0 0 0.12 0" in="shadowInnerInner2" result="shadowMatrixInner2"/><feMerge><feMergeNode in="shadowMatrixInner1"/><feMergeNode in="shadowMatrixInner2"/></feMerge></filter><path d="M13.095 1.57H11L9.429 5.233 7.857 4.187s-1.14-2.71-1.571-3.14c-.43-.43-.868-.033-2.231.365-1.364.397-1.417.853-1.95.853-.216 0-.903-.795-1.286-1.033-.563-.35-.766-.185-.63.338.059.226.506.505.79.911.372.534.592 1.182.592 1.182s.511-.477.786-.555c.417-.12.887.085 1.437 0 .7-.108 1.444-.491 1.444-.491l.182 1.996S2.928 6.926 3.143 7.85c.214.924 2.586 2.058 3.143 2.868.556.809-.331 1.11-.331 1.5 0 .388-.092.906.33.75.424-.155.475-.829.863-1.441.267-.421.482-.643.52-.81.09-.408-1.077-1.48-1.713-2.24-.303-.362-.913-.853-.913-.853l1.8-1.344s3.107 1.282 3.808.855c.701-.427.874-4.518.874-4.518l2.16-.524-.589-.523z" id="k"/><filter x="-50%" y="-50%" width="200%" height="200%" filterUnits="objectBoundingBox" id="j"><feOffset dy=".5" in="SourceAlpha" result="shadowOffsetOuter1"/><feColorMatrix values="0 0 0 0 0 0 0 0 0 0 0 0 0 0 0 0 0 0 0.06 0" in="shadowOffsetOuter1"/></filter><linearGradient x1="50%" y1="0%" x2="50%" y2="100%" id="n"><stop stop-color="#F9DD4E" offset="0%"/><stop stop-color="#F9DA38" offset="100%"/></linearGradient><path d="M7.857 10.467a.524.524 0 1 1 0-1.047.524.524 0 0 1 0 1.047zm2.095-8.374a.524.524 0 1 1 0-1.047.524.524 0 0 1 0 1.047zm0 4.187a.524.524 0 1 1 0-1.047.524.524 0 0 1 0 1.047zM3.667 8.373a.524.524 0 1 1 0-1.047.524.524 0 0 1 0 1.047zm2.095-6.28a.524.524 0 1 1 0-1.047.524.524 0 0 1 0 1.047zM6.81 6.28c-.29 0-.524-.469-.524-1.047s.234-1.046.524-1.046c.289 0 .523.468.523 1.046 0 .578-.234 1.047-.523 1.047zM1.57 4.187a.524.524 0 1 1 0-1.047.524.524 0 0 1 0 1.047z" id="m"/><filter x="-50%" y="-50%" width="200%" height="200%" filterUnits="objectBoundingBox" id="l"><feOffset dy=".5" in="SourceAlpha" result="shadowOffsetOuter1"/><feColorMatrix values="0 0 0 0 0 0 0 0 0 0 0 0 0 0 0 0 0 0 0.06 0" in="shadowOffsetOuter1"/></filter></defs><g filter="url(#a)" transform="translate(1 1)" fill="none" fill-rule="evenodd"><mask id="d" fill="#fff"><use xlink:href="#b"/></mask><use fill="#000" filter="url(#c)" xlink:href="#b"/><g mask="url(#d)"><use fill="#000" filter="url(#e)" xlink:href="#f"/><use fill="url(#g)" xlink:href="#f"/></g><g mask="url(#d)" fill="#000"><use filter="url(#h)" xlink:href="#i"/></g><g mask="url(#d)"><g transform="translate(4.19 1.57)"><use fill="#000" filter="url(#j)" xlink:href="#k"/><use fill="#fff" xlink:href="#k"/></g><g transform="translate(4.19 1.57)"><use fill="#000" filter="url(#l)" xlink:href="#m"/><use fill="url(#n)" xlink:href="#m"/></g></g></g></svg>