<svg width="24" height="18" viewBox="0 0 24 18" xmlns="http://www.w3.org/2000/svg" xmlns:xlink="http://www.w3.org/1999/xlink"><title>IO</title><defs><filter x="-50%" y="-50%" width="200%" height="200%" filterUnits="objectBoundingBox" id="b"><feOffset dy=".5" in="SourceAlpha" result="shadowOffsetOuter1"/><feGaussianBlur stdDeviation=".5" in="shadowOffsetOuter1" result="shadowBlurOuter1"/><feColorMatrix values="0 0 0 0 0 0 0 0 0 0 0 0 0 0 0 0 0 0 0.16 0" in="shadowBlurOuter1" result="shadowMatrixOuter1"/><feMerge><feMergeNode in="shadowMatrixOuter1"/><feMergeNode in="SourceGraphic"/></feMerge></filter><rect id="c" width="22" height="15.7" rx="1.5"/><filter x="-50%" y="-50%" width="200%" height="200%" filterUnits="objectBoundingBox" id="d"><feOffset dy=".5" in="SourceAlpha" result="shadowOffsetOuter1"/><feGaussianBlur stdDeviation=".5" in="shadowOffsetOuter1" result="shadowBlurOuter1"/><feColorMatrix values="0 0 0 0 0 0 0 0 0 0 0 0 0 0 0 0 0 0 0.16 0" in="shadowBlurOuter1"/></filter><linearGradient x1="50%" y1="0%" x2="50%" y2="100%" id="h"><stop stop-color="#06319C" offset="0%"/><stop stop-color="#00247E" offset="100%"/></linearGradient><path id="g" d="M0 0h22v15.7H0z"/><filter x="-50%" y="-50%" width="200%" height="200%" filterUnits="objectBoundingBox" id="f"><feOffset dy=".5" in="SourceAlpha" result="shadowOffsetOuter1"/><feGaussianBlur stdDeviation=".5" in="shadowOffsetOuter1" result="shadowBlurOuter1"/><feColorMatrix values="0 0 0 0 0 0 0 0 0 0 0 0 0 0 0 0 0 0 0.16 0" in="shadowBlurOuter1"/></filter><path d="M.439 7.327l-1.161.386-.497.166.331.993.497-.166 2.16-.72c.16-.053.49-.053.652 0l2.16.72c.375.125.937.126 1.314 0l2.16-.72c.16-.053.49-.053.651 0l2.161.72c.375.125.937.126 1.314 0l2.16-.72c.16-.053.49-.053.651 0l2.16.72c.375.125.937.126 1.314 0l2.161-.72c.16-.053.49-.053.65 0l2.162.72.49.164.498.165.33-.993-.496-.165-.491-.164-2.16-.72a2.345 2.345 0 0 0-1.314 0l-2.161.72a1.34 1.34 0 0 1-.65 0l-2.162-.72a2.345 2.345 0 0 0-1.313 0l-2.16.72a1.34 1.34 0 0 1-.652 0l-1.77-.59v.204H6.726l-1.161.386a1.34 1.34 0 0 1-.651 0l-1.161-.386H.439zm8.99-1.716l1.438.479c.375.124.937.125 1.314 0l2.16-.72c.16-.053.49-.054.651 0l2.16.72c.375.124.937.125 1.314 0l2.161-.72c.16-.053.49-.054.65 0l2.162.72.49.163.498.166.33-.993-.496-.166-.491-.163-2.16-.72a2.345 2.345 0 0 0-1.314 0l-2.161.72a1.34 1.34 0 0 1-.65 0l-2.162-.72a2.345 2.345 0 0 0-1.313 0l-2.16.72a1.34 1.34 0 0 1-.652 0l-1.77-.59v1.104zM0 5.959l-.39.13-.498.166-.331-.993.497-.165.722-.24v1.102zm9.429-2.965l1.438.479c.375.125.937.125 1.314 0l2.16-.72c.16-.053.49-.053.651 0l2.16.72c.375.125.937.125 1.314 0l2.161-.72c.16-.053.49-.053.65 0l2.162.72.49.163.498.166.33-.993-.496-.165-.491-.164-2.16-.72a2.345 2.345 0 0 0-1.314 0l-2.161.72a1.34 1.34 0 0 1-.65 0l-2.162-.72a2.345 2.345 0 0 0-1.313 0l-2.16.72a1.34 1.34 0 0 1-.652 0l-1.77-.59v1.104zM0 3.343l-.39.13-.498.165-.331-.993.497-.165L0 2.24v1.103zM9.429.377l1.438.48c.375.124.937.125 1.314 0l2.16-.72c.16-.054.49-.054.651 0l2.16.72c.375.124.937.125 1.314 0l2.161-.72c.16-.054.49-.054.65 0l2.162.72.49.163.498.165.33-.993-.496-.165-.491-.164-2.16-.72a2.345 2.345 0 0 0-1.314 0l-2.161.72a1.34 1.34 0 0 1-.65 0l-2.162-.72a2.345 2.345 0 0 0-1.313 0l-2.16.72a1.34 1.34 0 0 1-.652 0l-2.16-.72a2.345 2.345 0 0 0-1.314 0l-2.16.72a1.34 1.34 0 0 1-.651 0l-2.161-.72a2.345 2.345 0 0 0-1.313 0l-2.161.72-.497.166.331.993.497-.166L0 .726V0h9.429v.377zm14.832 15.35l.497.165-.331.993-.497-.165-.491-.164-2.161-.72a1.34 1.34 0 0 0-.651 0l-2.16.72a2.345 2.345 0 0 1-1.314 0l-2.16-.72a1.34 1.34 0 0 0-.652 0l-2.16.72a2.345 2.345 0 0 1-1.314 0l-2.16-.72a1.34 1.34 0 0 0-.651 0l-2.161.72a2.345 2.345 0 0 1-1.314 0l-2.16-.72a1.34 1.34 0 0 0-.651 0l-2.16.72-.498.166-.331-.993.497-.166 2.16-.72a2.345 2.345 0 0 1 1.314 0l2.16.72c.16.054.49.054.652 0l2.16-.72a2.345 2.345 0 0 1 1.314 0l2.16.72c.16.054.49.054.651 0l2.161-.72a2.345 2.345 0 0 1 1.313 0l2.161.72c.16.054.49.054.651 0l2.16-.72a2.345 2.345 0 0 1 1.314 0l2.16.72.492.164zm0-2.617l.497.166-.331.993-.497-.166-.491-.163-2.161-.72a1.34 1.34 0 0 0-.651 0l-2.16.72a2.345 2.345 0 0 1-1.314 0l-2.16-.72a1.34 1.34 0 0 0-.652 0l-2.16.72a2.345 2.345 0 0 1-1.314 0l-2.16-.72a1.34 1.34 0 0 0-.651 0l-2.161.72a2.345 2.345 0 0 1-1.314 0l-2.16-.72a1.34 1.34 0 0 0-.651 0l-2.16.72-.498.165-.331-.993.497-.165 2.16-.72a2.345 2.345 0 0 1 1.314 0l2.16.72c.16.053.49.053.652 0l2.16-.72a2.345 2.345 0 0 1 1.314 0l2.16.72c.16.053.49.053.651 0l2.161-.72a2.345 2.345 0 0 1 1.313 0l2.161.72c.16.053.49.053.651 0l2.16-.72a2.345 2.345 0 0 1 1.314 0l2.16.72.492.163zm0-2.616l.497.165-.331.993-.497-.166-.491-.163-2.161-.72a1.34 1.34 0 0 0-.651 0l-2.16.72a2.345 2.345 0 0 1-1.314 0l-2.16-.72a1.34 1.34 0 0 0-.652 0l-2.16.72a2.345 2.345 0 0 1-1.314 0l-2.16-.72a1.34 1.34 0 0 0-.651 0l-2.161.72a2.345 2.345 0 0 1-1.314 0l-2.16-.72a1.34 1.34 0 0 0-.651 0l-2.16.72-.498.165-.331-.993.497-.165 2.16-.72a2.345 2.345 0 0 1 1.314 0l2.16.72c.16.053.49.054.652 0l2.16-.72a2.345 2.345 0 0 1 1.314 0l2.16.72c.16.053.49.054.651 0l2.161-.72a2.345 2.345 0 0 1 1.313 0l2.161.72c.16.053.49.054.651 0l2.16-.72a2.345 2.345 0 0 1 1.314 0l2.16.72.492.164z" id="j"/><filter x="-50%" y="-50%" width="200%" height="200%" filterUnits="objectBoundingBox" id="i"><feOffset dy=".5" in="SourceAlpha" result="shadowOffsetOuter1"/><feColorMatrix values="0 0 0 0 0 0 0 0 0 0 0 0 0 0 0 0 0 0 0.24 0" in="shadowOffsetOuter1"/></filter><linearGradient x1="50%" y1="0%" x2="50%" y2="100%" id="k"><stop stop-color="#DB1E36" offset="0%"/><stop stop-color="#D51931" offset="100%"/></linearGradient><path d="M3.667 3.14L0 0h.524L4.19 2.617h1.048L9.428 0v.274c0 .138-.09.314-.197.39L5.761 3.14v1.047l3.47 2.97c.11.094.076.17-.052.17h-.025a.908.908 0 0 1-.446-.141L5.238 4.71H4.19L0 7.327v-.524l3.667-2.616V3.14z" id="a"/><mask id="l" x="-.5" y="-.5" width="10.429" height="8.327"><path fill="#fff" d="M-.5-.5H9.929v8.327H-.5z"/><use xlink:href="#a"/></mask><rect id="n" width="22" height="15.7" rx="1.5"/><filter x="-50%" y="-50%" width="200%" height="200%" filterUnits="objectBoundingBox" id="m"><feOffset dy="-.5" in="SourceAlpha" result="shadowOffsetInner1"/><feComposite in="shadowOffsetInner1" in2="SourceAlpha" operator="arithmetic" k2="-1" k3="1" result="shadowInnerInner1"/><feColorMatrix values="0 0 0 0 0 0 0 0 0 0 0 0 0 0 0 0 0 0 0.04 0" in="shadowInnerInner1" result="shadowMatrixInner1"/><feOffset dy=".5" in="SourceAlpha" result="shadowOffsetInner2"/><feComposite in="shadowOffsetInner2" in2="SourceAlpha" operator="arithmetic" k2="-1" k3="1" result="shadowInnerInner2"/><feColorMatrix values="0 0 0 0 1 0 0 0 0 1 0 0 0 0 1 0 0 0 0.12 0" in="shadowInnerInner2" result="shadowMatrixInner2"/><feMerge><feMergeNode in="shadowMatrixInner1"/><feMergeNode in="shadowMatrixInner2"/></feMerge></filter></defs><g filter="url(#b)" transform="translate(1 1)" fill="none" fill-rule="evenodd"><mask id="e" fill="#fff"><use xlink:href="#c"/></mask><use fill="#000" filter="url(#d)" xlink:href="#c"/><g mask="url(#e)"><use fill="#000" filter="url(#f)" xlink:href="#g"/><use fill="url(#h)" xlink:href="#g"/></g><g mask="url(#e)" fill-rule="nonzero"><use fill="#000" filter="url(#i)" xlink:href="#j"/><use fill="#FFF" fill-rule="evenodd" xlink:href="#j"/></g><g mask="url(#e)"><use fill="url(#k)" xlink:href="#a"/><use stroke="#FFF" mask="url(#l)" xlink:href="#a"/></g><path d="M0 2.617V4.71h3.667v2.65c0 .27.224.49.507.49h1.08c.28 0 .508-.226.508-.49V4.71h3.693a.5.5 0 0 0 .497-.507v-1.08a.504.504 0 0 0-.497-.506H5.762V0H3.667v2.617H0z" fill="#fff" mask="url(#e)"/><path fill="url(#k)" mask="url(#e)" d="M0 3.14h4.19V0h1.048v3.14h4.19v1.047h-4.19v3.14H4.19v-3.14H0z"/><g mask="url(#e)" fill="#000"><use filter="url(#m)" xlink:href="#n"/></g></g></svg>