<svg width="24" height="18" viewBox="0 0 24 18" xmlns="http://www.w3.org/2000/svg" xmlns:xlink="http://www.w3.org/1999/xlink"><title>KR</title><defs><filter x="-50%" y="-50%" width="200%" height="200%" filterUnits="objectBoundingBox" id="a"><feOffset dy=".5" in="SourceAlpha" result="shadowOffsetOuter1"/><feGaussianBlur stdDeviation=".5" in="shadowOffsetOuter1" result="shadowBlurOuter1"/><feColorMatrix values="0 0 0 0 0 0 0 0 0 0 0 0 0 0 0 0 0 0 0.16 0" in="shadowBlurOuter1" result="shadowMatrixOuter1"/><feMerge><feMergeNode in="shadowMatrixOuter1"/><feMergeNode in="SourceGraphic"/></feMerge></filter><rect id="b" width="22" height="15.7" rx="1.5"/><filter x="-50%" y="-50%" width="200%" height="200%" filterUnits="objectBoundingBox" id="c"><feOffset dy=".5" in="SourceAlpha" result="shadowOffsetOuter1"/><feGaussianBlur stdDeviation=".5" in="shadowOffsetOuter1" result="shadowBlurOuter1"/><feColorMatrix values="0 0 0 0 0 0 0 0 0 0 0 0 0 0 0 0 0 0 0.16 0" in="shadowBlurOuter1"/></filter><linearGradient x1="50%" y1="0%" x2="50%" y2="100%" id="f"><stop stop-color="#E01B41" offset="0%"/><stop stop-color="#C51335" offset="100%"/></linearGradient><ellipse id="e" cx="3.667" cy="3.663" rx="3.667" ry="3.663"/><linearGradient x1="50%" y1="0%" x2="50%" y2="100%" id="g"><stop stop-color="#0D4B9C" offset="0%"/><stop stop-color="#053677" offset="100%"/></linearGradient><linearGradient x1="50%" y1="0%" x2="50%" y2="100%" id="i"><stop stop-color="#262626" offset="0%"/><stop stop-color="#0C0C0C" offset="100%"/></linearGradient><rect id="j" width="22" height="15.7" rx="1.5"/><filter x="-50%" y="-50%" width="200%" height="200%" filterUnits="objectBoundingBox" id="k"><feOffset dy="-.5" in="SourceAlpha" result="shadowOffsetInner1"/><feComposite in="shadowOffsetInner1" in2="SourceAlpha" operator="arithmetic" k2="-1" k3="1" result="shadowInnerInner1"/><feColorMatrix values="0 0 0 0 0 0 0 0 0 0 0 0 0 0 0 0 0 0 0.04 0" in="shadowInnerInner1" result="shadowMatrixInner1"/><feOffset dy=".5" in="SourceAlpha" result="shadowOffsetInner2"/><feComposite in="shadowOffsetInner2" in2="SourceAlpha" operator="arithmetic" k2="-1" k3="1" result="shadowInnerInner2"/><feColorMatrix values="0 0 0 0 1 0 0 0 0 1 0 0 0 0 1 0 0 0 0.12 0" in="shadowInnerInner2" result="shadowMatrixInner2"/><feMerge><feMergeNode in="shadowMatrixInner1"/><feMergeNode in="shadowMatrixInner2"/></feMerge></filter></defs><g filter="url(#a)" transform="translate(1 1)" fill="none" fill-rule="evenodd"><mask id="d" fill="#fff"><use xlink:href="#b"/></mask><use fill="#000" filter="url(#c)" xlink:href="#b"/><use fill="#fff" xlink:href="#b"/><g mask="url(#d)"><g transform="translate(7.333 4.187)"><mask id="h" fill="#fff"><use xlink:href="#e"/></mask><use fill="url(#f)" xlink:href="#e"/><path d="M0 4.187c1.048.98 2.619 1.57 3.667 0 1.047-1.57 3.143-1.57 3.666 0 .524 1.57 0 3.14 0 3.14H0s-1.048-4.122 0-3.14z" fill="url(#g)" mask="url(#h)"/></g></g><path d="M14.875 4.087a.247.247 0 0 1 .087-.335l.486-.28a.241.241 0 0 1 .334.091l1.323 2.293a.247.247 0 0 1-.087.335l-.486.28a.241.241 0 0 1-.334-.091l-1.323-2.293zm1.36-.785a.247.247 0 0 1 .088-.335l.486-.28a.241.241 0 0 1 .334.091l1.323 2.293a.247.247 0 0 1-.087.335l-.486.28a.241.241 0 0 1-.334-.091l-1.324-2.293zM3.534 10.63a.247.247 0 0 1 .087-.335l.486-.28a.241.241 0 0 1 .334.091l1.324 2.293a.247.247 0 0 1-.088.335l-.486.28a.241.241 0 0 1-.334-.091l-1.323-2.293zm1.36-.785a.247.247 0 0 1 .088-.335l.486-.28a.241.241 0 0 1 .334.091l1.323 2.293a.247.247 0 0 1-.087.335l-.486.28a.241.241 0 0 1-.334-.091L4.895 9.844zm11.304-.524a.247.247 0 0 1 .334-.092l.486.281a.241.241 0 0 1 .087.335l-1.323 2.293a.247.247 0 0 1-.334.091l-.486-.28a.241.241 0 0 1-.087-.335l1.323-2.293zm1.361.785a.247.247 0 0 1 .334-.092l.486.281a.241.241 0 0 1 .087.335l-1.323 2.293a.247.247 0 0 1-.334.091l-.486-.28a.241.241 0 0 1-.088-.335l1.324-2.293zM4.857 2.778a.247.247 0 0 1 .334-.091l.486.28a.241.241 0 0 1 .088.335L4.44 5.595a.247.247 0 0 1-.334.092l-.486-.281a.241.241 0 0 1-.087-.335l1.323-2.293zm1.361.785a.247.247 0 0 1 .334-.091l.486.28a.241.241 0 0 1 .087.335L5.802 6.38a.247.247 0 0 1-.334.092l-.486-.281a.241.241 0 0 1-.087-.335l1.323-2.293z" fill="url(#i)" opacity=".75" mask="url(#d)"/><g fill="#000"><use filter="url(#k)" xlink:href="#j"/></g></g></svg>