<svg width="24" height="18" viewBox="0 0 24 18" xmlns="http://www.w3.org/2000/svg" xmlns:xlink="http://www.w3.org/1999/xlink"><title>LK</title><defs><filter x="-50%" y="-50%" width="200%" height="200%" filterUnits="objectBoundingBox" id="a"><feOffset dy=".5" in="SourceAlpha" result="shadowOffsetOuter1"/><feGaussianBlur stdDeviation=".5" in="shadowOffsetOuter1" result="shadowBlurOuter1"/><feColorMatrix values="0 0 0 0 0 0 0 0 0 0 0 0 0 0 0 0 0 0 0.16 0" in="shadowBlurOuter1" result="shadowMatrixOuter1"/><feMerge><feMergeNode in="shadowMatrixOuter1"/><feMergeNode in="SourceGraphic"/></feMerge></filter><rect id="b" width="22" height="15.7" rx="1.5"/><filter x="-50%" y="-50%" width="200%" height="200%" filterUnits="objectBoundingBox" id="c"><feOffset dy=".5" in="SourceAlpha" result="shadowOffsetOuter1"/><feGaussianBlur stdDeviation=".5" in="shadowOffsetOuter1" result="shadowBlurOuter1"/><feColorMatrix values="0 0 0 0 0 0 0 0 0 0 0 0 0 0 0 0 0 0 0.16 0" in="shadowBlurOuter1"/></filter><linearGradient x1="50%" y1="0%" x2="50%" y2="100%" id="d"><stop stop-color="#FFBF19" offset="0%"/><stop stop-color="#FFB800" offset="100%"/></linearGradient><linearGradient x1="50%" y1="0%" x2="50%" y2="100%" id="f"><stop stop-color="#A52530" offset="0%"/><stop stop-color="#8E1F29" offset="100%"/></linearGradient><linearGradient x1="50%" y1="0%" x2="50%" y2="100%" id="g"><stop stop-color="#03664F" offset="0%"/><stop stop-color="#005642" offset="100%"/></linearGradient><linearGradient x1="50%" y1="0%" x2="50%" y2="100%" id="h"><stop stop-color="#FF6815" offset="0%"/><stop stop-color="#FF5B01" offset="100%"/></linearGradient><linearGradient x1="50%" y1="0%" x2="50%" y2="100%" id="k"><stop stop-color="#FFBF18" offset="0%"/><stop stop-color="#FFB800" offset="100%"/></linearGradient><path d="M9.952 3.14a.524.524 0 0 1-.523-.523v-.524h.523a.524.524 0 1 1 0 1.047zm9.429 0a.524.524 0 1 1 0-1.047h.524v.524a.524.524 0 0 1-.524.523zm0 9.42c.29 0 .524.234.524.523v.524h-.524a.524.524 0 1 1 0-1.047zm-9.429 0a.524.524 0 1 1 0 1.047H9.43v-.524c0-.289.234-.523.523-.523z" id="j"/><filter x="-50%" y="-50%" width="200%" height="200%" filterUnits="objectBoundingBox" id="i"><feOffset dy=".5" in="SourceAlpha" result="shadowOffsetOuter1"/><feColorMatrix values="0 0 0 0 0 0 0 0 0 0 0 0 0 0 0 0 0 0 0.06 0" in="shadowOffsetOuter1"/></filter><rect id="m" width="22" height="15.7" rx="1.5"/><filter x="-50%" y="-50%" width="200%" height="200%" filterUnits="objectBoundingBox" id="l"><feOffset dy="-.5" in="SourceAlpha" result="shadowOffsetInner1"/><feComposite in="shadowOffsetInner1" in2="SourceAlpha" operator="arithmetic" k2="-1" k3="1" result="shadowInnerInner1"/><feColorMatrix values="0 0 0 0 0 0 0 0 0 0 0 0 0 0 0 0 0 0 0.04 0" in="shadowInnerInner1" result="shadowMatrixInner1"/><feOffset dy=".5" in="SourceAlpha" result="shadowOffsetInner2"/><feComposite in="shadowOffsetInner2" in2="SourceAlpha" operator="arithmetic" k2="-1" k3="1" result="shadowInnerInner2"/><feColorMatrix values="0 0 0 0 1 0 0 0 0 1 0 0 0 0 1 0 0 0 0.12 0" in="shadowInnerInner2" result="shadowMatrixInner2"/><feMerge><feMergeNode in="shadowMatrixInner1"/><feMergeNode in="shadowMatrixInner2"/></feMerge></filter><path d="M12.571 9.919a.5.5 0 0 0-.5-.499h.478c-.277 0-.72-.08-.964-.178 0 0-1.109-.345-1.109-.869 0-.523.225-.662.225-.662.165-.212.213-.596.119-.845 0 0-.449-1.005-.344-1.633.105-.627.621-.8.621-.8.236-.136.427-.02.427.244v2.159c0 .271.202.592.45.716l.147.073c.249.124.605.07.809-.133l-.193.192c.198-.197.156-.458-.092-.582l-.597-.299V6.28h.548c.276 0 .297-.1.049-.225l-.597-.298v-.524h.548c.276 0 .654-.154.857-.357l-.192.192c.198-.198.58-.358.857-.358h.05c.275 0 .6.202.724.45l.073.147c.125.248.153.668.065.93l-.203.61c-.089.265.063.48.345.48h1.609c.279 0 .659-.155.863-.358l-.193.192c.198-.197.157-.459-.092-.583l-.147-.073a2.515 2.515 0 0 0-.95-.225h-.048a.498.498 0 0 1-.5-.499v-.049c0-.275.155-.653.358-.856l.166-.166v.548a.5.5 0 0 0 .501.499h-.478 1.05c.275 0 .6.201.724.45l.073.146c.125.249.246.68.263.953 0 0 .073.513-.038 1.067-.11.555-.248.637-.248.637a1.917 1.917 0 0 0-.275.917v1.08c0 .28-.223.506-.5.506h-.049c-.276 0-.398-.201-.274-.45l.074-.146a1.133 1.133 0 0 0 0-.9l-.074-.147c-.124-.249-.225-.228-.225.049v.049c0 .275-.101.7-.225.949l-.074.146a.886.886 0 0 1-.724.45h-.05c-.275 0-.398-.201-.273-.45l.073-.146c.124-.249.225-.672.225-.95V9.92a.501.501 0 0 0-.507-.499h-1.08a.502.502 0 0 0-.508.499v.049c0 .275-.1.7-.225.949l-.074.146a.886.886 0 0 1-.724.45h-.05c-.275 0-.397-.201-.273-.45l.073-.146c.125-.249.225-.672.225-.95V9.92z" id="o"/><filter x="-50%" y="-50%" width="200%" height="200%" filterUnits="objectBoundingBox" id="n"><feOffset dy=".5" in="SourceAlpha" result="shadowOffsetOuter1"/><feColorMatrix values="0 0 0 0 0 0 0 0 0 0 0 0 0 0 0 0 0 0 0.06 0" in="shadowOffsetOuter1"/></filter></defs><g filter="url(#a)" transform="translate(1 1)" fill="none" fill-rule="evenodd"><mask id="e" fill="#fff"><use xlink:href="#b"/></mask><use fill="#000" filter="url(#c)" xlink:href="#b"/><path fill="url(#d)" mask="url(#e)" d="M0 0h22v15.7H0z"/><path d="M8.381 1.047h11.564c.556 0 1.007.452 1.007 1v11.606c0 .552-.447 1-1.007 1H8.38V1.047z" fill="url(#f)" mask="url(#e)"/><path d="M1.048 2.047a1 1 0 0 1 .994-1H4.19v13.606H2.042a1 1 0 0 1-.994-1V2.047z" fill="url(#g)" mask="url(#e)"/><rect fill="url(#h)" mask="url(#e)" x="4.19" y="1.047" width="3.143" height="13.607" rx=".5"/><g mask="url(#e)"><use fill="#000" filter="url(#i)" xlink:href="#j"/><use fill="url(#k)" xlink:href="#j"/></g><g mask="url(#e)" fill="#000"><use filter="url(#l)" xlink:href="#m"/></g><g mask="url(#e)"><use fill="#000" filter="url(#n)" xlink:href="#o"/><use fill="url(#k)" xlink:href="#o"/></g></g></svg>