<svg width="24" height="18" viewBox="0 0 24 18" xmlns="http://www.w3.org/2000/svg" xmlns:xlink="http://www.w3.org/1999/xlink"><title>ME</title><defs><filter x="-50%" y="-50%" width="200%" height="200%" filterUnits="objectBoundingBox" id="a"><feOffset dy=".5" in="SourceAlpha" result="shadowOffsetOuter1"/><feGaussianBlur stdDeviation=".5" in="shadowOffsetOuter1" result="shadowBlurOuter1"/><feColorMatrix values="0 0 0 0 0 0 0 0 0 0 0 0 0 0 0 0 0 0 0.16 0" in="shadowBlurOuter1" result="shadowMatrixOuter1"/><feMerge><feMergeNode in="shadowMatrixOuter1"/><feMergeNode in="SourceGraphic"/></feMerge></filter><rect id="b" width="22" height="15.7" rx="1.5"/><filter x="-50%" y="-50%" width="200%" height="200%" filterUnits="objectBoundingBox" id="c"><feOffset dy=".5" in="SourceAlpha" result="shadowOffsetOuter1"/><feGaussianBlur stdDeviation=".5" in="shadowOffsetOuter1" result="shadowBlurOuter1"/><feColorMatrix values="0 0 0 0 0 0 0 0 0 0 0 0 0 0 0 0 0 0 0.16 0" in="shadowBlurOuter1"/></filter><linearGradient x1="50%" y1="0%" x2="50%" y2="100%" id="g"><stop stop-color="#E6BE53" offset="0%"/><stop stop-color="#D3AD46" offset="100%"/></linearGradient><path id="f" d="M0 0h22v15.7H0z"/><filter x="-50%" y="-50%" width="200%" height="200%" filterUnits="objectBoundingBox" id="e"><feOffset dy=".5" in="SourceAlpha" result="shadowOffsetOuter1"/><feGaussianBlur stdDeviation=".5" in="shadowOffsetOuter1" result="shadowBlurOuter1"/><feColorMatrix values="0 0 0 0 0 0 0 0 0 0 0 0 0 0 0 0 0 0 0.16 0" in="shadowBlurOuter1"/></filter><linearGradient x1="50%" y1="0%" x2="50%" y2="100%" id="h"><stop stop-color="#E01826" offset="0%"/><stop stop-color="#C30A17" offset="100%"/></linearGradient><path d="M10.642 5.399a.501.501 0 0 0 .716 0l-.192.192.712-.712.339-.338a.745.745 0 0 1 .805-.13l.147.074c.248.124.296.38.092.583l.192-.192-.712.712-.339.338a.743.743 0 0 0-.13.804l.074.147c.125.248.225.675.225.95V7.35c0 .277.202.4.45.276l.148-.073c.248-.125.296-.38.092-.583l.192.192a.5.5 0 0 1 0-.715l-.192.192c.198-.198.459-.56.583-.808l.074-.147c.124-.248.28-.674.346-.935l.281-1.122c.067-.269.256-.308.425-.082l.965 1.286c.167.223.303.627.303.91v1.08c0 .28-.1.708-.225.957l-.074.146a3.75 3.75 0 0 1-.58.805l-.338.338a3.71 3.71 0 0 1-.805.579l-.147.073a2.515 2.515 0 0 1-.95.225h-.048c-.276 0-.298.101-.05.225l.148.074c.248.124.604.379.808.582l-.192-.192a.501.501 0 0 0 .716 0l-.192.192a.501.501 0 0 1 .716 0l-.193-.192c.198.198.257.56.133.808l-.073.147a.886.886 0 0 1-.725.45h-.049c-.275 0-.7-.101-.95-.225l-.146-.074a1.763 1.763 0 0 1-.676-.675l-.073-.146c-.125-.249-.38-.296-.583-.093l.192-.192a.644.644 0 0 0-.083.77l.497.746a.502.502 0 0 1-.137.687l-.746.497a.817.817 0 0 1-.826 0l-.746-.497a.502.502 0 0 1-.137-.687l.497-.746a.628.628 0 0 0-.083-.77l.192.192c-.197-.197-.459-.156-.583.093l-.073.146c-.125.249-.427.551-.676.675l-.147.074a2.515 2.515 0 0 1-.95.225h-.048a.888.888 0 0 1-.725-.45l-.073-.147a.737.737 0 0 1 .133-.808l-.193.192a.501.501 0 0 1 .716 0l-.192-.192a.501.501 0 0 0 .716 0l-.192.192c.198-.197.56-.458.808-.582l.147-.074c.249-.124.228-.225-.049-.225H8.88c-.276 0-.701-.1-.95-.225l-.146-.073a3.753 3.753 0 0 1-.805-.58l-.339-.337a3.706 3.706 0 0 1-.58-.805l-.073-.146a2.522 2.522 0 0 1-.225-.957V5.74c0-.28.134-.685.303-.91l.965-1.286c.168-.223.36-.18.425.082l.28 1.122c.068.268.223.687.347.935l.074.147c.124.249.38.604.583.808l-.192-.192a.5.5 0 0 1 0 .715l.192-.192c-.198.197-.156.459.092.583l.147.073c.249.124.45 0 .45-.276v.479c0-.277.102-.703.226-.951l.073-.147a.75.75 0 0 0-.13-.804l-.338-.338-.712-.712.192.192c-.198-.198-.156-.459.092-.583l.147-.073a.752.752 0 0 1 .805.129l.339.338.712.712-.192-.192zm-.859-1.905c-.196-.195-.136-.427.126-.514l.611-.203c.265-.089.699-.088.96 0l.611.203c.266.088.317.324.126.514l-.339.338a1.384 1.384 0 0 1-.853.355h-.05c-.275 0-.662-.164-.853-.355l-.339-.338z" id="j"/><filter x="-50%" y="-50%" width="200%" height="200%" filterUnits="objectBoundingBox" id="i"><feOffset dy=".5" in="SourceAlpha" result="shadowOffsetOuter1"/><feColorMatrix values="0 0 0 0 0 0 0 0 0 0 0 0 0 0 0 0 0 0 0.06 0" in="shadowOffsetOuter1"/></filter><rect id="l" width="22" height="15.7" rx="1.5"/><filter x="-50%" y="-50%" width="200%" height="200%" filterUnits="objectBoundingBox" id="k"><feOffset dy="-.5" in="SourceAlpha" result="shadowOffsetInner1"/><feComposite in="shadowOffsetInner1" in2="SourceAlpha" operator="arithmetic" k2="-1" k3="1" result="shadowInnerInner1"/><feColorMatrix values="0 0 0 0 0 0 0 0 0 0 0 0 0 0 0 0 0 0 0.04 0" in="shadowInnerInner1" result="shadowMatrixInner1"/><feOffset dy=".5" in="SourceAlpha" result="shadowOffsetInner2"/><feComposite in="shadowOffsetInner2" in2="SourceAlpha" operator="arithmetic" k2="-1" k3="1" result="shadowInnerInner2"/><feColorMatrix values="0 0 0 0 1 0 0 0 0 1 0 0 0 0 1 0 0 0 0.12 0" in="shadowInnerInner2" result="shadowMatrixInner2"/><feMerge><feMergeNode in="shadowMatrixInner1"/><feMergeNode in="shadowMatrixInner2"/></feMerge></filter></defs><g filter="url(#a)" transform="translate(1 1)" fill="none" fill-rule="evenodd"><mask id="d" fill="#fff"><use xlink:href="#b"/></mask><use fill="#000" filter="url(#c)" xlink:href="#b"/><g mask="url(#d)"><use fill="#000" filter="url(#e)" xlink:href="#f"/><use fill="url(#g)" xlink:href="#f"/></g><rect fill="url(#h)" mask="url(#d)" x="1.048" y="1.047" width="19.905" height="13.607" rx=".75"/><g mask="url(#d)"><use fill="#000" filter="url(#i)" xlink:href="#j"/><use fill="url(#g)" xlink:href="#j"/></g><path d="M9.952 9.452c0 .271.08.273.179.029 0 0 .345-1.108.869-1.108s.869 1.108.869 1.108c.099.255.179.23.179-.045v-.54c0-.866-.47-1.57-1.048-1.57-.579 0-1.048.704-1.048 1.57v.556z" fill="#215F90" mask="url(#d)"/><g mask="url(#d)" fill="#000"><use filter="url(#k)" xlink:href="#l"/></g></g></svg>