<svg width="24" height="18" viewBox="0 0 24 18" xmlns="http://www.w3.org/2000/svg" xmlns:xlink="http://www.w3.org/1999/xlink"><title>MY</title><defs><filter x="-50%" y="-50%" width="200%" height="200%" filterUnits="objectBoundingBox" id="a"><feOffset dy=".5" in="SourceAlpha" result="shadowOffsetOuter1"/><feGaussianBlur stdDeviation=".5" in="shadowOffsetOuter1" result="shadowBlurOuter1"/><feColorMatrix values="0 0 0 0 0 0 0 0 0 0 0 0 0 0 0 0 0 0 0.16 0" in="shadowBlurOuter1" result="shadowMatrixOuter1"/><feMerge><feMergeNode in="shadowMatrixOuter1"/><feMergeNode in="SourceGraphic"/></feMerge></filter><rect id="b" width="22" height="15.7" rx="1.5"/><filter x="-50%" y="-50%" width="200%" height="200%" filterUnits="objectBoundingBox" id="c"><feOffset dy=".5" in="SourceAlpha" result="shadowOffsetOuter1"/><feGaussianBlur stdDeviation=".5" in="shadowOffsetOuter1" result="shadowBlurOuter1"/><feColorMatrix values="0 0 0 0 0 0 0 0 0 0 0 0 0 0 0 0 0 0 0.16 0" in="shadowBlurOuter1"/></filter><linearGradient x1="50%" y1="0%" x2="50%" y2="100%" id="d"><stop stop-color="#E1234A" offset="0%"/><stop stop-color="#BE1134" offset="100%"/></linearGradient><linearGradient x1="50%" y1="0%" x2="50%" y2="100%" id="f"><stop stop-color="#0C3F8E" offset="0%"/><stop stop-color="#032A67" offset="100%"/></linearGradient><linearGradient x1="50%" y1="0%" x2="50%" y2="100%" id="i"><stop stop-color="#FFD34F" offset="0%"/><stop stop-color="#FFCB2F" offset="100%"/></linearGradient><path d="M7.201 1.734a2.618 2.618 0 1 0 0 4.905 3.141 3.141 0 0 1-5.106-2.452 3.141 3.141 0 0 1 5.106-2.453zm1.18 3.31l-.91 1.029.238-1.351-1.37-.07 1.204-.656-.8-1.115 1.265.532.373-1.32.373 1.32 1.265-.532-.8 1.115 1.205.656-1.371.07.237 1.35-.909-1.027z" id="h"/><filter x="-50%" y="-50%" width="200%" height="200%" filterUnits="objectBoundingBox" id="g"><feOffset dy=".5" in="SourceAlpha" result="shadowOffsetOuter1"/><feColorMatrix values="0 0 0 0 0 0 0 0 0 0 0 0 0 0 0 0 0 0 0.06 0" in="shadowOffsetOuter1"/></filter><rect id="k" width="22" height="15.7" rx="1.5"/><filter x="-50%" y="-50%" width="200%" height="200%" filterUnits="objectBoundingBox" id="j"><feOffset dy="-.5" in="SourceAlpha" result="shadowOffsetInner1"/><feComposite in="shadowOffsetInner1" in2="SourceAlpha" operator="arithmetic" k2="-1" k3="1" result="shadowInnerInner1"/><feColorMatrix values="0 0 0 0 0 0 0 0 0 0 0 0 0 0 0 0 0 0 0.04 0" in="shadowInnerInner1" result="shadowMatrixInner1"/><feOffset dy=".5" in="SourceAlpha" result="shadowOffsetInner2"/><feComposite in="shadowOffsetInner2" in2="SourceAlpha" operator="arithmetic" k2="-1" k3="1" result="shadowInnerInner2"/><feColorMatrix values="0 0 0 0 1 0 0 0 0 1 0 0 0 0 1 0 0 0 0.12 0" in="shadowInnerInner2" result="shadowMatrixInner2"/><feMerge><feMergeNode in="shadowMatrixInner1"/><feMergeNode in="shadowMatrixInner2"/></feMerge></filter></defs><g filter="url(#a)" transform="translate(1 1)" fill="none" fill-rule="evenodd"><mask id="e" fill="#fff"><use xlink:href="#b"/></mask><use fill="#000" filter="url(#c)" xlink:href="#b"/><use fill="#fff" xlink:href="#b"/><path d="M10.476 0H22v1.047H10.476V0zm0 2.093H22V3.14H10.476V2.093zm0 2.094H22v1.046H10.476V4.187zm0 2.093H22v1.047H10.476V6.28zM0 8.373h22V9.42H0V8.373zm0 2.094h22v1.046H0v-1.046zm0 2.093h22v1.047H0V12.56zm0 2.093h22V15.7H0v-1.047z" fill="url(#d)" mask="url(#e)"/><path fill="url(#f)" mask="url(#e)" d="M0 0h12.571v8.373H0z"/><g mask="url(#e)"><use fill="#000" filter="url(#g)" xlink:href="#h"/><use fill="url(#i)" xlink:href="#h"/></g><g mask="url(#e)" fill="#000"><use filter="url(#j)" xlink:href="#k"/></g></g></svg>