<svg width="24" height="18" viewBox="0 0 24 18" xmlns="http://www.w3.org/2000/svg" xmlns:xlink="http://www.w3.org/1999/xlink"><title>SA</title><defs><filter x="-50%" y="-50%" width="200%" height="200%" filterUnits="objectBoundingBox" id="a"><feOffset dy=".5" in="SourceAlpha" result="shadowOffsetOuter1"/><feGaussianBlur stdDeviation=".5" in="shadowOffsetOuter1" result="shadowBlurOuter1"/><feColorMatrix values="0 0 0 0 0 0 0 0 0 0 0 0 0 0 0 0 0 0 0.16 0" in="shadowBlurOuter1" result="shadowMatrixOuter1"/><feMerge><feMergeNode in="shadowMatrixOuter1"/><feMergeNode in="SourceGraphic"/></feMerge></filter><rect id="b" width="22" height="15.7" rx="1.5"/><filter x="-50%" y="-50%" width="200%" height="200%" filterUnits="objectBoundingBox" id="c"><feOffset dy=".5" in="SourceAlpha" result="shadowOffsetOuter1"/><feGaussianBlur stdDeviation=".5" in="shadowOffsetOuter1" result="shadowBlurOuter1"/><feColorMatrix values="0 0 0 0 0 0 0 0 0 0 0 0 0 0 0 0 0 0 0.16 0" in="shadowBlurOuter1"/></filter><linearGradient x1="50%" y1="0%" x2="50%" y2="100%" id="d"><stop stop-color="#128C4A" offset="0%"/><stop stop-color="#0B6C38" offset="100%"/></linearGradient><path d="M5.238 9.42h8.381V8.347c0-.275.202-.396.45-.272l.598.298V9.42h1.588c.28 0 .507.224.507.507v.589a1 1 0 0 1-.995.997H14.11a.494.494 0 0 1-.491-.498v-.548h-6.83a1.41 1.41 0 0 1-.858-.355l-.693-.692z" id="g"/><filter x="-50%" y="-50%" width="200%" height="200%" filterUnits="objectBoundingBox" id="f"><feOffset dy=".5" in="SourceAlpha" result="shadowOffsetOuter1"/><feColorMatrix values="0 0 0 0 0 0 0 0 0 0 0 0 0 0 0 0 0 0 0.06 0" in="shadowOffsetOuter1"/></filter><path d="M5.238 6.523c0-.134.082-.325.177-.42l.17-.17a.253.253 0 0 0 0-.354l-.17-.168a.692.692 0 0 1-.177-.42v-.562c0-.134.112-.242.243-.242h.562c.134 0 .243.112.243.242v.562c0 .134.048.146.11.02l.302-.602a.428.428 0 0 1 .357-.222h1.08c.136 0 .246.121.246.25v.024c0 .137-.112.249-.243.249h-.562a.253.253 0 0 0-.243.25v.024c0 .138.112.25.243.25h.562c.134 0 .243.112.243.256v1.58c0 .142-.112.257-.243.257h-.562a.245.245 0 0 1-.243-.243v-.561c0-.134.122-.243.25-.243h.025c.137 0 .25-.121.25-.25v-.024a.248.248 0 0 0-.244-.25h-.561a.24.24 0 0 0-.243.246v1.08a.254.254 0 0 1-.25.245h-.025a.248.248 0 0 1-.25-.243v-.561c0-.134-.12-.243-.249-.243h-.024a.248.248 0 0 0-.25.243v.56c0 .135-.122.244-.25.244h-.024a.248.248 0 0 1-.25-.243v-.561z" id="i"/><filter x="-50%" y="-50%" width="200%" height="200%" filterUnits="objectBoundingBox" id="h"><feOffset dy=".5" in="SourceAlpha" result="shadowOffsetOuter1"/><feColorMatrix values="0 0 0 0 0 0 0 0 0 0 0 0 0 0 0 0 0 0 0.06 0" in="shadowOffsetOuter1"/></filter><path d="M13.619 6.523c0-.134.082-.325.177-.42l.17-.17a.253.253 0 0 0 0-.354l-.17-.168a.692.692 0 0 1-.177-.42v-.562c0-.134.112-.242.243-.242h.562c.134 0 .243.112.243.242v.562c0 .134.048.146.11.02l.302-.602a.428.428 0 0 1 .357-.222h1.08c.136 0 .246.121.246.25v.024c0 .137-.112.249-.243.249h-.562a.253.253 0 0 0-.243.25v.024c0 .138.112.25.243.25h.562c.134 0 .243.112.243.256v1.58c0 .142-.112.257-.243.257h-.562a.245.245 0 0 1-.243-.243v-.561c0-.134.122-.243.25-.243h.024c.138 0 .25-.121.25-.25v-.024a.248.248 0 0 0-.243-.25h-.562a.24.24 0 0 0-.243.246v1.08a.254.254 0 0 1-.25.245h-.024a.248.248 0 0 1-.25-.243v-.561c0-.134-.12-.243-.249-.243h-.025a.248.248 0 0 0-.25.243v.56c0 .135-.12.244-.249.244h-.024a.248.248 0 0 1-.25-.243v-.561z" id="k"/><filter x="-50%" y="-50%" width="200%" height="200%" filterUnits="objectBoundingBox" id="j"><feOffset dy=".5" in="SourceAlpha" result="shadowOffsetOuter1"/><feColorMatrix values="0 0 0 0 0 0 0 0 0 0 0 0 0 0 0 0 0 0 0.06 0" in="shadowOffsetOuter1"/></filter><path d="M12.571 4.97a.727.727 0 0 1-.189.452l-.145.146a.265.265 0 0 0 0 .378l.145.145c.105.104.19.301.19.453v.519a.26.26 0 0 1-.265.264h-.519a.26.26 0 0 1-.264-.264v-.519c0-.146-.049-.167-.122-.021l-.28.56a.48.48 0 0 1-.381.244H9.688a.263.263 0 0 1-.26-.262.26.26 0 0 1 .265-.262h.519a.266.266 0 0 0 .264-.261.26.26 0 0 0-.264-.262h-.52a.26.26 0 0 1-.263-.257v-1.58c0-.141.112-.256.264-.256h.519a.26.26 0 0 1 .264.264v.518a.266.266 0 0 1-.262.264.265.265 0 0 0-.262.262.26.26 0 0 0 .265.262h.519a.267.267 0 0 0 .264-.26V4.446c0-.143.121-.26.262-.26a.26.26 0 0 1 .262.265v.518c0 .146.121.264.262.264a.26.26 0 0 0 .262-.264v-.518c0-.146.121-.264.262-.264a.26.26 0 0 1 .261.264v.518z" id="m"/><filter x="-50%" y="-50%" width="200%" height="200%" filterUnits="objectBoundingBox" id="l"><feOffset dy=".5" in="SourceAlpha" result="shadowOffsetOuter1"/><feColorMatrix values="0 0 0 0 0 0 0 0 0 0 0 0 0 0 0 0 0 0 0.06 0" in="shadowOffsetOuter1"/></filter><rect id="o" width="22" height="15.7" rx="1.5"/><filter x="-50%" y="-50%" width="200%" height="200%" filterUnits="objectBoundingBox" id="n"><feOffset dy="-.5" in="SourceAlpha" result="shadowOffsetInner1"/><feComposite in="shadowOffsetInner1" in2="SourceAlpha" operator="arithmetic" k2="-1" k3="1" result="shadowInnerInner1"/><feColorMatrix values="0 0 0 0 0 0 0 0 0 0 0 0 0 0 0 0 0 0 0.04 0" in="shadowInnerInner1" result="shadowMatrixInner1"/><feOffset dy=".5" in="SourceAlpha" result="shadowOffsetInner2"/><feComposite in="shadowOffsetInner2" in2="SourceAlpha" operator="arithmetic" k2="-1" k3="1" result="shadowInnerInner2"/><feColorMatrix values="0 0 0 0 1 0 0 0 0 1 0 0 0 0 1 0 0 0 0.12 0" in="shadowInnerInner2" result="shadowMatrixInner2"/><feMerge><feMergeNode in="shadowMatrixInner1"/><feMergeNode in="shadowMatrixInner2"/></feMerge></filter></defs><g filter="url(#a)" transform="translate(1 1)" fill="none" fill-rule="evenodd"><mask id="e" fill="#fff"><use xlink:href="#b"/></mask><use fill="#000" filter="url(#c)" xlink:href="#b"/><path fill="url(#d)" mask="url(#e)" d="M0 0h22v15.7H0z"/><g mask="url(#e)"><use fill="#000" filter="url(#f)" xlink:href="#g"/><use fill="#fff" xlink:href="#g"/></g><g mask="url(#e)"><use fill="#000" filter="url(#h)" xlink:href="#i"/><use fill="#fff" xlink:href="#i"/></g><g mask="url(#e)"><use fill="#000" filter="url(#j)" xlink:href="#k"/><use fill="#fff" xlink:href="#k"/></g><g mask="url(#e)"><use fill="#000" filter="url(#l)" xlink:href="#m"/><use fill="#fff" xlink:href="#m"/></g><g mask="url(#e)" fill="#000"><use filter="url(#n)" xlink:href="#o"/></g></g></svg>