<svg width="24" height="18" viewBox="0 0 24 18" xmlns="http://www.w3.org/2000/svg" xmlns:xlink="http://www.w3.org/1999/xlink"><title>TF</title><defs><filter x="-50%" y="-50%" width="200%" height="200%" filterUnits="objectBoundingBox" id="a"><feOffset dy=".5" in="SourceAlpha" result="shadowOffsetOuter1"/><feGaussianBlur stdDeviation=".5" in="shadowOffsetOuter1" result="shadowBlurOuter1"/><feColorMatrix values="0 0 0 0 0 0 0 0 0 0 0 0 0 0 0 0 0 0 0.16 0" in="shadowBlurOuter1" result="shadowMatrixOuter1"/><feMerge><feMergeNode in="shadowMatrixOuter1"/><feMergeNode in="SourceGraphic"/></feMerge></filter><rect id="b" width="22" height="15.7" rx="1.5"/><filter x="-50%" y="-50%" width="200%" height="200%" filterUnits="objectBoundingBox" id="c"><feOffset dy=".5" in="SourceAlpha" result="shadowOffsetOuter1"/><feGaussianBlur stdDeviation=".5" in="shadowOffsetOuter1" result="shadowBlurOuter1"/><feColorMatrix values="0 0 0 0 0 0 0 0 0 0 0 0 0 0 0 0 0 0 0.16 0" in="shadowBlurOuter1"/></filter><linearGradient x1="50%" y1="0%" x2="50%" y2="100%" id="g"><stop stop-color="#063AB7" offset="0%"/><stop stop-color="#002B93" offset="100%"/></linearGradient><path id="f" d="M0 0h22v15.7H0z"/><filter x="-50%" y="-50%" width="200%" height="200%" filterUnits="objectBoundingBox" id="e"><feOffset dy=".5" in="SourceAlpha" result="shadowOffsetOuter1"/><feGaussianBlur stdDeviation=".5" in="shadowOffsetOuter1" result="shadowBlurOuter1"/><feColorMatrix values="0 0 0 0 0 0 0 0 0 0 0 0 0 0 0 0 0 0 0.16 0" in="shadowBlurOuter1"/></filter><path d="M0 0h9.952v7.606a.246.246 0 0 1-.246.244H0V0z" id="i"/><filter x="-50%" y="-50%" width="200%" height="200%" filterUnits="objectBoundingBox" id="h"><feMorphology radius=".25" operator="dilate" in="SourceAlpha" result="shadowSpreadOuter1"/><feOffset in="shadowSpreadOuter1" result="shadowOffsetOuter1"/><feColorMatrix values="0 0 0 0 0 0 0 0 0 0 0 0 0 0 0 0 0 0 0.06 0" in="shadowOffsetOuter1"/></filter><linearGradient x1="50%" y1="0%" x2="50%" y2="100%" id="j"><stop stop-color="#F54653" offset="0%"/><stop stop-color="#EE2A39" offset="100%"/></linearGradient><linearGradient x1="50%" y1="0%" x2="50%" y2="100%" id="k"><stop stop-color="#1034BB" offset="0%"/><stop stop-color="#042396" offset="100%"/></linearGradient><path id="m" d="M3.143 0h3.143v7.327H3.143z"/><filter x="-50%" y="-50%" width="200%" height="200%" filterUnits="objectBoundingBox" id="l"><feOffset dx=".5" in="SourceAlpha" result="shadowOffsetOuter1"/><feColorMatrix values="0 0 0 0 0 0 0 0 0 0 0 0 0 0 0 0 0 0 0.06 0" in="shadowOffsetOuter1" result="shadowMatrixOuter1"/><feOffset dx="-.5" in="SourceAlpha" result="shadowOffsetOuter2"/><feColorMatrix values="0 0 0 0 0 0 0 0 0 0 0 0 0 0 0 0 0 0 0.06 0" in="shadowOffsetOuter2" result="shadowMatrixOuter2"/><feMerge><feMergeNode in="shadowMatrixOuter1"/><feMergeNode in="shadowMatrixOuter2"/></feMerge></filter><rect id="o" width="22" height="15.7" rx="1.5"/><filter x="-50%" y="-50%" width="200%" height="200%" filterUnits="objectBoundingBox" id="n"><feOffset dy="-.5" in="SourceAlpha" result="shadowOffsetInner1"/><feComposite in="shadowOffsetInner1" in2="SourceAlpha" operator="arithmetic" k2="-1" k3="1" result="shadowInnerInner1"/><feColorMatrix values="0 0 0 0 0 0 0 0 0 0 0 0 0 0 0 0 0 0 0.04 0" in="shadowInnerInner1" result="shadowMatrixInner1"/><feOffset dy=".5" in="SourceAlpha" result="shadowOffsetInner2"/><feComposite in="shadowOffsetInner2" in2="SourceAlpha" operator="arithmetic" k2="-1" k3="1" result="shadowInnerInner2"/><feColorMatrix values="0 0 0 0 1 0 0 0 0 1 0 0 0 0 1 0 0 0 0.12 0" in="shadowInnerInner2" result="shadowMatrixInner2"/><feMerge><feMergeNode in="shadowMatrixInner1"/><feMergeNode in="shadowMatrixInner2"/></feMerge></filter><path d="M13.619 6.28h5.238l-.524 1.047h-1.571v.523h1.048l-.524 1.047h-.524v1.57h-1.048v-3.14h-1.571l-.524-1.047zm4.19 2.617l1.048 1.57h-2.095l1.048-1.57zm-3.142 0l1.047 1.57H13.62l1.048-1.57zm1.571 3.14l-1.048-1.57h2.096l-1.048 1.57zm3.143-3.664a.524.524 0 1 1 0-1.047.524.524 0 0 1 0 1.047zm-6.286 0a.524.524 0 1 1 0-1.047.524.524 0 0 1 0 1.047zm1.048 4.187a.524.524 0 1 1 0-1.047.524.524 0 0 1 0 1.047zm4.19 0a.524.524 0 1 1 0-1.047.524.524 0 0 1 0 1.047zm-2.095 1.047a.524.524 0 1 1 0-1.047.524.524 0 0 1 0 1.047z" id="q"/><filter x="-50%" y="-50%" width="200%" height="200%" filterUnits="objectBoundingBox" id="p"><feOffset dy=".5" in="SourceAlpha" result="shadowOffsetOuter1"/><feColorMatrix values="0 0 0 0 0 0 0 0 0 0 0 0 0 0 0 0 0 0 0.24 0" in="shadowOffsetOuter1"/></filter></defs><g filter="url(#a)" transform="translate(1 1)" fill="none" fill-rule="evenodd"><mask id="d" fill="#fff"><use xlink:href="#b"/></mask><use fill="#000" filter="url(#c)" xlink:href="#b"/><g mask="url(#d)"><use fill="#000" filter="url(#e)" xlink:href="#f"/><use fill="url(#g)" xlink:href="#f"/></g><g mask="url(#d)"><use fill="#000" filter="url(#h)" xlink:href="#i"/><use fill="#fff" xlink:href="#i"/></g><path fill="url(#j)" mask="url(#d)" d="M6.286 0h3.143v7.327H6.286z"/><path fill="url(#k)" mask="url(#d)" d="M0 0h3.143v7.327H0z"/><g mask="url(#d)"><use fill="#000" filter="url(#l)" xlink:href="#m"/><use fill="#fff" xlink:href="#m"/></g><g mask="url(#d)" fill="#000"><use filter="url(#n)" xlink:href="#o"/></g><g><use fill="#000" filter="url(#p)" xlink:href="#q"/><use fill="#FFF" xlink:href="#q"/></g></g></svg>