<svg width="24" height="18" viewBox="0 0 24 18" xmlns="http://www.w3.org/2000/svg" xmlns:xlink="http://www.w3.org/1999/xlink"><title>TM</title><defs><filter x="-50%" y="-50%" width="200%" height="200%" filterUnits="objectBoundingBox" id="a"><feOffset dy=".5" in="SourceAlpha" result="shadowOffsetOuter1"/><feGaussianBlur stdDeviation=".5" in="shadowOffsetOuter1" result="shadowBlurOuter1"/><feColorMatrix values="0 0 0 0 0 0 0 0 0 0 0 0 0 0 0 0 0 0 0.16 0" in="shadowBlurOuter1" result="shadowMatrixOuter1"/><feMerge><feMergeNode in="shadowMatrixOuter1"/><feMergeNode in="SourceGraphic"/></feMerge></filter><rect id="b" width="22" height="15.7" rx="1.5"/><filter x="-50%" y="-50%" width="200%" height="200%" filterUnits="objectBoundingBox" id="c"><feOffset dy=".5" in="SourceAlpha" result="shadowOffsetOuter1"/><feGaussianBlur stdDeviation=".5" in="shadowOffsetOuter1" result="shadowBlurOuter1"/><feColorMatrix values="0 0 0 0 0 0 0 0 0 0 0 0 0 0 0 0 0 0 0.16 0" in="shadowBlurOuter1"/></filter><linearGradient x1="50%" y1="0%" x2="50%" y2="100%" id="d"><stop stop-color="#30C375" offset="0%"/><stop stop-color="#28AE67" offset="100%"/></linearGradient><linearGradient x1="50%" y1="0%" x2="50%" y2="100%" id="f"><stop stop-color="#DE404F" offset="0%"/><stop stop-color="#CA3745" offset="100%"/></linearGradient><ellipse id="g" cx="1.571" cy="1.047" rx="1.571" ry="1.047"/><ellipse id="i" cx="1.571" cy="1.047" rx="1.571" ry="1.047"/><ellipse id="k" cx="1.571" cy="1.047" rx="1.571" ry="1.047"/><ellipse id="m" cx="1.571" cy=".523" rx="1.571" ry=".523"/><ellipse id="n" cx="1.571" cy="1.047" rx="1.571" ry="1.047"/><path d="M11.646 3.327a.523.523 0 1 0 .801.673.523.523 0 0 0-.8-.673zM10.29 5.356a.524.524 0 1 0-.673.803.524.524 0 0 0 .673-.803zM9.241 4.309a.524.524 0 1 0-.673.804.524.524 0 0 0 .673-.804zm2.096-2.093a.524.524 0 1 0-.674.803.524.524 0 0 0 .674-.803zm-.524 1.57a.524.524 0 1 0-.673.803.524.524 0 0 0 .673-.803z" id="q"/><filter x="-50%" y="-50%" width="200%" height="200%" filterUnits="objectBoundingBox" id="p"><feOffset dy=".5" in="SourceAlpha" result="shadowOffsetOuter1"/><feColorMatrix values="0 0 0 0 0 0 0 0 0 0 0 0 0 0 0 0 0 0 0.06 0" in="shadowOffsetOuter1"/></filter><path d="M13.731 7.419a3.197 3.197 0 0 1-4.846-.383 3.198 3.198 0 0 0 4.136-.327 3.19 3.19 0 0 0 .327-4.132 3.19 3.19 0 0 1 .383 4.842z" id="s"/><filter x="-50%" y="-50%" width="200%" height="200%" filterUnits="objectBoundingBox" id="r"><feOffset dy=".5" in="SourceAlpha" result="shadowOffsetOuter1"/><feColorMatrix values="0 0 0 0 0 0 0 0 0 0 0 0 0 0 0 0 0 0 0.06 0" in="shadowOffsetOuter1"/></filter><rect id="u" width="22" height="15.7" rx="1.5"/><filter x="-50%" y="-50%" width="200%" height="200%" filterUnits="objectBoundingBox" id="t"><feOffset dy="-.5" in="SourceAlpha" result="shadowOffsetInner1"/><feComposite in="shadowOffsetInner1" in2="SourceAlpha" operator="arithmetic" k2="-1" k3="1" result="shadowInnerInner1"/><feColorMatrix values="0 0 0 0 0 0 0 0 0 0 0 0 0 0 0 0 0 0 0.04 0" in="shadowInnerInner1" result="shadowMatrixInner1"/><feOffset dy=".5" in="SourceAlpha" result="shadowOffsetInner2"/><feComposite in="shadowOffsetInner2" in2="SourceAlpha" operator="arithmetic" k2="-1" k3="1" result="shadowInnerInner2"/><feColorMatrix values="0 0 0 0 1 0 0 0 0 1 0 0 0 0 1 0 0 0 0.12 0" in="shadowInnerInner2" result="shadowMatrixInner2"/><feMerge><feMergeNode in="shadowMatrixInner1"/><feMergeNode in="shadowMatrixInner2"/></feMerge></filter></defs><g filter="url(#a)" transform="translate(1 1)" fill="none" fill-rule="evenodd"><mask id="e" fill="#fff"><use xlink:href="#b"/></mask><use fill="#000" filter="url(#c)" xlink:href="#b"/><path fill="url(#d)" mask="url(#e)" d="M0 0h22v15.7H0z"/><path fill="url(#f)" mask="url(#e)" d="M3.143 0h3.143v15.7H3.143z"/><g mask="url(#e)"><g transform="translate(3.143 1.047)"><mask id="h" fill="#fff"><use xlink:href="#g"/></mask><use fill="#FFF" xlink:href="#g"/><ellipse fill="#DD404F" mask="url(#h)" cx="1.571" cy="1.047" rx=".524" ry=".523"/><path fill="#FBAF29" mask="url(#h)" d="M0 0h1.571v1.047H0zM1.571 1.047h1.571v1.047H1.571z"/></g></g><g mask="url(#e)"><g transform="translate(3.143 12.56)"><mask id="j" fill="#fff"><use xlink:href="#i"/></mask><use fill="#FFF" xlink:href="#i"/><ellipse fill="#DD404F" mask="url(#j)" cx="1.571" cy="1.047" rx=".524" ry=".523"/><path fill="#FBAF29" mask="url(#j)" d="M0 0h1.571v1.047H0zM1.571 1.047h1.571v1.047H1.571z"/></g></g><g mask="url(#e)"><g transform="translate(3.143 7.327)"><mask id="l" fill="#fff"><use xlink:href="#k"/></mask><use fill="#28AE67" xlink:href="#k"/><ellipse fill="#DD404F" mask="url(#l)" cx="1.571" cy="1.047" rx="1.048" ry=".523"/></g></g><g mask="url(#e)"><use fill="#28AE67" xlink:href="#m" transform="translate(3.143 10.467)"/></g><g mask="url(#e)"><g transform="translate(3.143 4.187)"><mask id="o" fill="#fff"><use xlink:href="#n"/></mask><use fill="#FBAF29" xlink:href="#n"/><ellipse fill="#DD404F" mask="url(#o)" cx="1.571" cy="1.047" rx=".524" ry=".523"/><path fill="#28AE67" mask="url(#o)" d="M0 0h1.048v2.093H0zM2.095 0h1.048v2.093H2.095z"/></g></g><g mask="url(#e)"><use fill="#000" filter="url(#p)" xlink:href="#q"/><use fill="#fff" xlink:href="#q"/></g><g mask="url(#e)"><use fill="#000" filter="url(#r)" xlink:href="#s"/><use fill="#fff" xlink:href="#s"/></g><g mask="url(#e)" fill="#000"><use filter="url(#t)" xlink:href="#u"/></g></g></svg>