<svg width="24" height="18" viewBox="0 0 24 18" xmlns="http://www.w3.org/2000/svg" xmlns:xlink="http://www.w3.org/1999/xlink"><title>WW-NAM</title><defs><filter x="-50%" y="-50%" width="200%" height="200%" filterUnits="objectBoundingBox" id="a"><feOffset dy=".5" in="SourceAlpha" result="shadowOffsetOuter1"/><feGaussianBlur stdDeviation=".5" in="shadowOffsetOuter1" result="shadowBlurOuter1"/><feColorMatrix values="0 0 0 0 0 0 0 0 0 0 0 0 0 0 0 0 0 0 0.16 0" in="shadowBlurOuter1" result="shadowMatrixOuter1"/><feMerge><feMergeNode in="shadowMatrixOuter1"/><feMergeNode in="SourceGraphic"/></feMerge></filter><rect id="b" width="22" height="15.7" rx="1.5"/><filter x="-50%" y="-50%" width="200%" height="200%" filterUnits="objectBoundingBox" id="c"><feOffset dy=".5" in="SourceAlpha" result="shadowOffsetOuter1"/><feGaussianBlur stdDeviation=".5" in="shadowOffsetOuter1" result="shadowBlurOuter1"/><feColorMatrix values="0 0 0 0 0 0 0 0 0 0 0 0 0 0 0 0 0 0 0.16 0" in="shadowBlurOuter1"/></filter><linearGradient x1="50%" y1="0%" x2="50%" y2="100%" id="d"><stop stop-color="#19BFBF" offset="0%"/><stop stop-color="#10ACAC" offset="100%"/></linearGradient><rect id="g" width="22" height="15.7" rx="1.5"/><filter x="-50%" y="-50%" width="200%" height="200%" filterUnits="objectBoundingBox" id="f"><feOffset dy="-.5" in="SourceAlpha" result="shadowOffsetInner1"/><feComposite in="shadowOffsetInner1" in2="SourceAlpha" operator="arithmetic" k2="-1" k3="1" result="shadowInnerInner1"/><feColorMatrix values="0 0 0 0 0 0 0 0 0 0 0 0 0 0 0 0 0 0 0.04 0" in="shadowInnerInner1" result="shadowMatrixInner1"/><feOffset dy=".5" in="SourceAlpha" result="shadowOffsetInner2"/><feComposite in="shadowOffsetInner2" in2="SourceAlpha" operator="arithmetic" k2="-1" k3="1" result="shadowInnerInner2"/><feColorMatrix values="0 0 0 0 1 0 0 0 0 1 0 0 0 0 1 0 0 0 0.12 0" in="shadowInnerInner2" result="shadowMatrixInner2"/><feMerge><feMergeNode in="shadowMatrixInner1"/><feMergeNode in="shadowMatrixInner2"/></feMerge></filter><path d="M10.587 11.735l-.222-.444-.302-.602a.455.455 0 0 0-.36-.222h-.025a.695.695 0 0 1-.428-.179L7.512 8.552a.694.694 0 0 1-.179-.421v-.562a.696.696 0 0 0-.182-.425l-.683-.682c-.1-.1-.21-.295-.242-.422l-.404-1.613a.502.502 0 0 0-.306-.322l-1.08-.36a4.256 4.256 0 0 1-.468-.193l-.603-.301a.44.44 0 0 1-.222-.354v-.56c0-.135.112-.244.243-.244h.561c.135 0 .325.082.42.178l.17.168c.098.098.29.178.42.178h.562a.693.693 0 0 0 .42-.178l.17-.168a.698.698 0 0 1 .434-.178h1.581c.142 0 .354.049.48.111l.602.302c.123.061.335.11.466.11h.561c.134 0 .34-.048.465-.11l.604-.302a1.26 1.26 0 0 1 .479-.11h1.581c.142 0 .257.111.257.242v.561a.245.245 0 0 1-.243.243h-.562a.24.24 0 0 0-.243.245v1.08c0 .135.097.293.223.356l.603.301c.123.062.222.008.222-.134v-1.08c0-.135.103-.245.246-.245h1.08c.136 0 .245.122.245.25v.024c0 .138.104.25.246.25h1.08c.136 0 .246.112.246.242v.562c0 .134-.034.345-.082.488l-.36 1.079c-.045.136-.166.33-.262.425l-1.211 1.21c-.1.1-.229.277-.291.402l-.302.603a1.248 1.248 0 0 0-.111.465v.56c0 .135-.122.244-.25.244h-.024a.437.437 0 0 1-.361-.222l-.302-.603a.428.428 0 0 0-.356-.222h-1.08a.433.433 0 0 0-.357.222l-.302.603a.553.553 0 0 0 0 .444l.302.602a.44.44 0 0 0 .354.222h.561c.135 0 .326.082.426.183l.683.682c.1.1.182.294.182.425v.56a.245.245 0 0 1-.243.244h-.562a.43.43 0 0 1-.354-.222l-.301-.603a.44.44 0 0 0-.354-.222h-.562a.43.43 0 0 1-.354-.222l-.302-.603z" id="i"/><filter x="-50%" y="-50%" width="200%" height="200%" filterUnits="objectBoundingBox" id="h"><feOffset dy=".5" in="SourceAlpha" result="shadowOffsetOuter1"/><feColorMatrix values="0 0 0 0 0 0 0 0 0 0 0 0 0 0 0 0 0 0 0.06 0" in="shadowOffsetOuter1"/></filter></defs><g filter="url(#a)" transform="translate(1 1)" fill="none" fill-rule="evenodd"><mask id="e" fill="#fff"><use xlink:href="#b"/></mask><use filter="url(#c)" xlink:href="#b" fill="#000"/><path fill="url(#d)" mask="url(#e)" d="M0 0h22v15.7H0z"/><g mask="url(#e)" fill="#000"><use filter="url(#f)" xlink:href="#g"/></g><g><use fill="#000" filter="url(#h)" xlink:href="#i"/><use fill="#fff" xlink:href="#i"/></g></g></svg>